<?xml version="1.0" standalone="no"?>
<!DOCTYPE svg PUBLIC "-//W3C//DTD SVG 1.1//EN" "http://www.w3.org/Graphics/SVG/1.1/DTD/svg11.dtd" >
<svg xmlns="http://www.w3.org/2000/svg">
<metadata>
<json>
<![CDATA[
{
	"fontFamily": "primus-icon",
	"majorVersion": 1,
	"minorVersion": 0,
	"version": "Version 1.0",
	"fontId": "primus-icon",
	"psName": "primus-icon",
	"subFamily": "Regular",
	"fullName": "primus-icon",
	"description": "Font generated by IcoMoon."
}
]]>
</json>
</metadata>
<defs>
<font id="primus-icon" horiz-adv-x="1024">
<font-face units-per-em="1024" ascent="960" descent="-64" />
<missing-glyph horiz-adv-x="1024" />
<glyph unicode="&#x20;" horiz-adv-x="512" d="" />
<glyph unicode="&#xe900;" glyph-name="ads" data-tags="ads" d="M659.165 666.33c-5.706 16.727-23.891 25.662-40.618 19.957s-25.661-23.89-19.958-40.617l3.206-9.395-300.255-163.936c-37.15-20.285-54.608-64.189-40.892-104.403l5.907-17.318c13.678-40.102 54.196-64.387 95.934-58.358l38.438 5.552 9.805-30.112 0.144-0.416c15.629-45.821 65.562-69.942 111.232-54.739l35.322 11.76c43.75 14.566 68.666 60.243 57.203 104.371l87.75 12.675 3.331-9.76c5.706-16.726 23.888-25.661 40.614-19.955 16.73 5.706 25.664 23.888 19.958 40.618l-11.718 34.355-0.166 0.506-0.224 0.643-82.915 243.094c-0.115 0.365-0.24 0.73-0.371 1.091l-11.728 34.388zM332.211 416.166l290.55 158.64 58.605-171.827-328.026-47.379c-11.738-1.693-22.634 5.184-26.211 15.677l-5.907 17.318c-3.541 10.384 0.838 22.029 10.989 27.571zM471.507 287.782l-6.294 19.312 85.658 12.371c0.285-1.718 0.717-3.44 1.296-5.142 4.032-11.821-2.262-25.072-14.95-29.296l-35.322-11.76c-12.797-4.259-26.23 2.618-30.387 14.515zM224 832c-53.019 0-96-42.98-96-96v-576c0-53.021 42.98-96 96-96h576c53.021 0 96 42.979 96 96v576c0 53.019-42.979 96-96 96h-576zM192 736c0 17.673 14.327 32 32 32h576c17.674 0 32-14.327 32-32v-576c0-17.674-14.326-32-32-32h-576c-17.673 0-32 14.326-32 32v576z" />
<glyph unicode="&#xe901;" glyph-name="ai-chef" data-tags="ai-chef" d="M512 896c-67.853 0-125.814-42.217-149.088-101.828-13.67 3.799-28.067 5.828-42.912 5.828-88.365 0-160-71.635-160-160 0-65.638 39.503-121.99 96-146.675v-221.325h64v244.032c0 14.602-9.884 27.35-24.024 30.992-41.412 10.656-71.976 48.288-71.976 92.976 0 53.019 42.981 96 96 96 17.786 0 34.355-4.808 48.579-13.174 9.344-5.498 20.838-5.888 30.538-1.038 9.696 4.851 16.278 14.282 17.485 25.058 5.366 47.899 46.054 85.154 95.398 85.154s90.032-37.256 95.398-85.154c1.206-10.776 7.789-20.207 17.485-25.058 9.699-4.851 21.194-4.46 30.538 1.037 14.224 8.367 30.794 13.174 48.579 13.174 53.021 0 96-42.981 96-96 0-44.688-30.563-82.32-71.978-92.976-14.138-3.642-24.022-16.39-24.022-30.992v-36.032h-96v56.445l28.621 57.245c7.904 15.808 1.498 35.027-14.31 42.931s-35.027 1.498-42.931-14.31l-32-64c-2.224-4.442-3.379-9.344-3.379-14.31v-64h-64v64c0 4.966-1.155 9.869-3.379 14.31l-32 64c-7.904 15.808-27.123 22.215-42.931 14.31s-22.214-27.123-14.31-42.931l28.621-57.245v-56.445h-96v-64h384v-96h96v-128h-32v128h-64v-224c0-17.674-14.326-32-32-32h-320c-17.674 0-32 14.326-32 32v176h-64v-80h-32v128h32v64h-32c-35.346 0-64-28.653-64-64v-128c0-35.347 28.654-64 64-64h32v-32c0-53.021 42.981-96 96-96h320c53.021 0 96 42.979 96 96v32h32c35.347 0 64 28.653 64 64v128c0 35.347-28.653 64-64 64h-32v109.325c56.496 24.685 96 81.037 96 146.675 0 88.365-71.635 160-160 160-14.845 0-29.242-2.029-42.912-5.828-23.274 59.611-81.235 101.828-149.088 101.828zM432 352c-26.509 0-48-21.491-48-48s21.491-48 48-48c26.509 0 48 21.491 48 48s-21.491 48-48 48zM592 352c-26.509 0-48-21.491-48-48s21.491-48 48-48c26.509 0 48 21.491 48 48s-21.491 48-48 48zM448 192c0 17.674-14.326 32-32 32s-32-14.326-32-32v-32c0-17.674 14.326-32 32-32h192c17.674 0 32 14.326 32 32v32c0 17.674-14.326 32-32 32s-32-14.326-32-32h-128z" />
<glyph unicode="&#xe902;" glyph-name="android" data-tags="android" d="M388.070 827.849c15.379 8.708 34.906 3.299 43.613-12.080l17.222-30.418c20.019 7.006 41.402 10.812 63.411 10.812 21.824 0 42.998-3.724 62.816-10.592l17.21 30.253c8.736 15.362 28.272 20.732 43.635 11.994s20.733-28.275 11.994-43.636l-16.63-29.236c43.869-34.303 72.659-87.075 72.659-146.942 0-17.674-14.326-32-32-32h-320c-17.674 0-32 14.326-32 32 0 59.601 28.89 112.273 72.758 146.617l-16.768 29.616c-8.707 15.379-3.299 34.905 12.080 43.613zM449.482 715.763c-29.405-16.383-51.846-43.699-60.992-75.76h247.101c-9.088 32.368-31.546 59.767-61.050 76.074-0.547 0.272-1.091 0.561-1.629 0.867l-0.406 0.235c-18.010 9.54-38.538 14.984-60.189 14.984-21.789 0-42.483-5.537-60.64-15.204l-0.618-0.359c-0.522-0.295-1.046-0.574-1.578-0.836zM320 512.003c0 17.67 14.326 32 32 32h320c17.674 0 32-14.33 32-32v-288c0-53.021-42.979-96-96-96v-96c0-17.674-14.326-32-32-32s-32 14.326-32 32v96h-64v-96c0-17.674-14.326-32-32-32s-32 14.326-32 32v96c-53.021 0-96 42.979-96 96v288zM608 192.003c17.674 0 32 14.326 32 32v256h-256v-256c0-17.674 14.326-32 32-32h192zM288 480.003c0 17.67-14.327 32-32 32s-32-14.33-32-32v-224c0-17.674 14.327-32 32-32s32 14.326 32 32v224zM800 480.003c0 17.67-14.326 32-32 32s-32-14.33-32-32v-224c0-17.674 14.326-32 32-32s32 14.326 32 32v224z" />
<glyph unicode="&#xe903;" glyph-name="archive" data-tags="archive" d="M384 512c-17.674 0-32-14.326-32-32v-128c0-17.674 14.326-32 32-32h256c17.674 0 32 14.326 32 32v128c0 17.674-14.326 32-32 32h-256zM416 384v64h192v-64h-192zM224 832c-53.019 0-96-42.981-96-96v-64c0-35.347 28.654-64 64-64v-448c0-53.021 42.981-96 96-96h448c53.021 0 96 42.979 96 96v448c35.347 0 64 28.653 64 64v64c0 53.019-42.979 96-96 96h-576zM288 128c-17.673 0-32 14.326-32 32v448h512v-448c0-17.674-14.326-32-32-32h-448zM224 768h576c17.674 0 32-14.327 32-32v-64h-640v64c0 17.673 14.327 32 32 32z" />
<glyph unicode="&#xe904;" glyph-name="arrow-down" data-tags="arrow-down" d="M544 800c0 17.673-14.326 32-32 32s-32-14.327-32-32v-620.608l-232.214 258.016c-11.823 13.136-32.056 14.202-45.192 2.378s-14.201-32.058-2.379-45.194l288-320c6.070-6.742 14.714-10.592 23.786-10.592s17.718 3.85 23.786 10.592l288 320c11.824 13.136 10.758 33.37-2.378 45.194s-33.37 10.758-45.194-2.378l-232.214-258.016v620.608z" />
<glyph unicode="&#xe905;" glyph-name="arrow-left" data-tags="arrow-left" d="M501.408 712.214c13.136 11.823 14.202 32.056 2.378 45.192s-32.058 14.201-45.194 2.379l-319.999-288c-6.743-6.070-10.593-14.714-10.593-23.786s3.85-17.718 10.593-23.786l319.999-288c13.136-11.824 33.37-10.758 45.194 2.378s10.758 33.37-2.378 45.194l-258.017 232.214h620.609c17.674 0 32 14.326 32 32s-14.326 32-32 32h-620.609l258.017 232.214z" />
<glyph unicode="&#xe906;" glyph-name="arrow-maximize" data-tags="arrow-maximize" d="M641.392 767.996l145.35 0.003-201.37-201.372c-12.496-12.496-12.496-32.758 0-45.254s32.758-12.496 45.254 0l201.373 201.372v-145.356c0-17.674 14.326-32 32-32s32 14.326 32 32v222.611c0 8.487-3.373 16.627-9.373 22.628s-14.141 9.372-22.627 9.372l-222.608-0.004c-17.674 0-32-14.327-32-32.001s14.326-32 32-31.999zM438.627 329.373c12.496 12.496 12.496 32.758 0 45.254s-32.758 12.496-45.254 0l-201.373-201.373v145.357c0 17.674-14.327 32-32 32s-32-14.326-32-32v-222.611c0-8.486 3.372-16.627 9.373-22.627s14.14-9.373 22.628-9.373l222.608 0.003c17.674 0 32 14.326 32 32s-14.326 32-32 32l-145.352-0.003 201.372 201.373z" />
<glyph unicode="&#xe907;" glyph-name="arrow-minimize" data-tags="arrow-minimize" d="M886.627 777.372c12.496 12.497 12.496 32.758 0 45.255s-32.758 12.497-45.254 0l-201.373-201.373v145.358c0 17.673-14.326 32-32 32s-32-14.327-32-32v-222.612c0-8.486 3.373-16.627 9.373-22.627 6-6.003 14.141-9.373 22.627-9.373l222.608 0.003c17.674 0 32 14.33 32 32 0 17.674-14.326 32-32 32l-145.35-0.003 201.37 201.372zM193.392 319.997l145.354 0.003-201.373-201.373c-12.497-12.496-12.497-32.758 0-45.254s32.758-12.496 45.255 0l201.372 201.373v-145.357c0-17.674 14.326-32 32-32s32 14.326 32 32v222.611c0 8.486-3.373 16.627-9.373 22.627s-14.141 9.373-22.627 9.373l-222.609-0.003c-17.673 0-32-14.326-32-32s14.327-32 32-32z" />
<glyph unicode="&#xe908;" glyph-name="arrow-recycle-buyback" data-tags="arrow-recycle-buyback" d="M598.026 845.607c-37.248 67.19-134.81 67.19-172.061 0l-83.45-150.834c-8.557-15.464-2.957-34.936 12.509-43.492 15.462-8.556 34.934-2.955 43.491 12.509l83.427 150.793c12.88 23.22 47.226 23.21 60.109-0.007l104.947-189.86-108.438 44.714c-16.339 6.737-35.043-1.046-41.782-17.385-6.736-16.34 1.046-35.044 17.386-41.783l193.638-79.846c8.95-3.69 19.088-3.13 27.578 1.52 8.486 4.653 14.416 12.896 16.122 22.426l36.368 203.158c3.114 17.396-8.464 34.024-25.859 37.138-17.398 3.114-34.026-8.464-37.139-25.86l-20.643-115.318-106.202 192.128zM217.615 468.55l-109.44-45.024c-16.344-6.723-35.044 1.075-41.768 17.421-6.724 16.342 1.075 35.043 17.419 41.766l193.311 79.526c8.938 3.677 19.059 3.117 27.538-1.523s14.405-12.864 16.125-22.374l36.698-202.835c3.146-17.392-8.403-34.042-25.792-37.187-17.392-3.146-34.040 8.403-37.187 25.792l-20.619 113.968-109.852-198.298c-11.417-20.65 3.161-47.782 30.038-47.782h186.003c17.674 0 32-14.326 32-32s-14.326-32-32-32h-186.003c-73.38 0-122.122 77.498-86.049 142.749l109.577 197.802zM783.766 443.779c15.466 8.547 34.938 2.941 43.485-12.528l88.714-160.496c36.070-65.248-12.669-142.749-86.048-142.749h-192.442l90.125-70.848c13.894-10.922 16.304-31.040 5.379-44.934-10.922-13.894-31.040-16.304-44.931-5.379l-162.192 127.501c-0.051 0.038-0.106 0.080-0.16 0.122-0.378 0.285-0.746 0.576-1.11 0.877l-0.362 0.285c-7.718 6.067-12.224 15.341-12.224 25.158 0 9.814 4.506 19.088 12.224 25.155l163.824 128.787c13.891 10.922 34.010 8.512 44.931-5.382 10.925-13.894 8.515-34.010-5.379-44.934l-92.106-72.406h194.422c26.877 0 41.456 27.133 30.038 47.786l-88.717 160.499c-8.547 15.469-2.941 34.938 12.528 43.488z" />
<glyph unicode="&#xe909;" glyph-name="arrow-redo" data-tags="arrow-redo" d="M726.627 822.628c-12.496 12.497-32.758 12.497-45.254 0s-12.496-32.758 0-45.255l105.373-105.372h-386.746c-150.221 0-272-121.779-272-272s121.779-272 272-272h304c17.674 0 32 14.326 32 32s-14.326 32-32 32h-304c-114.875 0-208 93.123-208 208s93.125 208 208 208h386.746l-105.373-105.373c-12.496-12.496-12.496-32.758 0-45.254s32.758-12.496 45.254 0l160 160c12.496 12.496 12.496 32.758 0 45.255l-160 160z" />
<glyph unicode="&#xe90a;" glyph-name="arrow-repeat" data-tags="arrow-repeat" d="M726.627 854.628c-12.496 12.497-32.758 12.497-45.254 0s-12.496-32.758 0-45.255l105.373-105.372h-562.746c-53.019 0-96-42.981-96-96v-96c0-17.674 14.327-32 32-32s32 14.326 32 32v96c0 17.674 14.327 32 32 32h562.746l-105.373-105.373c-12.496-12.496-12.496-32.758 0-45.254s32.758-12.496 45.254 0l160 160c12.496 12.497 12.496 32.758 0 45.255l-160 160zM342.627 361.373c12.496 12.496 12.496 32.758 0 45.254s-32.758 12.496-45.255 0l-160-160c-12.497-12.496-12.497-32.758 0-45.254l160-160c12.497-12.496 32.759-12.496 45.255 0s12.496 32.758 0 45.254l-105.372 105.373h562.745c53.021 0 96 42.979 96 96v96c0 17.674-14.326 32-32 32s-32-14.326-32-32v-96c0-17.674-14.326-32-32-32h-562.745l105.372 105.373z" />
<glyph unicode="&#xe90b;" glyph-name="arrow-right" data-tags="arrow-right" d="M565.408 759.785c-13.136 11.822-33.37 10.758-45.194-2.379s-10.758-33.37 2.378-45.192l258.016-232.214h-620.608c-17.673 0-32-14.326-32-32s14.327-32 32-32h620.608l-258.016-232.214c-13.136-11.824-14.202-32.058-2.378-45.194s32.058-14.202 45.194-2.378l320 288c6.742 6.067 10.592 14.714 10.592 23.786s-3.85 17.715-10.592 23.786l-320 288z" />
<glyph unicode="&#xe90c;" glyph-name="arrow-sort" data-tags="arrow-sort" d="M735.376 799.999c0 17.673-14.326 32-32 32.001s-32-14.326-32-31.999l-0.013-626.529-104.691 105.11c-12.47 12.522-32.733 12.563-45.254 0.090-12.522-12.47-12.563-32.733-0.090-45.254l159.36-160c5.987-6.013 14.122-9.402 22.608-9.418s16.634 3.338 22.646 9.328l160.64 160c12.522 12.47 12.563 32.733 0.090 45.254-12.47 12.522-32.733 12.563-45.254 0.090l-106.054-105.632 0.013 626.959zM343.312 822.582c-5.987 6.013-14.122 9.401-22.608 9.418s-16.633-3.338-22.646-9.327l-160.64-160c-12.522-12.472-12.562-32.733-0.091-45.255s32.733-12.563 45.255-0.090l106.056 105.633-0.013-626.961c0-17.674 14.326-32 31.999-32s32 14.326 32 32l0.013 626.527 104.691-105.11c12.47-12.522 32.733-12.563 45.254-0.090 12.522 12.47 12.563 32.732 0.090 45.254l-159.36 160z" />
<glyph unicode="&#xe90d;" glyph-name="arrow-sort-atoz" data-tags="arrow-sort-atoz" d="M735.68 800c0 17.673-14.326 32-32 32s-32-14.327-32-32v-626.643l-105.037 105.248c-12.486 12.509-32.746 12.528-45.254 0.045-12.512-12.483-12.531-32.746-0.048-45.254l159.68-160c5.997-6.006 14.131-9.386 22.621-9.395 8.486-0.010 16.627 3.354 22.637 9.35l160.32 160c12.509 12.483 12.528 32.746 0.045 45.254-12.486 12.509-32.746 12.528-45.254 0.045l-105.709-105.498v626.848zM143.992 384c0 17.674 14.327 32 32 32h224.001c12.221 0 23.376-6.963 28.746-17.939 5.37-10.979 4.016-24.061-3.488-33.706l-183.83-236.355h158.573c17.67 0 32-14.326 32-32s-14.33-32-32-32h-224.001c-12.222 0-23.376 6.963-28.746 17.939-5.37 10.979-4.017 24.061 3.487 33.706l183.83 236.355h-158.571c-17.673 0-32 14.326-32 32zM287.992 832c12.646 0 24.106-7.447 29.242-19.004l84.305-189.688c0.826-1.51 1.53-3.091 2.106-4.733l41.59-93.581c7.178-16.147-0.096-35.059-16.246-42.237s-35.059 0.096-42.24 16.246l-34.218 76.995h-129.076l-34.221-76.995c-7.178-16.15-26.088-23.424-42.238-16.246s-23.423 26.090-16.245 42.237l128 288.001c5.136 11.556 16.596 19.004 29.242 19.004zM251.9 640h72.187l-36.094 81.209-36.093-81.209z" />
<glyph unicode="&#xe90e;" glyph-name="arrow-sort-list-ascending" data-tags="arrow-sort-list-ascending" d="M727.312 822.582c-5.987 6.013-14.122 9.401-22.608 9.418s-16.634-3.338-22.646-9.327l-160.64-160c-12.522-12.472-12.563-32.733-0.090-45.255 12.47-12.522 32.733-12.563 45.254-0.090l106.054 105.633-0.013-626.961c0-17.674 14.326-32 32-32s32 14.326 32 32l0.013 626.527 104.691-105.11c12.47-12.522 32.733-12.563 45.254-0.090 12.522 12.47 12.563 32.732 0.090 45.254l-159.36 160zM160 544c-17.673 0-32-14.326-32-32s14.327-32 32-32h384c17.674 0 32 14.326 32 32s-14.326 32-32 32h-384zM160 416c-17.673 0-32-14.326-32-32s14.327-32 32-32h384c17.674 0 32 14.326 32 32s-14.326 32-32 32h-384zM128 256c0 17.674 14.327 32 32 32h160c17.674 0 32-14.326 32-32s-14.326-32-32-32h-160c-17.673 0-32 14.326-32 32z" />
<glyph unicode="&#xe90f;" glyph-name="arrow-sort-list-descending" data-tags="arrow-sort-list-descending" d="M735.376 799.999c0 17.673-14.326 32-32 32.001s-32-14.326-32-31.999l-0.013-626.529-104.691 105.11c-12.47 12.522-32.733 12.563-45.254 0.090-12.522-12.47-12.563-32.733-0.090-45.254l159.36-160c5.987-6.013 14.122-9.402 22.608-9.418s16.634 3.338 22.646 9.328l160.64 160c12.522 12.47 12.563 32.733 0.090 45.254-12.47 12.522-32.733 12.563-45.254 0.090l-106.054-105.632 0.013 626.959zM160 672c-17.673 0-32-14.327-32-32s14.327-32 32-32h384c17.674 0 32 14.326 32 32s-14.326 32-32 32h-384zM160 544c-17.673 0-32-14.326-32-32s14.327-32 32-32h384c17.674 0 32 14.326 32 32s-14.326 32-32 32h-384zM128 384c0 17.674 14.327 32 32 32h160c17.674 0 32-14.326 32-32s-14.326-32-32-32h-160c-17.673 0-32 14.326-32 32z" />
<glyph unicode="&#xe910;" glyph-name="arrow-sort-ztoa" data-tags="arrow-sort-ztoa" d="M735.68 800c0 17.673-14.326 32-32 32s-32-14.327-32-32v-626.643l-105.037 105.248c-12.486 12.509-32.746 12.528-45.254 0.045-12.512-12.483-12.531-32.746-0.048-45.254l159.68-160c5.997-6.006 14.131-9.386 22.621-9.395 8.486-0.010 16.627 3.354 22.637 9.35l160.32 160c12.509 12.483 12.528 32.746 0.045 45.254-12.486 12.509-32.746 12.528-45.254 0.045l-105.709-105.498v626.848zM143.992 800c0 17.673 14.327 32 32 32h224.001c12.221 0 23.376-6.962 28.746-17.941s4.016-24.058-3.488-33.705l-183.83-236.354h158.573c17.67 0 32-14.326 32-32s-14.33-32-32-32h-224.001c-12.222 0-23.376 6.963-28.746 17.939-5.37 10.979-4.017 24.061 3.487 33.706l183.83 236.355h-158.571c-17.673 0-32 14.327-32 32zM287.992 416c12.646 0 24.106-7.446 29.242-19.005l84.305-189.686c0.826-1.51 1.53-3.091 2.106-4.733l41.59-93.581c7.178-16.147-0.096-35.059-16.246-42.237s-35.059 0.096-42.24 16.246l-34.218 76.995h-129.076l-34.221-76.995c-7.178-16.15-26.088-23.424-42.238-16.246s-23.423 26.090-16.245 42.237l128 288c5.136 11.558 16.596 19.005 29.242 19.005zM251.9 224h72.187l-36.094 81.21-36.093-81.21z" />
<glyph unicode="&#xe911;" glyph-name="arrow-swap" data-tags="arrow-swap" d="M726.627 822.628c-12.496 12.497-32.758 12.497-45.254 0s-12.496-32.758 0-45.255l105.373-105.372h-626.746c-17.673 0-32-14.327-32-32s14.327-32 32-32h626.746l-105.373-105.373c-12.496-12.496-12.496-32.758 0-45.254s32.758-12.496 45.254 0l160 160c12.496 12.496 12.496 32.758 0 45.255l-160 160zM342.627 393.373c12.496 12.496 12.496 32.758 0 45.254s-32.758 12.496-45.255 0l-160-160c-12.497-12.496-12.497-32.758 0-45.254l160-160c12.497-12.496 32.759-12.496 45.255 0s12.496 32.758 0 45.254l-105.372 105.373h626.745c17.674 0 32 14.326 32 32s-14.326 32-32 32h-626.745l105.372 105.373z" />
<glyph unicode="&#xe912;" glyph-name="arrow-undo" data-tags="arrow-undo" d="M342.627 777.372c12.496 12.497 12.496 32.758 0 45.255s-32.758 12.497-45.255 0l-160-160c-12.497-12.497-12.497-32.759 0-45.255l160-160c12.497-12.496 32.759-12.496 45.255 0s12.496 32.758 0 45.254l-105.372 105.373h386.745c114.877 0 208-93.123 208-208s-93.123-208-208-208h-304c-17.673 0-32-14.326-32-32s14.327-32 32-32h304c150.221 0 272 121.779 272 272s-121.779 272-272 272h-386.745l105.372 105.372z" />
<glyph unicode="&#xe913;" glyph-name="arrow-up" data-tags="arrow-up" d="M535.786 821.407c-6.067 6.743-14.714 10.593-23.786 10.593s-17.715-3.85-23.786-10.593l-288-319.999c-11.822-13.136-10.758-33.37 2.379-45.194s33.37-10.758 45.192 2.378l232.214 258.017v-620.609c0-17.674 14.326-32 32-32s32 14.326 32 32v620.609l232.214-258.017c11.824-13.136 32.058-14.202 45.194-2.378s14.202 32.058 2.378 45.194l-288 319.999z" />
<glyph unicode="&#xe914;" glyph-name="attachment" data-tags="attachment" d="M230.999 729.001c51.999 51.999 136.306 51.999 188.306 0l373.696-373.695c51.997-52 51.997-136.307 0-188.307-52-51.997-136.307-51.997-188.307 0l-186.848 186.848c-26.198 26.202-26.198 68.682 0 94.883 26.202 26.198 68.682 26.198 94.883 0l182.838-182.842c12.499-12.496 32.758-12.496 45.258 0 12.496 12.496 12.496 32.758 0 45.254l-182.842 182.842c-51.194 51.194-134.198 51.194-185.392 0s-51.194-134.198 0-185.392l186.848-186.848c76.992-76.992 201.824-76.992 278.816 0s76.992 201.824 0 278.816l-373.696 373.696c-76.992 76.993-201.823 76.992-278.816 0s-76.993-201.824 0-278.816l23.356-23.357c12.497-12.496 32.758-12.496 45.255 0 12.497 12.499 12.497 32.758 0 45.258l-23.356 23.354c-51.999 52-51.999 136.307 0 188.306z" />
<glyph unicode="&#xe915;" glyph-name="automated-approval" data-tags="automated-approval" d="M726.419 553.373c12.493 12.496 12.493 32.758 0 45.254s-32.749 12.496-45.242 0l-233.299-233.373-105.338 105.373c-12.493 12.496-32.749 12.496-45.242 0s-12.493-32.758 0-45.254l127.958-128c12.493-12.496 32.749-12.496 45.242 0l255.92 256zM439.024 896c-31.421 0-58.192-22.825-63.171-53.86l-11.546-71.977c-24.192-10.28-47.018-23.013-68.131-37.878l-72.813 27.161c-29.22 10.9-62.548-0.531-78.72-27.393l-71.695-119.092c-16.484-27.379-10.077-62.56 15.398-82.166l59.816-46.032c-1.305-12.093-1.972-24.355-1.972-36.762s0.668-24.672 1.973-36.765l-59.816-46.032c-25.476-19.606-31.882-54.787-15.398-82.166l71.695-119.091c16.172-26.864 49.5-38.294 78.72-27.395l72.816 27.162c21.112-14.864 43.936-27.597 68.128-37.875l11.546-71.978c4.979-31.034 31.75-53.859 63.171-53.859h145.674c31.421 0 58.192 22.826 63.171 53.859l11.546 71.984c24.189 10.278 47.008 23.011 68.115 37.872l72.826-27.165c29.219-10.899 62.547 0.531 78.72 27.395l71.696 119.091c16.483 27.379 10.077 62.56-15.398 82.166l-59.83 46.045c1.302 12.086 1.971 24.349 1.971 36.752s-0.669 24.662-1.971 36.749l59.83 46.045c25.475 19.606 31.882 54.787 15.398 82.166l-71.696 119.092c-16.173 26.862-49.501 38.293-78.72 27.394l-72.822-27.164c-21.11 14.863-43.93 27.595-68.118 37.875l-11.546 71.984c-4.979 31.035-31.75 53.86-63.174 53.86h-145.67zM439.024 832h145.67l14.435-89.97c1.837-11.446 9.715-21.004 20.602-24.984 30.349-11.099 58.323-26.742 83.021-46.036 8.762-6.845 20.448-8.649 30.867-4.763l89.091 33.232c0.166 0.062 0.493 0.117 0.941-0.039 0.451-0.156 0.614-0.404 0.614-0.404l71.174-118.223-73.603-56.646c-9.357-7.2-13.987-18.966-12.051-30.614 2.464-14.819 3.747-30.032 3.747-45.552 0-15.523-1.283-30.736-3.747-45.555-1.939-11.648 2.694-23.414 12.048-30.614l73.606-56.646-71.174-118.224c0 0-0.163-0.246-0.614-0.403-0.448-0.157-0.774-0.102-0.941-0.038l-89.094 33.232c-10.416 3.885-22.106 2.083-30.867-4.762-24.698-19.293-52.669-34.938-83.018-46.035-10.886-3.981-18.765-13.539-20.602-24.982l-14.435-89.971h-145.67l-14.432 89.965c-1.837 11.446-9.718 21.005-20.602 24.982-30.352 11.101-58.33 26.742-83.030 46.038-8.763 6.845-20.45 8.646-30.867 4.762l-89.084-33.229c-0.166-0.064-0.492-0.118-0.943 0.038-0.449 0.157-0.613 0.403-0.613 0.403l-71.173 118.224 73.591 56.637c9.356 7.2 13.987 18.97 12.049 30.614-2.466 14.822-3.75 30.038-3.75 45.565 0 15.523 1.284 30.739 3.75 45.562 1.938 11.648-2.694 23.414-12.050 30.614l-73.591 56.637 71.173 118.223c0 0 0.164 0.248 0.613 0.404 0.451 0.156 0.777 0.101 0.943 0.039l89.081-33.229c10.417-3.886 22.104-2.083 30.867 4.763 24.701 19.296 52.678 34.94 83.034 46.038 10.883 3.98 18.765 13.538 20.602 24.985l14.432 89.964z" />
<glyph unicode="&#xe916;" glyph-name="bag" data-tags="bag" d="M363.405 691.58c9.277 44.517 48.512 76.42 93.984 76.42h109.251c45.472 0 84.707-31.903 93.981-76.42l17.414-83.58h120.154c58.48 0 105.392-50.72 96.835-109.568l-46.531-319.994c-6.973-47.958-48.826-82.438-96.835-82.438h-478.81c-47.96 0-89.783 34.406-96.818 82.304l-46.999 319.994c-8.65 58.893 38.283 109.702 96.818 109.702h120.145l17.411 83.58zM640.688 473.472l-14.694 70.528h-227.958l13.331 64h201.293l-14.691 70.526c-3.091 14.839-16.17 25.474-31.328 25.474h-109.251c-15.158 0-28.237-10.635-31.328-25.474l-42.72-205.054c-3.603-17.299-20.55-28.403-37.853-24.8-17.302 3.606-28.406 20.554-24.8 37.856l11.971 57.472h-106.81c-21.571 0-36.173-18.179-33.497-36.4l46.999-319.997c2.228-15.168 15.947-27.603 33.497-27.603h478.81c17.568 0 31.296 12.461 33.504 27.645l46.528 319.997c2.65 18.211-11.952 36.358-33.501 36.358h-106.822l11.974-57.472c3.606-17.302-7.498-34.25-24.8-37.856-17.302-3.603-34.25 7.501-37.853 24.8z" />
<glyph unicode="&#xe917;" glyph-name="bank" data-tags="bank" d="M464 688c0-26.51 21.491-48 48-48s48 21.49 48 48c0 26.51-21.491 48-48 48s-48-21.49-48-48zM520.419 830.872c-5.51 1.504-11.328 1.504-16.838 0l-352.001-96c-13.922-3.797-23.58-16.442-23.58-30.872v-128c0-17.674 14.327-32 32-32h32v-288h-32c-17.673 0-32-14.326-32-32v-128c0-17.674 14.327-32 32-32h704c17.674 0 32 14.326 32 32v128c0 17.674-14.326 32-32 32h-32v288h32c17.674 0 32 14.326 32 32v128c0 14.43-9.658 27.076-23.581 30.872l-352 96zM512 766.831l320-87.273v-71.558h-640v71.558l320 87.273zM256 256v288h128v-288h-128zM448 256v288h128v-288h-128zM640 256v288h128v-288h-128zM192 128v64h640v-64h-640z" />
<glyph unicode="&#xe918;" glyph-name="bank-add" data-tags="bank-add" d="M520.419 830.872c-5.51 1.504-11.328 1.504-16.838 0l-352.001-96c-13.922-3.797-23.58-16.442-23.58-30.872v-128c0-17.674 14.327-32 32-32h32v-288h-32c-17.673 0-32-14.326-32-32v-128c0-17.674 14.327-32 32-32h320c17.674 0 32 14.326 32 32s-14.326 32-32 32h-288v64h288c17.674 0 32 14.326 32 32s-14.326 32-32 32h-32v288h128v-64c0-17.674 14.326-32 32-32s32 14.326 32 32v64h128v-64c0-17.674 14.326-32 32-32s32 14.326 32 32v64h32c17.674 0 32 14.326 32 32v64h-64v-32h-544v-64h96v-288h-128v288h32v64h-96v71.558l320 87.273 320-87.273v-39.558h64v64c0 14.43-9.658 27.076-23.581 30.872l-352 96zM464 688c0-26.51 21.491-48 48-48s48 21.49 48 48c0 26.51-21.491 48-48 48s-48-21.49-48-48zM768 384c17.674 0 32-14.326 32-32v-128h128c17.674 0 32-14.326 32-32s-14.326-32-32-32h-128v-128c0-17.674-14.326-32-32-32s-32 14.326-32 32v128h-128c-17.674 0-32 14.326-32 32s14.326 32 32 32h128v128c0 17.674 14.326 32 32 32z" />
<glyph unicode="&#xe919;" glyph-name="bank-okey" data-tags="bank-okey" d="M520.419 830.872c-5.51 1.504-11.328 1.504-16.838 0l-352.001-96c-13.922-3.797-23.58-16.442-23.58-30.872v-128c0-17.674 14.327-32 32-32h32v-288h-32c-17.673 0-32-14.326-32-32v-128c0-17.674 14.327-32 32-32h320c17.674 0 32 14.326 32 32s-14.326 32-32 32h-288v64h288c17.674 0 32 14.326 32 32s-14.326 32-32 32h-32v288h128v-64c0-17.674 14.326-32 32-32s32 14.326 32 32v64h128v-64c0-17.674 14.326-32 32-32s32 14.326 32 32v64h32c17.674 0 32 14.326 32 32v64h-64v-32h-544v-64h96v-288h-128v288h32v64h-96v71.558l320 87.273 320-87.273v-39.558h64v64c0 14.43-9.658 27.076-23.581 30.872l-352 96zM464 688c0-26.51 21.491-48 48-48s48 21.49 48 48c0 26.51-21.491 48-48 48s-48-21.49-48-48zM957.184 301.133c7.251-16.118 0.067-35.062-16.051-42.314-29.904-13.459-67.354-43.61-105.818-83.571-37.882-39.357-74.448-85.808-102.816-128.858-5.702-8.653-15.245-14.010-25.606-14.371-10.358-0.362-20.25 4.317-26.544 12.557l-97.776 128c-10.73 14.042-8.042 34.125 6.003 44.854 14.045 10.726 34.128 8.038 44.854-6.006l71.123-93.107c25.421 34.845 54.554 70.042 84.65 101.312 40.179 41.747 84.461 79.011 125.667 97.552 16.115 7.254 35.059 0.067 42.314-16.048z" />
<glyph unicode="&#xe91a;" glyph-name="barcode" data-tags="barcode" d="M192 128c17.673 0 32 14.326 32 32s-14.327 32-32 32h-32c-17.673 0-32 14.326-32 32v32c0 17.674-14.327 32-32 32s-32-14.326-32-32v-32c0-53.021 42.981-96 96-96h32zM64 640c0-17.674 14.327-32 32-32s32 14.326 32 32v32c0 17.673 14.327 32 32 32h32c17.673 0 32 14.327 32 32s-14.327 32-32 32h-32c-53.019 0-96-42.981-96-96v-32zM832 768c-17.674 0-32-14.327-32-32s14.326-32 32-32h32c17.674 0 32-14.327 32-32v-32c0-17.674 14.326-32 32-32s32 14.326 32 32v32c0 53.019-42.979 96-96 96h-32zM960 256c0 17.674-14.326 32-32 32s-32-14.326-32-32v-32c0-17.674-14.326-32-32-32h-32c-17.674 0-32-14.326-32-32s14.326-32 32-32h32c53.021 0 96 42.979 96 96v32zM224 640c17.673 0 32-14.326 32-32v-320c0-17.674-14.327-32-32-32s-32 14.326-32 32v320c0 17.674 14.327 32 32 32zM512 608c0 17.674-14.326 32-32 32s-32-14.326-32-32v-320c0-17.674 14.326-32 32-32s32 14.326 32 32v320zM800 640c17.674 0 32-14.326 32-32v-320c0-17.674-14.326-32-32-32s-32 14.326-32 32v320c0 17.674 14.326 32 32 32zM608 608c0 17.674-14.326 32-32 32s-32-14.326-32-32v-320c0-17.674 14.326-32 32-32s32 14.326 32 32v320zM640 608c0 17.674 14.326 32 32 32h32c17.674 0 32-14.326 32-32v-320c0-17.674-14.326-32-32-32h-32c-17.674 0-32 14.326-32 32v320zM352 640c-17.674 0-32-14.326-32-32v-320c0-17.674 14.326-32 32-32h32c17.674 0 32 14.326 32 32v320c0 17.674-14.326 32-32 32h-32z" />
<glyph unicode="&#xe91b;" glyph-name="basket" data-tags="basket" d="M384 416c0 17.674-14.326 32-32 32s-32-14.326-32-32v-192c0-17.674 14.326-32 32-32s32 14.326 32 32v192zM544 416c0 17.674-14.326 32-32 32s-32-14.326-32-32v-192c0-17.674 14.326-32 32-32s32 14.326 32 32v192zM704 416c0 17.674-14.326 32-32 32s-32-14.326-32-32v-192c0-17.674 14.326-32 32-32s32 14.326 32 32v192zM476.826 785.695c7.901 15.809 1.491 35.029-14.32 42.93-15.808 7.9-35.027 1.49-42.928-14.319l-119.1-238.313h-108.484c-38.95 0-68.839-34.502-63.344-73.037l50.833-356.509c6.743-47.296 47.23-82.448 95.009-82.448h475.528c47.83 0 88.342 35.226 95.027 82.579l50.32 356.467c5.437 38.506-24.442 72.947-63.357 72.947h-108.144l-119.098 238.313c-7.901 15.809-27.12 22.22-42.931 14.319-15.808-7.901-22.218-27.121-14.317-42.93l104.8-209.702h-280.294l104.8 209.702zM242.841 155.482l-50.848 356.512h127.661c0.097 0 0.194-0.003 0.29-0.003 0.292-0.003 0.58-0.003 0.871 0.003h382.714c0.387-0.006 0.774-0.006 1.162 0l127.306-0.003-50.32-356.467c-2.23-15.798-15.741-27.523-31.658-27.523h-475.528c-15.9 0-29.4 11.702-31.65 27.482z" />
<glyph unicode="&#xe91c;" glyph-name="battery-charge" data-tags="battery-charge" d="M192 604.797c0 17.674 14.327 32 32 32h160c17.674 0 32 14.327 32 32s-14.326 32-32 32h-160c-53.019 0-96-42.98-96-96v-320c0-53.021 42.981-96 96-96h96c17.674 0 32 14.326 32 32s-14.326 32-32 32h-96c-17.673 0-32 14.326-32 32v320zM640 700.797c-17.674 0-32-14.327-32-32s14.326-32 32-32h96.205c17.67 0 32-14.326 32-32v-32c0-17.674 14.326-32 32-32h31.715c17.69 0 32.022-14.352 32-32.038l-0.16-127.68c-0.022-17.658-14.342-31.962-32-31.962h-31.555c-17.674 0-32-14.326-32-32v-32.32c0-17.674-14.33-32-32-32h-160.205c-17.674 0-32-14.326-32-32s14.326-32 32-32h160.205c53.018 0 96 42.979 96 96v0.32c52.768 0.24 95.491 43.056 95.555 95.882l0.16 127.68c0.067 52.97-42.781 95.965-95.715 96.118 0 53.020-42.982 96-96 96h-96.205zM538.627 619.376c9.802 14.704 5.827 34.571-8.877 44.374s-34.573 5.829-44.378-8.876l-128-192.004c-6.544-9.821-7.155-22.445-1.587-32.851 5.568-10.403 16.413-16.899 28.214-16.899h132.208l-94.832-142.25c-9.805-14.707-5.83-34.573 8.874-44.378 14.704-9.802 34.573-5.83 44.378 8.877l128 192c6.544 9.818 7.155 22.445 1.587 32.848-5.568 10.406-16.413 16.902-28.214 16.902h-132.208l94.835 142.256z" />
<glyph unicode="&#xe91d;" glyph-name="battery-empty" data-tags="battery-empty" d="M224 704c-53.019 0-96-42.981-96-96v-320c0-53.021 42.981-96 96-96h512c53.021 0 96 42.979 96 96v0.32c52.861 0.131 95.693 42.989 95.76 95.878l0.16 127.68c0.067 53.040-42.89 96.077-95.92 96.122 0 53.019-42.979 96-96 96h-512zM192 608c0 17.674 14.327 32 32 32h512c17.674 0 32-14.326 32-32v-32c0-17.674 14.326-32 32-32h31.92c17.69 0 32.022-14.352 32-32.042l-0.16-127.68c-0.022-17.654-14.342-31.958-32-31.958h-31.76c-17.674 0-32-14.326-32-32v-32.32c0-17.674-14.326-32-32-32h-512c-17.673 0-32 14.326-32 32v320z" />
<glyph unicode="&#xe91e;" glyph-name="battery-full" data-tags="battery-full" d="M288 573.437c-17.673 0-32-14.326-32-32v-192c0-17.674 14.327-32 32-32h384c17.674 0 32 14.326 32 32v192c0 17.674-14.326 32-32 32h-384zM128 605.437c0 53.020 42.981 96.001 96 96.001h512c53.021 0 96-42.98 96-96.001 53.030-0.042 95.987-43.078 95.92-96.118l-0.16-127.68c-0.067-52.893-42.899-95.75-95.76-95.882v-0.32c0-53.018-42.979-96-96-96h-512c-53.019 0-96 42.982-96 96v320zM224 637.437c-17.673 0-32-14.326-32-32v-320c0-17.674 14.327-32 32-32h512c17.674 0 32 14.326 32 32v32.32c0 17.674 14.326 32 32 32h31.76c17.658 0 31.978 14.304 32 31.962l0.16 127.68c0.022 17.686-14.31 32.038-32 32.038h-31.92c-17.674 0-32 14.326-32 32v32c0 17.674-14.326 32-32 32h-512z" />
<glyph unicode="&#xe91f;" glyph-name="battery-half" data-tags="battery-half" d="M288 574.077c-17.673 0-32-14.326-32-32v-192c0-17.67 14.327-32 32-32h256c17.674 0 32 14.33 32 32v192c0 17.674-14.326 32-32 32h-256zM128 606.077c0 53.021 42.981 96.001 96 96.001h512c53.021 0 96-42.98 96-96.001 53.030-0.042 95.987-43.078 95.92-96.118l-0.16-127.68c-0.067-52.893-42.899-95.75-95.76-95.878v-0.323c0-53.018-42.979-96-96-96h-512c-53.019 0-96 42.982-96 96v320zM224 638.077c-17.673 0-32-14.326-32-32v-320c0-17.67 14.327-32 32-32h512c17.674 0 32 14.33 32 32v32.32c0 17.674 14.326 32 32 32h31.76c17.658 0 31.978 14.304 32 31.962l0.16 127.68c0.022 17.69-14.31 32.038-32 32.038h-31.92c-17.674 0-32 14.33-32 32v32c0 17.674-14.326 32-32 32h-512z" />
<glyph unicode="&#xe920;" glyph-name="battery-low" data-tags="battery-low" d="M288 574.72c-17.673 0-32-14.33-32-32v-192c0-17.674 14.327-32 32-32h128c17.674 0 32 14.326 32 32v192c0 17.67-14.326 32-32 32h-128zM128 606.72c0 53.018 42.981 95.999 96 95.999h512c53.021 0 96-42.98 96-95.999 53.030-0.045 95.987-43.082 95.92-96.122l-0.16-127.68c-0.067-52.893-42.899-95.75-95.76-95.878v-0.32c0-53.021-42.979-96-96-96h-512c-53.019 0-96 42.979-96 96v320zM224 638.72c-17.673 0-32-14.33-32-32v-320c0-17.674 14.327-32 32-32h512c17.674 0 32 14.326 32 32v32.32c0 17.67 14.326 32 32 32h31.76c17.658 0 31.978 14.301 32 31.958l0.16 127.68c0.022 17.69-14.31 32.042-32 32.042h-31.92c-17.674 0-32 14.326-32 32v32c0 17.67-14.326 32-32 32h-512z" />
<glyph unicode="&#xe921;" glyph-name="battery-very-low" data-tags="battery-very-low" d="M288 575.36c-17.673 0-32-14.326-32-32v-192c0-17.674 14.327-32 32-32h32c17.674 0 32 14.326 32 32v192c0 17.674-14.326 32-32 32h-32zM128 607.36c0 53.019 42.981 95.999 96 95.999h512c53.021 0 96-42.981 96-95.999 53.030-0.045 95.987-43.082 95.92-96.122l-0.16-127.68c-0.067-52.893-42.899-95.75-95.76-95.878v-0.32c0-53.021-42.979-96-96-96h-512c-53.019 0-96 42.979-96 96v320zM224 639.36c-17.673 0-32-14.326-32-32v-320c0-17.674 14.327-32 32-32h512c17.674 0 32 14.326 32 32v32.32c0 17.674 14.326 32 32 32h31.76c17.658 0 31.978 14.301 32 31.958l0.16 127.68c0.022 17.69-14.31 32.042-32 32.042h-31.92c-17.674 0-32 14.326-32 32v32c0 17.674-14.326 32-32 32h-512z" />
<glyph unicode="&#xe922;" glyph-name="bed" data-tags="bed" d="M224 800v-32h576v32c0 17.673 14.326 32 32 32s32-14.327 32-32v-280.445c19.638-17.578 32-43.123 32-71.555v-352c0-17.674-14.326-32-32-32s-32 14.326-32 32v96h-640v-96c0-17.674-14.327-32-32-32s-32 14.326-32 32v352c0 28.432 12.36 53.978 32 71.555v280.445c0 17.673 14.327 32 32 32s32-14.327 32-32zM352 640h32c53.021 0 96-42.979 96-96h64c0 53.021 42.979 96 96 96h32c53.021 0 96-42.979 96-96h32v160h-576v-160h32c0 53.021 42.981 96 96 96zM352 576c-17.674 0-32-14.326-32-32h96c0 17.674-14.326 32-32 32h-32zM224 480c-17.673 0-32-14.326-32-32v-192h640v192c0 17.674-14.326 32-32 32h-576zM640 576c-17.674 0-32-14.326-32-32h96c0 17.674-14.326 32-32 32h-32z" />
<glyph unicode="&#xe923;" glyph-name="binoculars" data-tags="binoculars" d="M640 832c-17.674 0-32-14.327-32-32v-64c-8.486 0-16.627-3.371-22.627-9.372s-9.373-14.14-9.373-22.628v-32h-128v32c0 17.673-14.326 31.999-32 32v64c0 17.673-14.326 32-32 32h-79.999c-15.643 0-28.993-11.309-31.564-26.739l-11.543-69.261h-4.893c-16.039 0-29.6-11.873-31.719-27.771l-60.297-452.229h-3.984c-17.673 0-32-14.326-32-32v-128c0-17.674 14.327-32 32-32h288c17.674 0 32 14.326 32 32v128c0 17.674-14.326 32-32 32v128h128v-128c-8.486 0-16.627-3.373-22.627-9.373s-9.373-14.141-9.373-22.627v-128c0-17.674 14.326-32 32-32h288c17.674 0 32 14.326 32 32v128c0 17.674-14.326 32-32 32h-3.984l-60.298 452.228c-2.118 15.898-15.68 27.771-31.718 27.771h-4.893l-11.542 69.262c-2.573 15.43-15.923 26.739-31.565 26.739h-80zM352 736h-26.224l5.334 32h20.89v-96h32v-64h256v64h32v96h20.893l5.331-32.001h-26.224v-64h67.984l55.466-415.996-155.45-0.003v-64l192 0.003v-64.003h-224v64h32v416h-64v-160h-128v160h-64v-416h32v-64h-224v64h192v64h-155.45l55.467 416h67.983v64z" />
<glyph unicode="&#xe924;" glyph-name="book" data-tags="book" d="M64 256v-96c0-17.674 14.327-32 32-32h32v567.217c30.503 2.168 58.575 7.162 84.78 12.843 15.174 3.289 28.883 6.586 41.982 9.737 18.752 4.509 36.258 8.72 55.038 12.181 54.242 9.996 105.973 10.732 170.2-22.724v-404.44c-64.442 21.13-115.846 19.766-168.747 11.834-16.964-2.544-33.555-5.619-50.512-8.758-38.417-7.117-81.921-15.424-132.741-17.888v-64c58.002 2.646 108.221 12.17 148.352 19.613 15.765 2.925 30.507 5.658 44.393 7.741 50.442 7.565 96.090 8.336 159.254-16.56v-42.794h-352v-64h768v64h-352v42.794c63.168 24.896 108.813 24.125 159.254 16.56 13.891-2.083 28.621-4.816 44.394-7.741 40.131-7.443 90.352-16.966 148.352-19.613v64.042c-50.819 2.464-94.326 10.73-132.742 17.846-16.957 3.139-33.546 6.214-50.512 8.758-52.896 7.933-104.304 9.296-168.746-11.834v404.439c64.227 33.453 115.962 32.72 170.202 22.726 18.781-3.461 36.294-7.672 55.053-12.183 13.094-3.149 26.797-6.444 41.965-9.732 26.205-5.681 54.278-10.675 84.781-12.844v-567.219h32c17.674 0 32 14.326 32 32v566.069c0 17.673-14.326 32-32 32-36.813 0-70.339 5.413-103.219 12.541-11.987 2.598-24.662 5.628-37.555 8.709-20.57 4.915-41.696 9.964-61.427 13.6-65.094 11.994-132.762 12.749-213.798-30.185-81.037 42.938-148.707 42.18-213.8 30.183-19.726-3.636-40.84-8.682-61.405-13.596-12.9-3.083-25.584-6.115-37.574-8.714-32.879-7.128-66.405-12.54-103.218-12.537-8.487 0.001-16.627-3.371-22.629-9.372s-9.373-14.141-9.373-22.628v-470.069z" />
<glyph unicode="&#xe925;" glyph-name="bookmark" data-tags="bookmark" d="M288 896c-53.019 0-96-42.981-96-96v-768c0-12.259 7.003-23.44 18.031-28.79s24.145-3.933 33.773 3.654l208.785 164.496c34.848 27.459 83.974 27.459 118.822 0l208.784-164.496c9.629-7.587 22.746-9.005 33.773-3.654 11.030 5.35 18.032 16.531 18.032 28.79v768c0 53.019-42.979 96-96 96h-448zM256 800c0 17.673 14.327 32 32 32h448c17.674 0 32-14.327 32-32v-702.048l-156.979 123.68c-58.083 45.763-139.958 45.763-198.042 0l-156.979-123.68v702.048z" />
<glyph unicode="&#xe926;" glyph-name="bookmark-filled" data-tags="bookmark-filled" d="M192 800c0 53.019 42.981 96 96 96h448c53.021 0 96-42.981 96-96v-768c0-12.259-7.002-23.44-18.032-28.79-11.027-5.35-24.144-3.933-33.773 3.654l-80.982 63.808c-0.157 0.118-0.307 0.237-0.461 0.358l-80.771 63.642c-0.154 0.118-0.307 0.237-0.458 0.358l-46.112 36.33c-34.848 27.459-83.974 27.459-118.822 0l-46.112-36.33c-0.15-0.122-0.304-0.24-0.458-0.358l-80.774-63.642c-0.15-0.122-0.301-0.24-0.454-0.358l-80.987-63.808c-9.628-7.587-22.745-9.005-33.773-3.654s-18.031 16.531-18.031 28.79v768z" />
<glyph unicode="&#xe927;" glyph-name="bookmark-list-add" data-tags="bookmark-list-add" d="M192 800c0 53.019 42.981 96 96 96h448c53.021 0 96-42.981 96-96v-320c0-17.674-14.326-32-32-32s-32 14.326-32 32v320c0 17.673-14.326 32-32 32h-448c-17.673 0-32-14.327-32-32v-702.048l156.979 123.68c17.862 14.074 38.013 23.837 59.034 29.254 17.114 4.413 34.563-5.885 38.973-22.998 4.413-17.114-5.885-34.563-22.998-38.976-12.582-3.245-24.65-9.082-35.398-17.552l-208.785-164.496c-9.628-7.587-22.745-9.005-33.773-3.654s-18.031 16.531-18.031 28.79v768zM768 384c17.674 0 32-14.326 32-32v-128h128c17.674 0 32-14.326 32-32s-14.326-32-32-32h-128v-128c0-17.674-14.326-32-32-32s-32 14.326-32 32v128h-128c-17.674 0-32 14.326-32 32s14.326 32 32 32h128v128c0 17.674 14.326 32 32 32z" />
<glyph unicode="&#xe928;" glyph-name="brand" data-tags="brand" d="M64 731.788c0 90.692 73.521 164.212 164.213 164.212h176.606c43.552 0 85.322-17.301 116.118-48.097l410.326-410.329c38.314-38.314 38.314-100.432 0-138.742l-270.096-270.096c-38.31-38.314-100.429-38.314-138.742 0l-2.835 2.835c-12.496 12.496-12.496 32.758 0 45.254s32.758 12.496 45.254 0l2.835-2.835c13.318-13.322 34.915-13.322 48.234 0l270.096 270.096c13.322 13.318 13.322 34.915 0 48.234l-410.33 410.328c-18.79 18.794-44.282 29.352-70.861 29.352h-176.606c-55.346 0-100.213-44.867-100.213-100.212v-184.629c0-21.443 8.518-42.006 23.681-57.168 12.497-12.499 12.497-32.758 0-45.254-12.497-12.499-32.758-12.499-45.255 0-27.164 27.165-42.426 64.006-42.426 102.422v184.629zM160 704c0 53.019 42.981 96 96 96s96-42.981 96-96c0-53.019-42.981-96-96-96s-96 42.981-96 96zM256 736c-17.673 0-32-14.327-32-32s14.327-32 32-32c17.673 0 32 14.327 32 32s-14.327 32-32 32zM381.51 476.87c-14.627 43.674-76.4 43.674-91.029 0l-26.634-79.51h-85.452c-46.83 0-65.941-60.198-27.686-87.21l67.883-47.933-25.998-77.866c-14.677-43.962 35.303-81.136 73.184-54.435l70.219 49.494 70.218-49.494c37.882-26.701 87.862 10.474 73.184 54.435l-25.997 77.866 67.882 47.933c38.256 27.011 19.142 87.21-27.686 87.21h-85.453l-26.634 79.51zM317.219 355.197l18.778 56.054 18.778-56.054c4.368-13.046 16.586-21.837 30.342-21.837h58.080l-46.138-32.579c-11.533-8.144-16.368-22.883-11.894-36.275l18.096-54.205-48.829 34.419c-11.056 7.792-25.818 7.792-36.872 0l-48.829-34.419 18.099 54.205c4.471 13.392-0.362 28.131-11.895 36.275l-46.139 32.579h58.081c13.756 0 25.974 8.79 30.343 21.837z" />
<glyph unicode="&#xe929;" glyph-name="bug" data-tags="bug" d="M478.358 842.118c-5.59 16.766-23.712 25.827-40.477 20.239-16.768-5.589-25.827-23.711-20.24-40.477l20.317-60.945c-50.042-17.394-85.958-64.97-85.958-120.934v-64h64v64c0 35.345 28.653 63.999 64 63.999h64c35.347 0 64-28.654 64-63.999v-64h-160v-64h32v-176c0-17.674 14.326-32 32-32s32 14.326 32 32v176h128v-224c0-88.365-71.635-160-160-160s-160 71.635-160 160v224h96v64h-128c-17.673 0-32-14.326-32-32-53.019 0-96 42.979-96 96v31.999c0 17.673-14.327 32-32 32s-32-14.327-32-32v-31.999c0-88.368 71.635-160 160-160v-32h-128c-17.673 0-32-14.326-32-32s14.327-32 32-32h128v-32c-88.365 0-160-71.635-160-160 0-17.674 14.327-32 32-32s32 14.326 32 32c0 53.018 42.981 96 96 96 0-123.712 100.288-224 224-224s224 100.288 224 224c53.021 0 96-42.982 96-96 0-17.674 14.326-32 32-32s32 14.326 32 32c0 88.365-71.635 160-160 160v32h128c17.674 0 32 14.326 32 32s-14.326 32-32 32h-128v32c88.365 0 160 71.632 160 160v31.999c0 17.673-14.326 32-32 32s-32-14.327-32-32v-31.999c0-53.021-42.979-96-96-96 0 17.674-14.326 32-32 32h-32v64c0 55.964-35.917 103.54-85.958 120.934l20.317 60.946c5.587 16.766-3.472 34.888-20.24 40.477-16.765 5.588-34.886-3.473-40.477-20.239l-24.707-74.119h-17.869l-24.707 74.119z" />
<glyph unicode="&#xe92a;" glyph-name="building" data-tags="building" d="M356.157 671.36c0 17.673-14.326 32-32 32s-32.001-14.327-32.001-32v-64c0-17.674 14.327-32 32.001-32s32 14.326 32 32v64zM548.157 671.36c0 17.673-14.326 32-32 32s-32-14.327-32-32v-64c0-17.674 14.326-32 32-32s32 14.326 32 32v64zM356.157 479.36c0 17.674-14.326 32-32 32s-32.001-14.326-32.001-32v-64c0-17.674 14.327-32 32.001-32s32 14.326 32 32v64zM548.157 479.36c0 17.674-14.326 32-32 32s-32-14.326-32-32v-64c0-17.674 14.326-32 32-32s32 14.326 32 32v64zM356.157 287.36c0 17.674-14.326 32-32 32s-32.001-14.326-32.001-32v-64c0-17.674 14.327-32 32.001-32s32 14.326 32 32v64zM548.157 287.36c0 17.674-14.326 32-32 32s-32-14.326-32-32v-64c0-17.674 14.326-32 32-32s32 14.326 32 32v64zM608 832h-384c-53.019 0-96-42.98-96-96v-640c0-17.674 14.327-32 32-32h704c17.674 0 32 14.326 32 32v383.36c0 53.021-42.979 96-96 96h-96v160.64c0 53.019-42.979 96-96 96zM192 736c0 17.673 14.327 32 32 32h384c17.674 0 32-14.327 32-32v-608h-448v608zM800 511.36c17.674 0 32-14.326 32-32v-351.36h-128v383.36h96z" />
<glyph unicode="&#xe92b;" glyph-name="bus" data-tags="bus" d="M352 320c-17.6 0-32-14.4-32-32s14.4-32 32-32c17.6 0 32 14.4 32 32s-14.4 32-32 32zM672 320c-17.6 0-32-14.4-32-32s14.4-32 32-32c17.6 0 32 14.4 32 32s-14.4 32-32 32zM352 832c-88.365 0-160-71.635-160-160v-480c0-17.674 14.327-32 32-32h64v-64c0-17.674 14.327-32 32-32s32 14.326 32 32v64h320v-64c0-17.674 14.326-32 32-32s32 14.326 32 32v64h64c17.674 0 32 14.326 32 32v480c0 88.365-71.635 160-160 160h-320zM256 672c0 53.019 42.981 96 96 96h320c53.021 0 96-42.981 96-96h-512zM256 608h512v-160h-512v160zM256 384h512v-160h-512v160zM160 608c0 17.674-14.327 32-32 32s-32-14.326-32-32v-96c0-17.674 14.327-32 32-32s32 14.326 32 32v96zM928 608c0 17.674-14.326 32-32 32s-32-14.326-32-32v-96c0-17.674 14.326-32 32-32s32 14.326 32 32v96z" />
<glyph unicode="&#xe92c;" glyph-name="bus-chair-jumbo" data-tags="bus-chair-jumbo" d="M768 384h32c53.021 0 96-42.979 96-96v-64c0-53.021-42.979-96-96-96h-32v-32c0-17.674-14.326-32-32-32h-576c-17.673 0-32 14.326-32 32v352c0 17.674 14.327 32 32 32h9.31l-68.561 208.412c-16.245 49.38 10.325 101.147 58.22 119.538l44.975 17.269c51.554 19.796 111.3-5.214 130.369-57.842l104.128-287.377h233.558c53.021 0 96-42.979 96-96zM274.142 745.574c-6.218 17.162-27.341 27.545-47.255 19.898l-44.975-17.269c-17.698-6.796-25.396-24.504-20.367-39.792l75.14-228.411h133.687l-96.229 265.574zM214.068 415.997c-0.428-0.006-0.856-0.006-1.282 0.003h-20.786v-288h512v256c0 17.674-14.326 32-32 32h-255.261c-0.493-0.013-0.982-0.013-1.472 0l-201.199-0.003zM832 288c0 17.674-14.326 32-32 32h-32v-128h32c17.674 0 32 14.326 32 32v64z" />
<glyph unicode="&#xe92d;" glyph-name="bus-chair-ontop" data-tags="bus-chair-ontop" d="M288 832c-88.365 0-160-71.635-160-160v-448c0-88.365 71.635-160 160-160 28.432 0 53.978 12.362 71.555 32h296.445c26.173 0 49.411 12.57 64.006 32h111.994c53.021 0 96 42.979 96 96v448c0 53.019-42.979 96-96 96h-111.994c-14.595 19.431-37.834 32-64.006 32h-296.445c-17.578 19.64-43.123 32-71.555 32zM192 672c0 53.019 42.981 96 96 96 17.673 0 32-14.327 32-32v-576c0-17.674-14.327-32-32-32-53.019 0-96 42.979-96 96v448zM672 720c0-8.836-7.165-16-16-16h-272v32h272c8.835 0 16-7.164 16-16zM656 640c38.704 0 70.989 27.484 78.4 64h97.6c17.674 0 32-14.327 32-32v-448c0-17.674-14.326-32-32-32h-97.6c-7.411 36.515-39.696 64-78.4 64h-272v384h272zM656 192c8.835 0 16-7.165 16-16s-7.165-16-16-16h-272v32h272z" />
<glyph unicode="&#xe92e;" glyph-name="bus-chair-standart" data-tags="bus-chair-standart" d="M329.069 830.783c-18.438 52.217-76.405 78.991-127.956 58.134l-44.038-17.817c-47.413-19.183-71.774-71.814-56.567-120.472l91.492-292.746v-361.882c0-17.674 14.327-32 32-32h160c17.674 0 32 14.326 32 32s-14.326 32-32 32h-128v125.946c14.539-37.005 50.168-61.946 90.48-61.946l453.52 0.010v-64.010h-121.28c-17.674 0-32-14.326-32-32s14.326-32 32-32h153.28c17.674 0 32 14.326 32 32v121.366c19.696 18 32 43.994 32 72.707v66.070c0 53.821-43.229 98.074-97.325 98.074h-313.245c-13.856 0-26.515 8.822-31.344 22.506l-125.018 354.060zM225.117 829.589c17.226 6.969 37.126-1.772 43.603-20.115l125.018-354.060c13.738-38.912 50.333-65.197 91.693-65.197h313.245c18.061 0 33.325-14.909 33.325-34.074v-66.070c0-19.165-15.264-34.074-33.325-34.074h-452.195c-14.294 0-27.268 9.389-31.742 23.702l-153.144 490.017c-5.407 17.3 3.398 35.544 19.484 42.053l44.038 17.817z" />
<glyph unicode="&#xe92f;" glyph-name="business-bag" data-tags="business-bag" d="M608 832c53.021 0 96-42.981 96-96v-32h96c53.021 0 96-42.981 96-96v-384c0-53.021-42.979-96-96-96h-576c-53.020 0-96 42.979-96 96v384c0 53.019 42.981 96 96 96h96v32c0 53.019 42.979 96 96 96h192zM384 736v-32h256v32c0 17.673-14.326 32-32 32h-192c-17.674 0-32-14.327-32-32zM480 320c-53.021 0-96 42.979-96 96v32h-192v-224c0-17.674 14.327-32 32-32h576c17.674 0 32 14.326 32 32v224h-192v-32c0-53.021-42.979-96-96-96h-64zM800 640h-576c-17.673 0-32-14.326-32-32v-96h640v96c0 17.674-14.326 32-32 32zM480 384h64c17.674 0 32 14.326 32 32v32h-128v-32c0-17.674 14.326-32 32-32z" />
<glyph unicode="&#xe930;" glyph-name="calculator-accounting" data-tags="calculator-accounting" d="M352 768c-17.674 0-32-14.327-32-32v-128c0-17.674 14.326-32 32-32h320c17.674 0 32 14.326 32 32v128c0 17.673-14.326 32-32 32h-320zM384 640v64h256v-64h-256zM656 128c-26.509 0-48 21.491-48 48s21.491 48 48 48c26.509 0 48-21.491 48-48s-21.491-48-48-48zM656 272c-26.509 0-48 21.491-48 48s21.491 48 48 48c26.509 0 48-21.491 48-48s-21.491-48-48-48zM656 416c-26.509 0-48 21.491-48 48s21.491 48 48 48c26.509 0 48-21.491 48-48s-21.491-48-48-48zM416 464c0-26.509-21.491-48-48-48s-48 21.491-48 48c0 26.509 21.491 48 48 48s48-21.491 48-48zM512 416c26.509 0 48 21.491 48 48s-21.491 48-48 48c-26.509 0-48-21.491-48-48s21.491-48 48-48zM416 176c0-26.509-21.491-48-48-48s-48 21.491-48 48c0 26.509 21.491 48 48 48s48-21.491 48-48zM560 176c0-26.509-21.491-48-48-48s-48 21.491-48 48c0 26.509 21.491 48 48 48s48-21.491 48-48zM368 272c26.509 0 48 21.491 48 48s-21.491 48-48 48c-26.509 0-48-21.491-48-48s21.491-48 48-48zM512 272c26.509 0 48 21.491 48 48s-21.491 48-48 48c-26.509 0-48-21.491-48-48s21.491-48 48-48zM288 896c-53.019 0-96-42.981-96-96v-704c0-53.021 42.981-96 96-96h448c53.021 0 96 42.979 96 96v704c0 53.019-42.979 96-96 96h-448zM256 800c0 17.673 14.327 32 32 32h448c17.674 0 32-14.327 32-32v-704c0-17.674-14.326-32-32-32h-448c-17.673 0-32 14.326-32 32v704z" />
<glyph unicode="&#xe931;" glyph-name="calendar" data-tags="calendar" d="M384 864c0 17.673-14.326 32-32 32s-32-14.327-32-32v-32h-96c-53.019 0-96-42.98-96-96v-576c0-53.021 42.98-96 96-96h576c53.021 0 96 42.979 96 96v576c0 53.019-42.979 96-96 96h-96v32c0 17.673-14.326 32-32 32s-32-14.327-32-32v-32h-256v32zM192 736c0 17.673 14.327 32 32 32h96v-32c0-17.673 14.326-32 32-32s32 14.327 32 32v32h256v-32c0-17.673 14.326-32 32-32s32 14.327 32 32v32h96c17.674 0 32-14.327 32-32v-96h-640v96zM224 128c-17.673 0-32 14.326-32 32v416h640v-416c0-17.674-14.326-32-32-32h-576z" />
<glyph unicode="&#xe932;" glyph-name="calendar-clock" data-tags="calendar-clock" d="M384 864c0 17.673-14.326 32-32 32s-32-14.327-32-32v-32h-96c-53.019 0-96-42.981-96-96v-576c0-53.021 42.981-96 96-96h256c17.674 0 32 14.326 32 32s-14.326 32-32 32h-256c-17.673 0-32 14.326-32 32v416h640v-96c0-17.674 14.326-32 32-32s32 14.326 32 32v256c0 53.019-42.979 96-96 96h-96v32c0 17.673-14.326 32-32 32s-32-14.327-32-32v-32h-256v32zM192 736c0 17.673 14.327 32 32 32h96v-32c0-17.673 14.326-32 32-32s32 14.327 32 32v32h256v-32c0-17.673 14.326-32 32-32s32 14.327 32 32v32h96c17.674 0 32-14.327 32-32v-96h-640v96zM608 416c-17.674 0-32-14.326-32-32s14.326-32 32-32v-32c0-41.062 3.862-72.045 18.026-97.539 6.653-11.974 15.091-21.792 24.605-30.461-9.514-8.669-17.952-18.486-24.605-30.461-14.163-25.494-18.026-56.477-18.026-97.539v-32c-17.674 0-32-14.326-32-32s14.326-32 32-32h320c17.674 0 32 14.326 32 32s-14.326 32-32 32v32c0 41.062-3.862 72.045-18.026 97.539-6.653 11.974-15.091 21.792-24.605 30.461 9.514 8.669 17.952 18.486 24.605 30.461 14.163 25.494 18.026 56.477 18.026 97.539v32c17.674 0 32 14.326 32 32s-14.326 32-32 32h-320zM681.974 253.539c-5.837 10.506-9.974 27.523-9.974 66.461v32h192v-32c0-38.938-4.138-55.955-9.974-66.461-5.773-10.394-15.366-18.64-39.776-34.912-8.902-5.936-14.25-15.926-14.25-26.627s5.347-20.691 14.25-26.627c24.41-16.272 34.003-24.518 39.776-34.912 5.837-10.506 9.974-27.523 9.974-66.461v-32h-192v32c0 38.938 4.138 55.955 9.974 66.461 5.773 10.394 15.366 18.64 39.776 34.912 8.902 5.936 14.25 15.926 14.25 26.627s-5.347 20.691-14.25 26.627c-24.41 16.272-34.003 24.518-39.776 34.912z" />
<glyph unicode="&#xe933;" glyph-name="calendar-today" data-tags="calendar-today" d="M352 896c17.674 0 32-14.327 32-32v-32h256v32c0 17.673 14.326 32 32 32s32-14.327 32-32v-32h96c53.021 0 96-42.981 96-96v-576c0-53.021-42.979-96-96-96h-576c-53.020 0-96 42.979-96 96v576c0 53.019 42.981 96 96 96h96v32c0 17.673 14.326 32 32 32zM320 768h-96c-17.673 0-32-14.327-32-32v-96h640v96c0 17.673-14.326 32-32 32h-96v-32c0-17.673-14.326-32-32-32s-32 14.327-32 32v32h-256v-32c0-17.673-14.326-32-32-32s-32 14.327-32 32v32zM832 576h-640v-416c0-17.674 14.327-32 32-32h576c17.674 0 32 14.326 32 32v416zM256 480c0 17.674 14.327 32 32 32h128c17.674 0 32-14.326 32-32v-128c0-17.674-14.326-32-32-32h-128c-17.673 0-32 14.326-32 32v128zM320 448v-64h64v64h-64z" />
<glyph unicode="&#xe934;" glyph-name="calendar-today-clock" data-tags="calendar-today-clock" d="M384 864c0 17.673-14.326 32-32 32s-32-14.327-32-32v-32h-96c-53.019 0-96-42.981-96-96v-576c0-53.021 42.981-96 96-96h256c17.674 0 32 14.326 32 32s-14.326 32-32 32h-256c-17.673 0-32 14.326-32 32v416h640v-96c0-17.674 14.326-32 32-32s32 14.326 32 32v256c0 53.019-42.979 96-96 96h-96v32c0 17.673-14.326 32-32 32s-32-14.327-32-32v-32h-256v32zM192 736c0 17.673 14.327 32 32 32h96v-32c0-17.673 14.326-32 32-32s32 14.327 32 32v32h256v-32c0-17.673 14.326-32 32-32s32 14.327 32 32v32h96c17.674 0 32-14.327 32-32v-96h-640v96zM288 512c-17.673 0-32-14.326-32-32v-128c0-17.674 14.327-32 32-32h128c17.674 0 32 14.326 32 32v128c0 17.674-14.326 32-32 32h-128zM320 384v64h64v-64h-64zM608 416c-17.674 0-32-14.326-32-32s14.326-32 32-32v-32c0-41.062 3.862-72.045 18.026-97.539 6.653-11.974 15.091-21.792 24.605-30.461-9.514-8.669-17.952-18.486-24.605-30.461-14.163-25.494-18.026-56.477-18.026-97.539v-32c-17.674 0-32-14.326-32-32s14.326-32 32-32h320c17.674 0 32 14.326 32 32s-14.326 32-32 32v32c0 41.062-3.862 72.045-18.026 97.539-6.653 11.974-15.091 21.792-24.605 30.461 9.514 8.669 17.952 18.486 24.605 30.461 14.163 25.494 18.026 56.477 18.026 97.539v32c17.674 0 32 14.326 32 32s-14.326 32-32 32h-320zM681.974 253.539c-5.837 10.506-9.974 27.523-9.974 66.461v32h192v-32c0-38.938-4.138-55.955-9.974-66.461-5.773-10.394-15.366-18.64-39.776-34.912-8.902-5.936-14.25-15.926-14.25-26.627s5.347-20.691 14.25-26.627c24.41-16.272 34.003-24.518 39.776-34.912 5.837-10.506 9.974-27.523 9.974-66.461v-32h-192v32c0 38.938 4.138 55.955 9.974 66.461 5.773 10.394 15.366 18.64 39.776 34.912 8.902 5.936 14.25 15.926 14.25 26.627s-5.347 20.691-14.25 26.627c-24.41 16.272-34.003 24.518-39.776 34.912z" />
<glyph unicode="&#xe935;" glyph-name="camera" data-tags="camera" d="M512 640c-106.038 0-192-85.962-192-192s85.962-192 192-192c106.038 0 192 85.962 192 192s-85.962 192-192 192zM384 448c0 70.691 57.306 128 128 128 70.691 0 128-57.309 128-128s-57.309-128-128-128c-70.694 0-128 57.309-128 128zM418.147 832c-32.102 0-62.083-16.048-79.885-42.763l-25.979-38.983c-5.935-8.905-15.928-14.254-26.629-14.254h-125.373c-52.997 0-95.969-42.946-96-95.944l-0.244-415.999c-0.031-53.043 42.959-96.058 96-96.058h703.963c53.018 0 96 42.979 96 96v416c0 53.019-42.982 96-96 96h-125.974c-10.701 0-20.694 5.349-26.63 14.254l-25.978 38.983c-17.805 26.715-47.782 42.763-79.888 42.763h-187.382zM391.52 753.746c5.933 8.905 15.926 14.254 26.627 14.254h187.382c10.704 0 20.694-5.349 26.63-14.254l25.978-38.983c17.805-26.715 47.782-42.763 79.888-42.763h125.974c17.674 0 32-14.327 32-32v-416c0-17.674-14.326-32-32-32h-703.963c-17.68 0-32.010 14.339-32 32.019l0.244 416c0.011 17.666 14.334 31.981 32 31.981h125.373c32.104 0 62.083 16.048 79.885 42.763l25.981 38.983z" />
<glyph unicode="&#xe936;" glyph-name="cancel-x-error" data-tags="cancel-x-error" d="M310.628 694.628c-12.497 12.497-32.758 12.497-45.255 0s-12.497-32.758 0-45.255l201.373-201.372-201.373-201.373c-12.497-12.496-12.497-32.758 0-45.254s32.758-12.496 45.255 0l201.372 201.373 201.373-201.373c12.496-12.496 32.758-12.496 45.254 0s12.496 32.758 0 45.254l-201.373 201.373 201.373 201.372c12.496 12.497 12.496 32.758 0 45.255s-32.758 12.497-45.254 0l-201.373-201.373-201.372 201.373z" />
<glyph unicode="&#xe937;" glyph-name="car" data-tags="car" d="M685.101 726.263c-115.046 12.983-231.155 12.983-346.202 0l-64.799-7.312c-13.556-1.53-25.055-11.89-27.881-26.24l-20.406-103.623 62.595-21.194c3.226-1.091 6.594-1.645 9.978-1.645h427.227c3.386 0 6.752 0.554 9.978 1.645l62.595 21.194-20.403 103.623c-2.829 14.35-14.326 24.71-27.882 26.24l-64.8 7.312zM822.541 529.763l-66.426-22.486c-9.827-3.328-20.128-5.027-30.502-5.027h-427.227c-10.374 0-20.674 1.699-30.5 5.027l-66.427 22.486-37.993-77.171c-2.272-4.614-3.466-9.731-3.466-14.938v-147.155c0-18.694 14.793-32.998 32-32.998h640c17.206 0 32 14.304 32 32.998v147.155c0 5.206-1.194 10.323-3.466 14.938l-37.994 77.171zM672 193.501h-320v-65.501c0-17.674-14.326-32-32-32h-128c-17.673 0-32 14.326-32 32v71.005c-37.489 13.37-64 49.562-64 91.494v147.155c0 14.979 3.432 29.766 10.047 43.203l34.532 70.144h-44.579c-17.673 0-32 14.326-32 32 0 17.67 14.327 32 32 32h69.687l17.738 90.075c8.106 41.163 41.654 72.748 83.498 77.47l64.798 7.312c119.818 13.521 240.739 13.521 360.557 0l64.797-7.312c41.846-4.722 75.395-36.307 83.501-77.47l17.738-90.075h69.686c17.674 0 32-14.33 32-32 0-17.674-14.326-32-32-32h-44.579l34.531-70.144c6.614-13.437 10.048-28.224 10.048-43.203v-147.155c0-41.933-26.512-78.125-64-91.494v-71.005c0-17.674-14.326-32-32-32h-128c-17.674 0-32 14.326-32 32v65.501zM800 193.501h-64v-33.501h64v33.501zM224 193.501v-33.501h64v33.501h-64zM224.984 428.374c4.349 17.13 21.761 27.491 38.891 23.142l64-16.25c17.13-4.352 27.491-21.763 23.139-38.893-4.349-17.13-21.76-27.488-38.89-23.139l-64 16.25c-17.13 4.349-27.49 21.76-23.14 38.89zM799.018 428.349c4.352-17.13-6.010-34.541-23.139-38.89l-64.003-16.25c-17.13-4.349-34.541 6.010-38.89 23.139-4.352 17.13 6.010 34.544 23.139 38.893l64.003 16.25c17.13 4.349 34.541-6.013 38.89-23.142zM416 420c17.674 0 32-14.326 32-32v-21.712l64-10.832 64 10.832v21.712c0 17.674 14.326 32 32 32s32-14.326 32-32v-48.749c0-15.613-11.267-28.947-26.659-31.552l-96-16.25c-3.536-0.598-7.146-0.598-10.682 0l-96 16.25c-15.392 2.605-26.659 15.939-26.659 31.552v48.749c0 17.674 14.326 32 32 32z" />
<glyph unicode="&#xe938;" glyph-name="card" data-tags="card" d="M64 672c0 53.019 42.981 96 96 96h704c53.021 0 96-42.981 96-96v-448c0-53.021-42.979-96-96-96h-704c-53.019 0-96 42.979-96 96v448zM160 704c-17.673 0-32-14.327-32-32v-448c0-17.674 14.327-32 32-32h704c17.674 0 32 14.326 32 32v448c0 17.673-14.326 32-32 32h-704zM752 556.224c-8.493-7.603-19.706-12.224-32-12.224-26.509 0-48 21.491-48 48s21.491 48 48 48c12.294 0 23.507-4.621 32-12.224 8.493 7.603 19.706 12.224 32 12.224 26.509 0 48-21.491 48-48s-21.491-48-48-48c-12.294 0-23.507 4.621-32 12.224zM192 480c0 17.674 14.327 32 32 32h384c17.674 0 32-14.326 32-32s-14.326-32-32-32h-384c-17.673 0-32 14.326-32 32zM192 384c0 17.674 14.327 32 32 32h128c17.674 0 32-14.326 32-32s-14.326-32-32-32h-128c-17.673 0-32 14.326-32 32zM192 288c0 17.674 14.327 32 32 32h256c17.674 0 32-14.326 32-32s-14.326-32-32-32h-256c-17.673 0-32 14.326-32 32z" />
<glyph unicode="&#xe939;" glyph-name="card-installment-3" data-tags="card-installment-3" d="M64 672c0 53.019 42.981 96 96 96h704c53.021 0 96-42.981 96-96v-192c0-17.674-14.326-32-32-32s-32 14.326-32 32v192c0 17.673-14.326 32-32 32h-704c-17.673 0-32-14.327-32-32v-448c0-17.674 14.327-32 32-32h314.269c17.674 0 32-14.326 32-32s-14.326-32-32-32h-314.269c-53.019 0-96 42.979-96 96v448zM752 556.224c-8.493-7.603-19.706-12.224-32-12.224-26.509 0-48 21.491-48 48s21.491 48 48 48c12.294 0 23.507-4.621 32-12.224 8.493 7.603 19.706 12.224 32 12.224 26.509 0 48-21.491 48-48s-21.491-48-48-48c-12.294 0-23.507 4.621-32 12.224zM192 480c0 17.674 14.327 32 32 32h384c17.674 0 32-14.326 32-32s-14.326-32-32-32h-384c-17.673 0-32 14.326-32 32zM192 384c0 17.674 14.327 32 32 32h128c17.674 0 32-14.326 32-32s-14.326-32-32-32h-128c-17.673 0-32 14.326-32 32zM192 288c0 17.674 14.327 32 32 32h256c17.674 0 32-14.326 32-32s-14.326-32-32-32h-256c-17.673 0-32 14.326-32 32zM841.597 256c-14.138 0-25.6-11.462-25.6-25.6 0-17.674-14.326-32-32-32s-32 14.326-32 32c0 49.485 40.115 89.6 89.6 89.6h48.33c56.374 0 102.074-45.699 102.074-102.074 0-28.947-12.099-55.264-31.686-73.926 19.587-18.662 31.686-44.979 31.686-73.926 0-56.374-45.699-102.074-102.074-102.074h-48.33c-49.485 0-89.6 40.115-89.6 89.6 0 17.674 14.326 32 32 32s32-14.326 32-32c0-14.138 11.462-25.6 25.6-25.6h48.33c21.027 0 38.074 17.046 38.074 38.074 0 19.77-15.126 36.25-34.822 37.936-44.051 3.776-44.051 68.205 0 71.981 19.696 1.686 34.822 18.166 34.822 37.936 0 21.027-17.046 38.074-38.074 38.074h-48.33zM558.25 218.627c14.704 9.802 34.573 5.827 44.378-8.877l37.373-56.061 37.373 56.061c9.805 14.704 29.674 18.678 44.378 8.877 14.704-9.805 18.678-29.674 8.877-44.378l-52.166-78.25 52.166-78.25c9.802-14.704 5.827-34.573-8.877-44.378-14.704-9.802-34.573-5.827-44.378 8.877l-37.373 56.061-37.373-56.061c-9.805-14.704-29.674-18.678-44.378-8.877-14.704 9.805-18.678 29.674-8.877 44.378l52.166 78.25-52.166 78.25c-9.802 14.704-5.827 34.573 8.877 44.378z" />
<glyph unicode="&#xe93a;" glyph-name="card-installment-6" data-tags="card-installment-6" d="M64 672c0 53.019 42.981 96 96 96h704c53.021 0 96-42.981 96-96v-192c0-17.674-14.326-32-32-32s-32 14.326-32 32v192c0 17.673-14.326 32-32 32h-704c-17.673 0-32-14.327-32-32v-448c0-17.674 14.327-32 32-32h314.269c17.674 0 32-14.326 32-32s-14.326-32-32-32h-314.269c-53.019 0-96 42.979-96 96v448zM752 556.224c-8.493-7.603-19.706-12.224-32-12.224-26.509 0-48 21.491-48 48s21.491 48 48 48c12.294 0 23.507-4.621 32-12.224 8.493 7.603 19.706 12.224 32 12.224 26.509 0 48-21.491 48-48s-21.491-48-48-48c-12.294 0-23.507 4.621-32 12.224zM192 480c0 17.674 14.327 32 32 32h384c17.674 0 32-14.326 32-32s-14.326-32-32-32h-384c-17.673 0-32 14.326-32 32zM192 384c0 17.674 14.327 32 32 32h128c17.674 0 32-14.326 32-32s-14.326-32-32-32h-128c-17.673 0-32 14.326-32 32zM192 288c0 17.674 14.327 32 32 32h256c17.674 0 32-14.326 32-32s-14.326-32-32-32h-256c-17.673 0-32 14.326-32 32zM880 256c-35.347 0-64-28.653-64-64h64c61.856 0 112-50.144 112-112s-50.144-112-112-112h-32c-53.021 0-96 42.979-96 96v128c0 70.691 57.309 128 128 128h64c17.674 0 32-14.326 32-32s-14.326-32-32-32h-64zM816 128v-64c0-17.674 14.326-32 32-32h32c26.509 0 48 21.491 48 48s-21.491 48-48 48h-64zM558.25 218.627c14.704 9.802 34.573 5.827 44.378-8.877l37.373-56.061 37.373 56.061c9.805 14.704 29.674 18.678 44.378 8.877 14.704-9.805 18.678-29.674 8.877-44.378l-52.166-78.25 52.166-78.25c9.802-14.704 5.827-34.573-8.877-44.378-14.704-9.802-34.573-5.827-44.378 8.877l-37.373 56.061-37.373-56.061c-9.805-14.704-29.674-18.678-44.378-8.877-14.704 9.805-18.678 29.674-8.877 44.378l52.166 78.25-52.166 78.25c-9.802 14.704-5.827 34.573 8.877 44.378z" />
<glyph unicode="&#xe93b;" glyph-name="card-no-fees" data-tags="card-no-fees" d="M64 672c0 53.019 42.981 96 96 96h704c53.021 0 96-42.981 96-96v-192c0-17.674-14.326-32-32-32s-32 14.326-32 32v192c0 17.673-14.326 32-32 32h-704c-17.673 0-32-14.327-32-32v-448c0-17.674 14.327-32 32-32h314.269c17.674 0 32-14.326 32-32s-14.326-32-32-32h-314.269c-53.019 0-96 42.979-96 96v448zM752 556.224c-8.493-7.603-19.706-12.224-32-12.224-26.509 0-48 21.491-48 48s21.491 48 48 48c12.294 0 23.507-4.621 32-12.224 8.493 7.603 19.706 12.224 32 12.224 26.509 0 48-21.491 48-48s-21.491-48-48-48c-12.294 0-23.507 4.621-32 12.224zM192 480c0 17.674 14.327 32 32 32h384c17.674 0 32-14.326 32-32s-14.326-32-32-32h-384c-17.673 0-32 14.326-32 32zM192 384c0 17.674 14.327 32 32 32h128c17.674 0 32-14.326 32-32s-14.326-32-32-32h-128c-17.673 0-32 14.326-32 32zM192 288c0 17.674 14.327 32 32 32h256c17.674 0 32-14.326 32-32s-14.326-32-32-32h-256c-17.673 0-32 14.326-32 32zM864 320h32c53.021 0 96-42.979 96-96v-160c0-53.021-42.979-96-96-96h-32c-53.021 0-96 42.982-96 96v160c0 53.021 42.979 96 96 96zM896 256h-32c-17.674 0-32-14.326-32-32v-160c0-17.674 14.326-32 32-32h32c17.674 0 32 14.326 32 32v160c0 17.674-14.326 32-32 32zM721.283 218.653c14.72-9.779 18.726-29.642 8.944-44.362l-127.574-192c-9.779-14.72-29.642-18.723-44.362-8.944s-18.723 29.642-8.944 44.362l127.574 192c9.782 14.72 29.642 18.726 44.362 8.944zM544 192c0 17.674 14.326 32 32 32h0.426c17.674 0 32-14.326 32-32s-14.326-32-32-32h-0.426c-17.674 0-32 14.326-32 32zM671.574 0c0 17.674 14.326 32 32 32h0.426c17.674 0 32-14.326 32-32s-14.326-32-32-32h-0.426c-17.674 0-32 14.326-32 32z" />
<glyph unicode="&#xe93c;" glyph-name="card-postponed" data-tags="card-postponed" d="M64 672c0 53.019 42.981 96 96 96h704c53.021 0 96-42.981 96-96v-192c0-17.674-14.326-32-32-32s-32 14.326-32 32v192c0 17.673-14.326 32-32 32h-704c-17.673 0-32-14.327-32-32v-448c0-17.674 14.327-32 32-32h314.269c17.674 0 32-14.326 32-32s-14.326-32-32-32h-314.269c-53.019 0-96 42.979-96 96v448zM752 556.224c-8.493-7.603-19.706-12.224-32-12.224-26.509 0-48 21.491-48 48s21.491 48 48 48c12.294 0 23.507-4.621 32-12.224 8.493 7.603 19.706 12.224 32 12.224 26.509 0 48-21.491 48-48s-21.491-48-48-48c-12.294 0-23.507 4.621-32 12.224zM192 480c0 17.674 14.327 32 32 32h384c17.674 0 32-14.326 32-32s-14.326-32-32-32h-384c-17.673 0-32 14.326-32 32zM891.626 415.699c17.507 2.416 33.661-9.814 36.077-27.322l7.766-56.237c1.875-13.59-5.12-26.864-17.389-32.998l-45.258-22.627c-15.808-7.901-35.030-1.494-42.931 14.314-7.741 15.482-1.754 34.237 13.344 42.429-60.506 32.253-137.37 22.88-188.371-28.122-62.486-62.483-62.486-163.792 0-226.278 62.483-62.483 163.792-62.483 226.278 0 12.496 12.496 32.758 12.496 45.254 0s12.496-32.758 0-45.254c-87.478-87.478-229.309-87.478-316.787 0s-87.478 229.309 0 316.787c69.219 69.222 172.474 83.67 255.901 43.341 3.635 11.363 13.507 20.227 26.115 21.968zM192 384c0 17.674 14.327 32 32 32h128c17.674 0 32-14.326 32-32s-14.326-32-32-32h-128c-17.673 0-32 14.326-32 32zM192 288c0 17.674 14.327 32 32 32h256c17.674 0 32-14.326 32-32s-14.326-32-32-32h-256c-17.673 0-32 14.326-32 32zM690.95 273.155c13.578 11.315 33.757 9.478 45.069-4.099l46.97-56.368h64.211c17.674 0 32-14.326 32-32 0-17.67-14.326-32-32-32h-79.2c-9.498 0-18.506 4.221-24.582 11.517l-56.566 67.882c-11.312 13.578-9.478 33.757 4.099 45.069zM960.003 224c17.674 0 32-14.326 32-32 0-26.125-4.486-51.267-12.755-74.662-5.888-16.666-24.17-25.398-40.835-19.507-16.662 5.888-25.395 24.17-19.504 40.832 5.882 16.643 9.094 34.579 9.094 53.338 0 17.674 14.326 32 32 32z" />
<glyph unicode="&#xe93d;" glyph-name="caret-down" data-tags="caret-down" d="M893.562 620.253c4.957-11.958 2.221-25.725-6.934-34.88l-352-352c-12.49-12.493-32.742-12.499-45.242-0.013l-351.999 351.61c-9.157 9.146-11.903 22.909-6.956 34.87 4.946 11.958 16.61 19.763 29.553 19.77l704.001 0.39c12.944 0.007 24.621-7.786 29.578-19.747zM237.274 575.651l274.714-274.41 274.717 274.717-549.43-0.307z" />
<glyph unicode="&#xe93e;" glyph-name="caret-down-filled" data-tags="caret-down-filled" d="M893.562 620.253c4.957-11.958 2.221-25.725-6.934-34.88l-352-352c-12.49-12.493-32.742-12.499-45.242-0.013l-351.999 351.61c-9.157 9.146-11.903 22.909-6.956 34.87 4.946 11.958 16.61 19.763 29.553 19.77l704.001 0.39c12.944 0.007 24.621-7.786 29.578-19.747z" />
<glyph unicode="&#xe93f;" glyph-name="caret-left" data-tags="caret-left" d="M683.84 829.57c11.958-4.946 19.763-16.61 19.77-29.553l0.39-704.001c0.006-12.944-7.786-24.621-19.747-29.578-11.958-4.957-25.725-2.221-34.88 6.934l-352 352c-12.492 12.49-12.497 32.742-0.012 45.242l351.61 351.999c9.146 9.157 22.909 11.903 34.87 6.956zM365.242 448.013l274.717-274.717-0.307 549.43-274.41-274.714z" />
<glyph unicode="&#xe940;" glyph-name="caret-left-filled" data-tags="caret-left-filled" d="M683.84 829.57c11.958-4.946 19.763-16.61 19.77-29.553l0.39-704.001c0.006-12.944-7.786-24.621-19.747-29.578-11.958-4.957-25.725-2.221-34.88 6.934l-352 352c-12.492 12.49-12.497 32.742-0.012 45.242l351.61 351.999c9.146 9.157 22.909 11.903 34.87 6.956z" />
<glyph unicode="&#xe941;" glyph-name="caret-right" data-tags="caret-right" d="M339.747 829.56c11.958 4.958 25.725 2.221 34.88-6.933l352-351.999c12.493-12.493 12.499-32.746 0.013-45.242l-351.61-352c-9.146-9.158-22.909-11.904-34.87-6.957-11.958 4.947-19.763 16.611-19.77 29.552l-0.39 704.001c-0.007 12.946 7.786 24.621 19.747 29.578zM384.042 722.701l0.307-549.431 274.41 274.717-274.717 274.714z" />
<glyph unicode="&#xe942;" glyph-name="caret-right-filled" data-tags="caret-right-filled" d="M339.747 829.56c11.958 4.958 25.725 2.221 34.88-6.933l352-351.999c12.493-12.493 12.499-32.746 0.013-45.242l-351.61-352c-9.146-9.158-22.909-11.904-34.87-6.957-11.958 4.947-19.763 16.611-19.77 29.552l-0.39 704.001c-0.007 12.946 7.786 24.621 19.747 29.578z" />
<glyph unicode="&#xe943;" glyph-name="caret-up" data-tags="caret-up" d="M489.373 662.628c12.493 12.492 32.746 12.497 45.242 0.012l352-351.61c9.158-9.146 11.904-22.909 6.957-34.87-4.947-11.958-16.611-19.763-29.552-19.77l-704.001-0.39c-12.946-0.006-24.621 7.786-29.578 19.747-4.958 11.958-2.221 25.725 6.933 34.88l351.999 352zM512.013 594.758l-274.714-274.717 549.431 0.307-274.717 274.41z" />
<glyph unicode="&#xe944;" glyph-name="caret-up-filled" data-tags="caret-up-filled" d="M489.373 662.628c12.493 12.492 32.746 12.497 45.242 0.012l352-351.61c9.158-9.146 11.904-22.909 6.957-34.87-4.947-11.958-16.611-19.763-29.552-19.77l-704.001-0.39c-12.946-0.006-24.621 7.786-29.578 19.747-4.958 11.958-2.221 25.725 6.933 34.88l351.999 352z" />
<glyph unicode="&#xe945;" glyph-name="cart" data-tags="cart" d="M160 832c-17.673 0-32-14.327-32-32s14.327-32 32-32h23.425c15.278 0 28.425-10.8 31.391-25.787l80.918-408.853c8.899-44.96 48.339-77.36 94.172-77.36h378.093c17.674 0 32 14.326 32 32s-14.326 32-32 32h-378.093c-15.277 0-28.422 10.8-31.389 25.786l-7.565 38.214h399.075c43.306 0 81.146 28.97 92.566 70.55l49.302 126.291c0.493 1.264 0.906 2.557 1.235 3.875 15.149 60.59-30.678 119.283-93.133 119.283h-512.379l-10.022 50.638c-8.899 44.962-48.34 77.362-94.173 77.362h-23.425zM781.075 472.24c-3.562-14.246-16.362-24.24-31.046-24.24h-411.741l-38.001 192h499.713c20.25 0 35.254-18.509 31.414-38.106l-49.104-125.779c-0.493-1.264-0.906-2.56-1.235-3.875zM480 128c0-35.347-28.653-64-64-64s-64 28.653-64 64c0 35.347 28.653 64 64 64s64-28.653 64-64zM800 128c0-35.347-28.653-64-64-64s-64 28.653-64 64c0 35.347 28.653 64 64 64s64-28.653 64-64z" />
<glyph unicode="&#xe946;" glyph-name="catalogue" data-tags="catalogue" d="M253.285 557.11c-17.384-4.24-35.799-8.733-54.931-12.608-17.321-3.51-34.208 7.683-37.718 25.005s7.686 34.208 25.007 37.718c17.855 3.619 35.131 7.83 52.759 12.131l3.119 0.762c18.479 4.502 37.443 9.078 56.58 12.666 38.569 7.234 79.276 10.768 123.919 2.214 17.357-3.325 28.733-20.090 25.408-37.45-3.325-17.357-20.093-28.733-37.45-25.408-33.933 6.502-65.939 4.144-100.081-2.259-17.219-3.229-34.611-7.408-53.22-11.946l-3.391-0.826zM253.287 429.11c-17.385-4.24-35.8-8.733-54.933-12.608-17.321-3.51-34.208 7.683-37.718 25.005s7.686 34.208 25.007 37.718c17.855 3.619 35.131 7.83 52.759 12.131l3.119 0.762c18.479 4.502 37.443 9.078 56.58 12.666 38.569 7.235 79.276 10.768 123.919 2.214 17.357-3.325 28.733-20.090 25.408-37.45-3.325-17.357-20.093-28.733-37.45-25.408-33.933 6.502-65.939 4.144-100.081-2.259-17.219-3.229-34.611-7.408-53.22-11.946l-3.389-0.826zM253.287 290.445c-17.385-4.24-35.8-8.733-54.933-12.611-17.321-3.51-34.208 7.686-37.718 25.008s7.686 34.208 25.007 37.718c17.855 3.616 35.13 7.83 52.757 12.128l3.121 0.762c18.479 4.506 37.443 9.078 56.58 12.669 38.569 7.232 79.276 10.765 123.919 2.214 17.357-3.325 28.733-20.093 25.408-37.45s-20.093-28.733-37.45-25.408c-33.933 6.499-65.939 4.141-100.081-2.259-17.219-3.232-34.611-7.408-53.22-11.946l-3.389-0.826zM714.106 281.882c-34.147 6.403-66.154 8.762-100.086 2.262-17.36-3.325-34.125 8.051-37.45 25.408s8.051 34.125 25.408 37.45c44.646 8.55 85.354 5.018 123.923-2.218 19.136-3.587 38.102-8.163 56.582-12.666l3.117-0.762c17.629-4.298 34.906-8.512 52.762-12.131 17.322-3.507 28.518-20.394 25.008-37.715s-20.397-28.518-37.715-25.008c-19.136 3.875-37.552 8.368-54.941 12.608l-3.386 0.829c-18.611 4.534-36.003 8.714-53.222 11.942zM785.6 619.357l-3.12 0.762c-18.48 4.502-37.443 9.078-56.579 12.666-38.57 7.234-79.277 10.767-123.923 2.218-17.274-3.309-28.624-19.933-25.456-37.2-0.342-1.882-0.525-3.818-0.525-5.798v-144c0-0.73 0.026-1.453 0.074-2.17-0.192-2.707-0.035-5.488 0.499-8.282 3.325-17.357 20.090-28.733 37.45-25.408 33.933 6.499 65.939 4.141 100.083-2.262 17.222-3.229 34.614-7.408 53.226-11.942l3.389-0.829c17.386-4.24 35.802-8.733 54.934-12.608 17.322-3.51 34.208 7.686 37.718 25.008 0.502 2.483 0.704 4.957 0.627 7.386v158.003c0.048 1.542-0.016 3.072-0.186 4.576-1.606 14.89-13.424 26.717-28.307 28.336-16.848 3.485-33.216 7.478-49.904 11.546zM725.901 472.784c-27.347 5.13-55.766 8.397-85.904 6.819v95.885c24.634 1.667 48.781-0.858 74.106-5.606 17.222-3.229 34.614-7.408 53.226-11.942l3.386-0.829c9.472-2.307 19.254-4.694 29.283-7.014v-94.234c-4.784 1.152-9.578 2.32-14.397 3.494l-3.12 0.762c-18.48 4.502-37.443 9.078-56.579 12.666zM512 760.977c80.989 44.975 148.845 44.198 214.093 31.542 19.757-3.832 40.96-9.165 61.568-14.348 12.886-3.241 25.539-6.424 37.459-9.143 32.832-7.492 66.234-13.164 102.88-13.164 17.674 0 32-14.327 32-32v-595.861c0-17.674-14.326-32-32-32-74.349 0-131.814 9.798-179.741 17.971-15.827 2.698-30.618 5.219-44.63 7.152-55.734 7.686-105.779 7.766-179.395-22.694-7.834-3.242-16.634-3.242-24.467 0-73.45 30.39-127.466 30.426-185.533 22.678-15.503-2.070-31.853-4.835-49.229-7.773-47.456-8.019-102.568-17.334-169.004-17.334-17.673 0-32 14.326-32 32v595.861c0 8.487 3.372 16.627 9.373 22.628s14.141 9.372 22.629 9.372c36.645-0.003 70.046 5.667 102.879 13.159 11.921 2.72 24.579 5.904 37.47 9.147 20.604 5.183 41.805 10.516 61.555 14.347 65.25 12.658 133.106 13.438 214.094-31.54zM213.119 706.628c-26.274-5.996-54.462-11.275-85.119-13.56v-532.316c45.852 2.157 84.14 8.634 121.683 14.986 18.599 3.149 37.021 6.266 56.083 8.81 54.237 7.238 108.509 8.547 174.234-11.152v532.147c-64.285 35.431-115.811 34.641-169.906 24.147-18.759-3.639-36.19-8.052-54.9-12.79-13.1-3.317-26.827-6.792-42.076-10.272zM713.907 729.69c-54.093 10.492-105.622 11.28-169.907-24.149v-532.040c64.426 19.555 115.619 18.304 168.371 11.027 16.842-2.323 33.357-5.136 50.272-8.016 39.299-6.694 80.742-13.754 133.357-15.872v532.429c-30.656 2.287-58.845 7.566-85.12 13.562-15.242 3.478-28.963 6.952-42.061 10.268-18.714 4.738-36.15 9.152-54.912 12.791z" />
<glyph unicode="&#xe947;" glyph-name="categories" data-tags="categories" d="M304 832c-97.202 0-176-78.798-176-176s78.798-176 176-176c97.203 0 176 78.797 176 176s-78.797 176-176 176zM192 656c0 61.856 50.144 112 112 112s112-50.144 112-112c0-61.856-50.144-112-112-112s-112 50.144-112 112zM239.313 384c-16.822 0-32.198-9.069-40.452-23.517l-64.687-113.219c-8.233-14.41-8.233-32.118 0-46.528l64.687-113.219c8.254-14.448 23.63-23.517 40.452-23.517h129.375c16.822 0 32.195 9.069 40.451 23.517l64.685 113.219c8.234 14.41 8.234 32.118 0 46.528l-64.685 113.219c-8.256 14.448-23.629 23.517-40.451 23.517h-129.375zM194.592 224l54.848 96h109.12l54.848-96-54.848-96h-109.12l-54.848 96zM720 832c11.117 0 21.44-5.772 27.261-15.244l142.166-231.3c0.474-0.771 0.915-1.565 1.322-2.371 16.573-32.934-7.696-71.085-43.949-71.085h-253.6c-36.253 0-60.522 38.15-43.949 71.085 0.406 0.806 0.848 1.6 1.322 2.371l142.163 231.3c5.824 9.472 16.144 15.244 27.264 15.244zM720 738.888l-100.115-162.888h200.23l-100.115 162.888zM608 416c-35.347 0-64-28.653-64-64v-224c0-35.347 28.653-64 64-64h224c35.347 0 64 28.653 64 64v224c0 35.347-28.653 64-64 64h-224zM608 352h224v-224h-224v224z" />
<glyph unicode="&#xe948;" glyph-name="catering" data-tags="catering" d="M416 768c-17.674 0-32-14.327-32-32s14.326-32 32-32h64v-65.213c-194.81-14.819-352-163.702-352-350.787v-96h-32c-17.673 0-32-14.326-32-32s14.327-32 32-32h832c17.674 0 32 14.326 32 32s-14.326 32-32 32h-32v96c0 187.085-157.19 335.968-352 350.787v65.213h64c17.674 0 32 14.327 32 32s-14.326 32-32 32h-192zM512 576c167.398 0 300.445-114.141 318.026-256h-636.052c17.581 141.859 150.628 256 318.027 256zM832 192h-640v64h640v-64z" />
<glyph unicode="&#xe949;" glyph-name="celebrate" data-tags="celebrate" d="M602.624 817.751c-9.802 14.705-29.67 18.678-44.374 8.875-14.707-9.804-18.678-29.671-8.877-44.376 24.464-36.693 22.176-76.73 7.213-111.644-7.514-17.531-17.962-32.939-28.771-44.564-11.286-12.138-20.944-18.019-25.936-19.683-16.765-5.587-25.827-23.712-20.237-40.477 5.587-16.768 23.712-25.827 40.477-20.24 19.008 6.336 37.35 20.458 52.566 36.819 15.69 16.874 30.24 38.464 40.726 62.934 21.037 49.085 26.752 113.048-12.787 172.356zM390.637 822.626c12.25-12.252 12.49-31.967 0.717-44.51 0.336-0.386 0.704-0.796 1.104-1.233 2.288-2.5 4.566-4.743 7.456-7.585 1.405-1.382 2.954-2.905 4.72-4.669 8.39-8.392 24.112-24.148 28.502-46.101 5.162-25.796-6.419-49.075-26.502-69.155-12.496-12.496-32.758-12.496-45.254 0.001s-12.496 32.758 0 45.255c6.378 6.375 8.317 10.119 8.845 11.718-0.224 0.5-0.723 1.454-1.782 2.927-1.946 2.705-4.79 5.826-9.062 10.098-0.909 0.908-1.958 1.942-3.098 3.062-3.386 3.333-7.552 7.432-11.043 11.246-4.835 5.284-10.88 12.608-15.062 21.71-4.506 9.808-6.944 21.94-3.782 35.317 3.014 12.748 10.333 23.269 18.989 31.922 12.496 12.496 32.758 12.494 45.254-0.004zM370.374 707.268c0 0 0.054-0.216-0.077-0.688-0.032 0.446 0.077 0.688 0.077 0.688zM752.013 528c-39.914 0-96.234-18.979-134.627-57.373-12.496-12.496-12.496-32.758 0-45.254s32.758-12.496 45.254 0c25.606 25.606 65.29 38.627 89.373 38.627 17.674 0 32 14.326 32 32s-14.326 32-32 32zM802.627 290.627c-16.493 16.493-40.221 29.373-66.627 29.373-17.674 0-32-14.326-32-32s14.326-32 32-32c5.59 0 13.862-3.117 21.373-10.627 7.507-7.507 10.627-15.779 10.627-21.373 0-17.674 14.326-32 32-32s32 14.326 32 32c0 26.406-12.883 50.138-29.373 66.627zM736 768.001c-17.674 0-32 14.327-32 32s14.326 32 32 32c17.674 0 32-14.327 32-32s-14.326-32-32-32zM769.642 629.882c-5.587 16.766 3.472 34.889 20.24 40.477l48 16c16.765 5.589 34.886-3.472 40.477-20.238 5.587-16.766-3.472-34.888-20.24-40.479l-48-16c-16.765-5.587-34.886 3.475-40.477 20.24zM800 400c0-26.509 21.491-48 48-48s48 21.491 48 48c0 26.512-21.491 48-48 48s-48-21.488-48-48zM608 160c0-17.674 14.326-32 32-32s32 14.326 32 32c0 17.674-14.326 32-32 32s-32-14.326-32-32zM224 608c-17.673 0-32 14.326-32 32.001 0 17.673 14.327 32 32 32s32-14.327 32-32c0-17.675-14.327-32.001-32-32.001zM345.949 575.424c10.429 2.006 21.171-1.286 28.678-8.797l256-256c7.51-7.507 10.803-18.253 8.797-28.678-2.010-10.426-9.059-19.178-18.819-23.36l-447.998-192c-12.027-5.155-25.98-2.467-35.233 6.784s-11.94 23.206-6.785 35.232l192.001 448c4.182 9.76 12.934 16.81 23.36 18.819zM362.794 487.952l-141.867-331.024 331.025 141.866-189.158 189.158z" />
<glyph unicode="&#xe94a;" glyph-name="chat-add-comment-question" data-tags="chat-add-comment-question" d="M544 672c0 17.673-14.326 32-32 32s-32-14.327-32-32v-128h-128c-17.674 0-32-14.326-32-32s14.326-32 32-32h128v-128c0-17.674 14.326-32 32-32s32 14.326 32 32v128h128c17.674 0 32 14.326 32 32s-14.326 32-32 32h-128v128zM224 832c-88.365 0-160-71.635-160-160v-320c0-88.365 71.635-160 160-160h172.224l87.155-174.31c5.421-10.842 16.499-17.69 28.621-17.69s23.2 6.848 28.621 17.69l87.155 174.31h172.224c88.365 0 160 71.635 160 160v320c0 88.365-71.635 160-160 160h-576zM128 672c0 53.019 42.981 96 96 96h576c53.021 0 96-42.981 96-96v-320c0-53.021-42.979-96-96-96h-192c-12.122 0-23.2-6.848-28.621-17.69l-67.379-134.755-67.379 134.755c-5.421 10.842-16.499 17.69-28.621 17.69h-192c-53.019 0-96 42.979-96 96v320z" />
<glyph unicode="&#xe94b;" glyph-name="chat-ask-question" data-tags="chat-ask-question" d="M544 320c0-17.674-14.326-32-32-32s-32 14.326-32 32c0 17.674 14.326 32 32 32s32-14.326 32-32zM432 595.2c0 24.742 20.058 44.8 44.8 44.8h57.418c31.91 0 57.782-25.872 57.782-57.782 0-31.754-25.805-57.654-57.693-57.786-29.942-0.122-54.307-24.413-54.307-54.49v-53.942c0-17.674 14.326-32 32-32s32 14.326 32 32v44.832c62.598 5.056 112 57.434 112 121.386 0 67.258-54.525 121.782-121.782 121.782h-57.418c-60.090 0-108.8-48.711-108.8-108.8 0-17.674 14.326-32 32-32s32 14.326 32 32zM64 672c0 88.365 71.635 160 160 160h576c88.365 0 160-71.635 160-160v-320c0-88.365-71.635-160-160-160h-172.224l-87.155-174.31c-5.421-10.842-16.499-17.69-28.621-17.69s-23.2 6.848-28.621 17.69l-87.155 174.31h-172.224c-88.365 0-160 71.635-160 160v320zM224 768c-53.019 0-96-42.981-96-96v-320c0-53.021 42.981-96 96-96h192c12.122 0 23.2-6.848 28.621-17.69l67.379-134.755 67.379 134.755c5.421 10.842 16.499 17.69 28.621 17.69h192c53.021 0 96 42.979 96 96v320c0 53.019-42.979 96-96 96h-576z" />
<glyph unicode="&#xe94c;" glyph-name="chat-comments" data-tags="chat-comments" d="M384 496c0-26.509-21.491-48-48-48s-48 21.491-48 48c0 26.509 21.49 48 48 48s48-21.491 48-48zM560 496c0-26.509-21.491-48-48-48s-48 21.491-48 48c0 26.509 21.491 48 48 48s48-21.491 48-48zM688 448c26.509 0 48 21.491 48 48s-21.491 48-48 48c-26.509 0-48-21.491-48-48s21.491-48 48-48zM224 832c-88.365 0-160-71.635-160-160v-320c0-88.365 71.635-160 160-160h172.224l87.155-174.31c5.421-10.842 16.499-17.69 28.621-17.69s23.2 6.848 28.621 17.69l87.155 174.31h172.224c88.365 0 160 71.635 160 160v320c0 88.365-71.635 160-160 160h-576zM128 672c0 53.019 42.981 96 96 96h576c53.021 0 96-42.981 96-96v-320c0-53.021-42.979-96-96-96h-192c-12.122 0-23.2-6.848-28.621-17.69l-67.379-134.755-67.379 134.755c-5.421 10.842-16.499 17.69-28.621 17.69h-192c-53.019 0-96 42.979-96 96v320z" />
<glyph unicode="&#xe94d;" glyph-name="chat-feedback-ticket" data-tags="chat-feedback-ticket" d="M288 640c-17.673 0-32-14.326-32-32s14.327-32 32-32h448c17.674 0 32 14.326 32 32s-14.326 32-32 32h-448zM288 448c-17.673 0-32-14.326-32-32s14.327-32 32-32h256c17.674 0 32 14.326 32 32s-14.326 32-32 32h-256zM224 832c-88.365 0-160-71.635-160-160v-320c0-88.365 71.635-160 160-160h172.224l87.155-174.31c5.421-10.842 16.499-17.69 28.621-17.69s23.2 6.848 28.621 17.69l87.155 174.31h172.224c88.365 0 160 71.635 160 160v320c0 88.365-71.635 160-160 160h-576zM128 672c0 53.019 42.981 96 96 96h576c53.021 0 96-42.981 96-96v-320c0-53.021-42.979-96-96-96h-192c-12.122 0-23.2-6.848-28.621-17.69l-67.379-134.755-67.379 134.755c-5.421 10.842-16.499 17.69-28.621 17.69h-192c-53.019 0-96 42.979-96 96v320z" />
<glyph unicode="&#xe94e;" glyph-name="chat-live" data-tags="chat-live" d="M608 896c-53.021 0-96-42.981-96-96v-128c0-53.021 42.979-96 96-96h42.288l57.293-110.707c5.533-10.694 16.602-17.376 28.643-17.293 12.038 0.083 23.014 6.918 28.397 17.69l55.155 110.31h44.224c53.021 0 96 42.979 96 96v128c0 53.019-42.979 96-96 96h-256zM576 800c0 17.673 14.326 32 32 32h256c17.674 0 32-14.327 32-32v-128c0-17.673-14.326-32-32-32h-64c-12.122 0-23.2-6.848-28.621-17.69l-35.869-71.738-37.331 72.134c-5.498 10.624-16.458 17.293-28.419 17.293h-61.76c-17.674 0-32 14.327-32 32v128zM128 544c0 53.021 42.981 96 96 96h192c17.674 0 32 14.327 32 32s-14.326 32-32 32h-192c-88.365 0-160-71.635-160-160v-256c0-88.365 71.635-160 160-160h140.224l55.155-110.31c5.421-10.842 16.499-17.69 28.621-17.69s23.2 6.848 28.621 17.69l55.155 110.31h140.224c88.365 0 160 71.635 160 160v80.64c0 17.674-14.326 32-32 32s-32-14.326-32-32v-80.64c0-53.021-42.979-96-96-96h-160c-12.122 0-23.2-6.848-28.621-17.69l-35.379-70.755-35.379 70.755c-5.421 10.842-16.499 17.69-28.621 17.69h-160c-53.019 0-96 42.979-96 96v256zM320 384c-17.673 0-32 14.326-32 32s14.327 32 32 32c17.674 0 32-14.326 32-32s-14.326-32-32-32zM448 384c-17.674 0-32 14.326-32 32s14.326 32 32 32c17.674 0 32-14.326 32-32s-14.326-32-32-32zM544 416c0-17.674 14.326-32 32-32s32 14.326 32 32c0 17.674-14.326 32-32 32s-32-14.326-32-32z" />
<glyph unicode="&#xe94f;" glyph-name="chat-review" data-tags="chat-review" d="M557.542 700.521c-14.579 43.78-76.506 43.78-91.085 0l-30.429-91.382h-97.872c-46.762 0-65.92-60.054-27.797-87.133l78.178-55.53-29.898-90.074c-14.605-44.010 35.494-81.098 73.322-54.275l80.038 56.755 80.038-56.755c37.827-26.822 87.926 10.266 73.322 54.275l-29.898 90.074 78.176 55.53c38.125 27.078 18.966 87.133-27.795 87.133h-97.872l-30.429 91.382zM489.462 567.030l22.538 67.683 22.538-67.683c4.352-13.072 16.582-21.891 30.362-21.891h70.787l-56.579-40.189c-11.469-8.144-16.272-22.822-11.84-36.17l21.974-66.214-58.733 41.648c-11.088 7.862-25.93 7.862-37.018 0l-58.733-41.648 21.974 66.214c4.432 13.347-0.374 28.026-11.84 36.17l-56.582 40.189h70.79c13.779 0 26.010 8.819 30.362 21.891zM224 832c-88.365 0-160-71.635-160-160v-320c0-88.365 71.635-160 160-160h172.224l87.155-174.31c5.421-10.842 16.499-17.69 28.621-17.69s23.2 6.848 28.621 17.69l87.155 174.31h172.224c88.365 0 160 71.635 160 160v320c0 88.365-71.635 160-160 160h-576zM128 672c0 53.019 42.981 96 96 96h576c53.021 0 96-42.981 96-96v-320c0-53.021-42.979-96-96-96h-192c-12.122 0-23.2-6.848-28.621-17.69l-67.379-134.755-67.379 134.755c-5.421 10.842-16.499 17.69-28.621 17.69h-192c-53.019 0-96 42.979-96 96v320z" />
<glyph unicode="&#xe950;" glyph-name="chat-with-merchant" data-tags="chat-with-merchant" d="M832 704c-17.674 0-32 14.327-32 32s14.326 32 32 32c17.674 0 32-14.327 32-32s-14.326-32-32-32zM736 704c-17.674 0-32 14.327-32 32s14.326 32 32 32c17.674 0 32-14.327 32-32s-14.326-32-32-32zM608 736c0-17.673 14.326-32 32-32s32 14.327 32 32c0 17.673-14.326 32-32 32s-32-14.327-32-32zM608 896c-53.021 0-96-42.981-96-96v-128c0-53.021 42.979-96 96-96h42.288l57.293-110.707c5.533-10.694 16.602-17.376 28.643-17.293 12.038 0.083 23.014 6.918 28.397 17.69l55.155 110.31h44.224c53.021 0 96 42.979 96 96v128c0 53.019-42.979 96-96 96h-256zM576 800c0 17.673 14.326 32 32 32h256c17.674 0 32-14.327 32-32v-128c0-17.673-14.326-32-32-32h-64c-12.122 0-23.2-6.848-28.621-17.69l-35.869-71.738-37.331 72.134c-5.498 10.624-16.458 17.293-28.419 17.293h-61.76c-17.674 0-32 14.327-32 32v128zM128 544c0 53.021 42.981 96 96 96h192c17.674 0 32 14.327 32 32s-14.326 32-32 32h-192c-88.365 0-160-71.635-160-160v-256c0-88.365 71.635-160 160-160h140.224l55.155-110.31c5.421-10.842 16.499-17.69 28.621-17.69s23.2 6.848 28.621 17.69l55.155 110.31h140.224c88.365 0 160 71.635 160 160v80.64c0 17.674-14.326 32-32 32s-32-14.326-32-32v-80.64c0-53.021-42.979-96-96-96h-160c-12.122 0-23.2-6.848-28.621-17.69l-35.379-70.755-35.379 70.755c-5.421 10.842-16.499 17.69-28.621 17.69h-160c-53.019 0-96 42.979-96 96v256zM384 492.397c0 33.677 22.221 51.603 38.621 51.603h50.758c16.4 0 38.621-17.926 38.621-51.603s-22.221-51.603-38.621-51.603l-0.643-0.006c-30.57-0.614-55.030-25.571-55.030-56.147v-32.64c0-17.674 14.326-32 32-32s32 14.326 32 32v25.149c56.81 4.89 94.294 59.456 94.294 115.248 0 58.477-41.178 115.603-102.621 115.603h-50.758c-61.443 0-102.621-57.126-102.621-115.603 0-17.674 14.326-32 32-32s32 14.326 32 32zM448 224c17.674 0 32 14.326 32 32s-14.326 32-32 32c-17.674 0-32-14.326-32-32s14.326-32 32-32z" />
<glyph unicode="&#xe951;" glyph-name="check-okey" data-tags="check-okey" d="M887.395 629.834c12.058-12.918 11.36-33.168-1.562-45.229l-480-448c-6.333-5.91-14.794-9.002-23.45-8.563-8.653 0.435-16.762 4.365-22.467 10.886l-223.999 256c-11.638 13.299-10.29 33.517 3.010 45.155s33.517 10.288 45.155-3.011l202.24-231.133 455.843 425.456c12.918 12.057 33.168 11.359 45.229-1.562z" />
<glyph unicode="&#xe952;" glyph-name="checklist-applist" data-tags="checklist-applist" d="M224 832c-53.019 0-96-42.981-96-96v-128c0-53.021 42.981-96 96-96h128c53.021 0 96 42.979 96 96v128c0 53.019-42.979 96-96 96h-128zM192 736c0 17.673 14.327 32 32 32h128c17.674 0 32-14.327 32-32v-128c0-17.674-14.326-32-32-32h-128c-17.673 0-32 14.326-32 32v128zM576 768c-17.674 0-32-14.327-32-32s14.326-32 32-32h288c17.674 0 32 14.327 32 32s-14.326 32-32 32h-288zM224 384c-53.019 0-96-42.979-96-96v-128c0-53.021 42.981-96 96-96h128c53.021 0 96 42.979 96 96v128c0 53.021-42.979 96-96 96h-128zM192 288c0 17.674 14.327 32 32 32h128c17.674 0 32-14.326 32-32v-128c0-17.674-14.326-32-32-32h-128c-17.673 0-32 14.326-32 32v128zM576 320c-17.674 0-32-14.326-32-32s14.326-32 32-32h288c17.674 0 32 14.326 32 32s-14.326 32-32 32h-288zM576 640c-17.674 0-32-14.326-32-32s14.326-32 32-32h192c17.674 0 32 14.326 32 32s-14.326 32-32 32h-192zM576 192c-17.674 0-32-14.326-32-32s14.326-32 32-32h192c17.674 0 32 14.326 32 32s-14.326 32-32 32h-192z" />
<glyph unicode="&#xe953;" glyph-name="chevron-down" data-tags="chevron-down" d="M137.372 630.627c12.497 12.497 32.758 12.497 45.255 0l329.372-329.373 329.373 329.373c12.496 12.497 32.758 12.497 45.254 0s12.496-32.758 0-45.254l-352-352c-12.496-12.496-32.758-12.496-45.254 0l-352 352c-12.497 12.496-12.497 32.758 0 45.254z" />
<glyph unicode="&#xe954;" glyph-name="chevron-expand" data-tags="chevron-expand" d="M534.627 790.628c-12.496 12.497-32.758 12.497-45.254 0l-160-160c-12.497-12.496-12.497-32.758 0-45.254s32.758-12.496 45.254 0l137.373 137.372 137.373-137.372c12.496-12.496 32.758-12.496 45.254 0s12.496 32.758 0 45.254l-160 160zM374.627 310.627c-12.496 12.496-32.758 12.496-45.254 0s-12.497-32.758 0-45.254l160-160c12.496-12.496 32.758-12.496 45.254 0l160 160c12.496 12.496 12.496 32.758 0 45.254s-32.758 12.496-45.254 0l-137.373-137.373-137.373 137.373z" />
<glyph unicode="&#xe955;" glyph-name="chevron-left" data-tags="chevron-left" d="M694.614 822.64c-12.502 12.49-32.765 12.479-45.254-0.025l-352-352.391c-5.998-6.003-9.365-14.147-9.36-22.634s3.381-16.624 9.385-22.621l352-351.61c12.502-12.49 32.765-12.48 45.254 0.026 12.49 12.502 12.48 32.765-0.026 45.254l-329.36 328.995 329.386 329.75c12.49 12.504 12.48 32.765-0.026 45.255z" />
<glyph unicode="&#xe956;" glyph-name="chevron-right" data-tags="chevron-right" d="M329.386 822.64c12.502 12.49 32.765 12.479 45.254-0.025l352-352.391c5.997-6.003 9.363-14.147 9.36-22.634s-3.379-16.624-9.386-22.621l-352-351.61c-12.502-12.49-32.765-12.48-45.254 0.026-12.49 12.502-12.478 32.765 0.026 45.254l329.36 328.995-329.386 329.75c-12.49 12.504-12.479 32.765 0.026 45.255z" />
<glyph unicode="&#xe957;" glyph-name="chevron-up" data-tags="chevron-up" d="M489.373 662.628c12.493 12.492 32.742 12.497 45.242 0.012l352-351.61c12.506-12.49 12.515-32.752 0.026-45.254s-32.752-12.515-45.254-0.026l-329.373 329.008-329.385-329.386c-12.497-12.496-32.758-12.496-45.255 0s-12.497 32.758 0 45.254l352 352z" />
<glyph unicode="&#xe958;" glyph-name="clock" data-tags="clock" d="M544 672c0 17.673-14.326 32-32 32s-32-14.327-32-32v-224c0-8.486 3.373-16.627 9.373-22.627l160-160c12.496-12.496 32.758-12.496 45.254 0s12.496 32.758 0 45.254l-150.627 150.627v210.746zM512 896c-247.424 0-448-200.576-448-448s200.576-448 448-448c247.424 0 448 200.576 448 448s-200.576 448-448 448zM128 448c0 212.077 171.923 384 384 384s384-171.923 384-384c0-212.077-171.923-384-384-384s-384 171.923-384 384z" />
<glyph unicode="&#xe959;" glyph-name="clock-alarm" data-tags="clock-alarm" d="M762.067 818.076c9.984 14.584 29.898 18.314 44.483 8.332 29.040-19.877 56.403-42.862 80.643-68.358 12.176-12.809 11.664-33.064-1.146-45.24s-33.062-11.665-45.242 1.144c-20.941 22.028-44.826 42.133-70.406 59.642-14.582 9.982-18.314 29.897-8.333 44.481zM262.905 818.131c10.013-14.563 6.325-34.485-8.238-44.499-26.668-18.337-50.919-37.454-71.329-59.209-12.092-12.889-32.343-13.535-45.232-1.443s-13.535 32.343-1.444 45.232c24.77 26.403 53.117 48.474 81.744 68.157 14.563 10.013 34.486 6.325 44.499-8.238zM512 640c17.674 0 32-14.326 32-32v-189.37l88.934-110.576c11.078-13.77 8.893-33.914-4.88-44.989-13.77-11.078-33.914-8.893-44.989 4.88l-96 119.36c-4.573 5.683-7.066 12.758-7.066 20.054v200.64c0 17.674 14.326 32 32 32zM512 768c-194.404 0-352-157.597-352-352s157.596-352 352-352c194.403 0 352 157.597 352 352s-157.597 352-352 352zM224 416c0 159.059 128.941 288 288 288s288-128.941 288-288c0-159.059-128.941-288-288-288s-288 128.941-288 288z" />
<glyph unicode="&#xe95a;" glyph-name="clock-bnpl-pay-later" data-tags="clock-bnpl-pay-later" d="M502.627 886.628c-12.496 12.497-32.758 12.497-45.254 0s-12.496-32.758 0-45.255l11.741-11.74c-191.892-21.324-341.114-184.052-341.114-381.632 0-200.326 153.376-364.797 349.126-382.435 17.603-1.587 33.158 11.395 34.746 28.998 1.584 17.6-11.398 33.155-29.002 34.742-163.063 14.694-290.87 151.786-290.87 318.694 0 160.077 117.539 292.701 271.021 316.275l-5.648-5.648c-12.496-12.497-12.496-32.758 0-45.255s32.758-12.497 45.254 0l64 64c6 6.001 9.373 14.14 9.373 22.628s-3.373 16.626-9.373 22.628l-64 64zM833.878 657.477c-9.651 14.804-29.478 18.981-44.282 9.328s-18.979-29.477-9.328-44.284c27.741-42.547 45.619-92.074 50.426-145.395 1.587-17.6 17.142-30.582 34.742-28.998 17.603 1.587 30.586 17.142 28.998 34.746-5.77 64.019-27.258 123.533-60.557 174.604zM576 624c0 17.673-14.326 32-32 32s-32-14.327-32-32v-189.882l-144.464-86.678c-15.155-9.094-20.067-28.749-10.976-43.904 9.094-15.155 28.749-20.067 43.904-10.976l160 96c9.638 5.782 15.536 16.198 15.536 27.44v208zM768.006 384c0 17.674-14.326 32-32 32s-32-14.326-32-32v-112.832l-71.011-15.946c-17.242-3.872-28.083-20.989-24.211-38.234s20.989-28.083 38.234-24.211l56.989 12.797v-205.574c0-8.486 3.373-16.627 9.373-22.627 6.003-6.003 14.141-9.373 22.63-9.373 40.419 0 86.454 7.299 123.613 28.070 38.787 21.683 68.384 58.794 68.384 113.645 0 17.674-14.326 32-32 32s-32-14.326-32-32c0-27.43-13.069-45.178-35.613-57.782-16.557-9.254-37.702-15.181-60.387-17.997v186.010l103.008 23.13c17.245 3.872 28.083 20.989 24.211 38.234-3.872 17.242-20.989 28.083-38.234 24.211l-88.986-19.981v98.461z" />
<glyph unicode="&#xe95b;" glyph-name="clock-future" data-tags="clock-future" d="M502.627 886.631c-12.496 12.497-32.758 12.497-45.254 0s-12.496-32.758 0-45.255l11.744-11.743c-191.894-21.323-341.117-184.051-341.117-381.633 0-212.077 171.923-384 384-384s384 171.923 384 384c0 77.229-22.832 149.219-62.122 209.479-9.651 14.804-29.478 18.98-44.282 9.328s-18.979-29.478-9.328-44.282c32.717-50.179 51.731-110.083 51.731-174.525 0-176.73-143.27-320-320-320s-320 143.27-320 320c0 160.077 117.537 292.7 271.018 316.276l-5.645-5.644c-12.496-12.497-12.496-32.758 0-45.255s32.758-12.497 45.254 0l64 64c6 6.001 9.373 14.14 9.373 22.627s-3.373 16.626-9.373 22.628l-64 64zM392.768 612.266c-11.19 13.677-31.354 15.693-45.030 4.502-13.68-11.19-15.696-31.354-4.502-45.030l144-176c6.077-7.427 15.168-11.738 24.765-11.738h176c17.674 0 32 14.326 32 32s-14.326 32-32 32h-160.835l-134.397 164.266z" />
<glyph unicode="&#xe95c;" glyph-name="clock-history" data-tags="clock-history" d="M511.36 864c-128.47 0-243.287-58.034-319.679-149.14v85.14c0 17.673-14.327 32-32 32s-32-14.327-32-32v-192c0-17.674 14.327-32 32-32h192.322c17.67 0 32 14.326 32 32s-14.33 32-32 32h-136.318c62.912 96.304 171.819 160 295.675 160 194.893 0 352.643-157.564 352.643-352 0-194.435-157.75-352-352.643-352-184.867 0-336.488 142.016-351.468 322.643-1.46 17.613-16.923 30.707-34.535 29.248-17.613-1.462-30.707-16.925-29.246-34.534 17.715-213.613 196.886-381.357 415.249-381.357 230.138 0 416.643 186.115 416.643 416s-186.506 416-416.643 416zM544.003 704c0 17.673-14.33 32-32 32-17.674 0-32-14.327-32-32v-288c0-8.486 3.37-16.627 9.37-22.627l160-160c12.499-12.496 32.758-12.496 45.258 0 12.496 12.496 12.496 32.758 0 45.254l-150.627 150.627v274.746z" />
<glyph unicode="&#xe95d;" glyph-name="clock-past" data-tags="clock-past" d="M566.627 841.377c12.496 12.497 12.496 32.758 0 45.255s-32.758 12.497-45.254 0l-64-64c-6-6.001-9.373-14.14-9.373-22.628s3.373-16.626 9.373-22.627l64-64c12.496-12.497 32.758-12.497 45.254 0s12.496 32.758 0 45.255l-5.645 5.644c153.482-23.576 271.018-156.198 271.018-316.275 0-176.73-143.27-320-320-320s-320 143.27-320 320c0 64.442 19.015 124.346 51.731 174.525 9.653 14.803 5.476 34.629-9.328 44.282s-34.631 5.476-44.283-9.328c-39.29-60.259-62.12-132.25-62.12-209.478 0-212.077 171.923-384 384-384s384 171.923 384 384c0 197.582-149.222 360.31-341.117 381.633l11.744 11.744zM360.768 612.266c-11.19 13.677-31.354 15.693-45.031 4.502s-15.694-31.354-4.503-45.030l144.001-176c6.077-7.427 15.168-11.738 24.765-11.738h176c17.674 0 32 14.326 32 32s-14.326 32-32 32h-160.835l-134.397 164.266z" />
<glyph unicode="&#xe95e;" glyph-name="clock-waiting" data-tags="clock-waiting" d="M483.018 832.091c17.622 1.339 30.822 16.711 29.482 34.333-1.338 17.622-16.71 30.822-34.333 29.483-231.604-17.604-414.166-211.187-414.166-447.267 0-247.789 200.854-448.64 448.64-448.64 247.51 0 429.706 183.101 447.267 414.166 1.341 17.622-11.859 32.992-29.482 34.333-17.622 1.338-32.995-11.862-34.333-29.485-15.13-199.037-170.733-355.014-383.453-355.014-212.44 0-384.64 172.198-384.64 384.64 0 202.354 156.52 368.364 355.018 383.451zM616.339 885.236c-17.219 3.992-34.41-6.728-38.403-23.944-3.99-17.216 6.73-34.409 23.946-38.402 20.272-4.701 40.003-11.176 58.89-19.143 16.282-6.869 35.050 0.762 41.92 17.045s-0.762 35.052-17.043 41.922c-22.141 9.34-45.354 16.966-69.309 22.521zM809.485 785.376c-13.222 11.726-33.45 10.513-45.174-2.71s-10.512-33.448 2.71-45.173c15.885-14.087 30.352-28.88 43.216-44.666 11.165-13.701 31.322-15.758 45.021-4.594 13.702 11.164 15.757 31.32 4.595 45.021-15.341 18.827-32.282 36.084-50.368 52.123zM932.605 606.762c-6.259 16.525-24.733 24.848-41.258 18.589-16.528-6.259-24.851-24.733-18.592-41.261 7.341-19.379 12.986-39.52 17.171-59.856 3.565-17.312 20.486-28.454 37.795-24.89 17.312 3.562 28.454 20.483 24.89 37.795-4.787 23.251-11.322 46.698-20.006 69.622zM544.32 735.963c0.019 17.673-14.291 32.016-31.965 32.036s-32.016-14.292-32.035-31.964l-0.32-288.002c-0.010-8.493 3.357-16.64 9.36-22.65s14.147-9.386 22.64-9.386h288c17.674 0 32 14.33 32 32 0 17.674-14.326 32-32 32h-255.965l0.285 255.966z" />
<glyph unicode="&#xe95f;" glyph-name="columns" data-tags="columns" d="M160 832c-17.673 0-32-14.327-32-32s14.327-32 32-32h64c17.673 0 32-14.327 32-32v-576c0-17.674-14.327-32-32-32h-64c-17.673 0-32-14.326-32-32s14.327-32 32-32h64c53.019 0 96 42.979 96 96v576c0 53.019-42.98 96-96 96h-64zM800 832c-53.021 0-96-42.981-96-96v-576c0-53.021 42.979-96 96-96h64c17.674 0 32 14.326 32 32s-14.326 32-32 32h-64c-17.674 0-32 14.326-32 32v576c0 17.673 14.326 32 32 32h64c17.674 0 32 14.327 32 32s-14.326 32-32 32h-64zM640 736c0 53.019-42.979 96-96 96h-64c-53.021 0-96-42.98-96-96v-576c0-53.021 42.979-96 96-96h64c53.021 0 96 42.979 96 96v576zM544 768c17.674 0 32-14.327 32-32v-576c0-17.674-14.326-32-32-32h-64c-17.674 0-32 14.326-32 32v576c0 17.673 14.326 32 32 32h64z" />
<glyph unicode="&#xe960;" glyph-name="compare" data-tags="compare" d="M64 760c0 53.79 39.541 104 96 104h224c52.522 0 90.634-43.788 95.456-92.871 0.096-0.988 0.147-1.98 0.154-2.973l0.39-80c0.086-17.673-14.17-32.069-31.843-32.156s-32.070 14.171-32.157 31.844l-0.381 78.334c-2.726 22.074-18.512 33.822-31.619 33.822h-224c-14.234 0-32-14.261-32-40v-624c0-25.738 17.766-40 32-40h224c14.23 0 31.987 14.253 32 39.974 0 0.006 0-0.010 0 0l-0.39 247.974c-0.029 17.674 14.275 32.022 31.949 32.051s32.022-14.275 32.051-31.949l0.39-248.051c0-53.789-39.542-104-96-104h-224c-56.459 0-96 50.211-96 104v624zM544.544 771.129c4.822 49.082 42.934 92.871 95.456 92.871h224c56.458 0 96-50.21 96-104v-624c0-53.789-39.542-104-96-104h-224c-56.458 0-96 50.211-96 104v248c0 17.674 14.326 32 32 32s32-14.326 32-32v-248c0-25.738 17.766-40 32-40h224c14.234 0 32 14.262 32 40v624c0 25.739-17.766 40-32 40h-224c-13.107 0-28.893-11.748-31.619-33.822l-0.381-78.334c-0.086-17.673-14.483-31.93-32.157-31.844s-31.93 14.483-31.843 32.156l0.39 80c0.006 0.993 0.058 1.985 0.154 2.973zM374.627 630.627c12.496-12.496 12.496-32.758 0-45.254l-9.373-9.373h293.491l-9.373 9.373c-12.496 12.496-12.496 32.758 0 45.254s32.758 12.497 45.254 0l64-64c12.496-12.496 12.496-32.758 0-45.254l-64-64c-12.496-12.496-32.758-12.496-45.254 0s-12.496 32.758 0 45.254l9.373 9.373h-293.491l9.373-9.373c12.496-12.496 12.496-32.758 0-45.254s-32.758-12.496-45.254 0l-64 64c-12.497 12.496-12.497 32.758 0 45.254l64 64c12.496 12.497 32.758 12.497 45.254 0zM160 352c0 17.674 14.327 32 32 32h80c17.673 0 32-14.326 32-32s-14.327-32-32-32h-80c-17.673 0-32 14.326-32 32zM704 320h-32c-17.674 0-32 14.326-32 32s14.326 32 32 32h32c17.674 0 32-14.326 32-32s-14.326-32-32-32zM160 256c0 17.674 14.327 32 32 32h160c17.674 0 32-14.326 32-32s-14.326-32-32-32h-160c-17.673 0-32 14.326-32 32zM752 224h-80c-17.674 0-32 14.326-32 32s14.326 32 32 32h80c17.674 0 32-14.326 32-32s-14.326-32-32-32zM160 160c0 17.674 14.327 32 32 32h48c17.673 0 32-14.326 32-32s-14.327-32-32-32h-48c-17.673 0-32 14.326-32 32zM864 160c0-17.674-14.326-32-32-32h-160c-17.674 0-32 14.326-32 32s14.326 32 32 32h160c17.674 0 32-14.326 32-32z" />
<glyph unicode="&#xe961;" glyph-name="compass" data-tags="compass" d="M512 704c17.674 0 32 14.327 32 32s-14.326 32-32 32c-17.674 0-32-14.327-32-32s14.326-32 32-32zM732.624 625.69c6.157 12.32 3.744 27.198-5.997 36.938-9.738 9.74-24.618 12.154-36.938 5.994l-179.674-89.838c-55.738-27.869-100.931-73.062-128.8-128.797l-89.837-179.677c-6.16-12.32-3.745-27.197 5.994-36.938s24.62-12.154 36.937-5.994l179.677 89.837c55.734 27.869 100.931 73.062 128.797 128.797l89.84 179.677zM438.461 421.366c21.674 43.347 56.826 78.499 100.176 100.173l93.811 46.906-46.906-93.808c-21.677-43.35-56.826-78.502-100.176-100.176l-93.811-46.906 46.906 93.811zM512 896c-247.424 0-448-200.576-448-448s200.576-448 448-448c247.424 0 448 200.576 448 448s-200.576 448-448 448zM128 448c0 212.077 171.923 384 384 384s384-171.923 384-384c0-212.077-171.923-384-384-384s-384 171.923-384 384z" />
<glyph unicode="&#xe962;" glyph-name="construction-market-garden-auto" data-tags="construction-market-garden-auto" d="M713.786 766.295c40.214-7.328 76.966-31.59 98.96-69.684 19.366-33.547 23.712-71.578 15.107-106.461-9.094-36.874-14.976-85.766 9.53-128.211l30.912-53.542c8.835-15.306 28.406-20.55 43.712-11.715 15.306 8.838 20.55 28.41 11.712 43.715l-30.912 53.542c-11.549 20.003-10.989 47.747-2.816 80.883 12.403 50.291 6.141 105.361-21.821 153.789-35.066 60.736-96.16 97.074-160.931 103.126-24.89 2.326-45.283-10.827-55.219-29.73-9.514-18.101-9.277-40.663 1.699-59.675l43.773-75.817-13.795-34.381-36.675 5.242-43.776 75.818c-10.976 19.012-30.397 30.497-50.829 31.309-21.338 0.848-42.925-10.239-53.357-32.956-27.146-59.12-26.224-130.2 8.845-190.936 27.958-48.429 72.518-81.389 122.275-95.792 32.781-9.488 57.088-22.877 68.637-42.88l124.224-215.162c8.838-15.306 28.41-20.55 43.715-11.715 15.306 8.838 20.547 28.41 11.712 43.715l-124.224 215.162c-24.506 42.445-69.789 61.795-106.269 72.358-34.515 9.99-65.277 32.768-84.646 66.314-21.994 38.096-24.627 82.054-10.867 120.545l46.915-81.255c4.912-8.509 13.459-14.288 23.184-15.68l76.947-10.998c14.602-2.086 28.736 6.074 34.227 19.76l28.95 72.14c3.658 9.117 2.925 19.41-1.987 27.918l-46.912 81.256zM344.704 544c-42.644 0-80.176-28.128-92.143-69.059l-17.234-58.941h180.679c17.674 0 32-14.326 32-32s-14.326-32-32-32h-191.999v-128c0-17.674 14.327-32 32-32h383.999c17.674 0 32 14.326 32 32v32c0 17.674 14.326 32 32 32s32-14.326 32-32v-32c0-41.798-26.714-77.357-64-90.538v-37.462c0-17.674-14.326-32-32-32s-32 14.326-32 32v32h-319.999v-32c0-17.674-14.327-32-32-32s-32 14.326-32 32v37.462c-37.286 13.181-64 48.739-64 90.538v140.224l-46.311 23.155c-15.807 7.904-22.215 27.126-14.311 42.931 7.904 15.808 27.125 22.214 42.932 14.31l30.273-15.136 18.543 63.418c19.945 68.218 82.498 115.098 153.571 115.098h39.302c17.674 0 32-14.326 32-32s-14.326-32-32-32h-39.302zM256.007 288c0 17.674 14.327 32 32 32h63.999c17.674 0 32-14.326 32-32s-14.326-32-32-32h-63.999c-17.673 0-32 14.326-32 32zM512.006 288c0 17.674 14.326 32 32 32h64c17.674 0 32-14.326 32-32s-14.326-32-32-32h-64c-17.674 0-32 14.326-32 32z" />
</font>
</defs>
</svg>
