<svg width="16" height="24" viewBox="0 0 16 24" fill="none" xmlns="http://www.w3.org/2000/svg">
<path d="M5.5 16C5.5 16.5523 5.05228 17 4.5 17C3.94772 17 3.5 16.5523 3.5 16H5.5ZM12.5 16C12.5 16.5523 12.0523 17 11.5 17C10.9477 17 10.5 16.5523 10.5 16H12.5ZM4.5 7H3.5C3.5 6.54823 3.8029 6.15256 4.23902 6.03466C4.67514 5.91675 5.13614 6.1059 5.36378 6.49613L4.5 7ZM8 13L8.86378 13.5039C8.68457 13.8111 8.35567 14 8 14C7.64433 14 7.31543 13.8111 7.13622 13.5039L8 13ZM11.5 7L10.6362 6.49613C10.8639 6.1059 11.3249 5.91675 11.761 6.03466C12.1971 6.15256 12.5 6.54823 12.5 7H11.5ZM3.5 16V11.5H5.5V16H3.5ZM5.5 7V11.5H3.5V7H5.5ZM7.13622 13.5039L3.63622 7.50387L5.36378 6.49613L8.86378 12.4961L7.13622 13.5039ZM10.5 16V7H12.5V16H10.5ZM12.3638 7.50387L8.86378 13.5039L7.13622 12.4961L10.6362 6.49613L12.3638 7.50387Z" fill="#FF6000"/>
</svg>
