<svg width="16" height="24" viewBox="0 0 16 24" fill="none" xmlns="http://www.w3.org/2000/svg">
<path d="M6.5 16C6.5 16.5523 6.05228 17 5.5 17C4.94772 17 4.5 16.5523 4.5 16H6.5ZM9.5 7C9.5 6.44772 9.94772 6 10.5 6C11.0523 6 11.5 6.44772 11.5 7H9.5ZM5.5 7H4.5C4.5 6.54433 4.80805 6.14627 5.24916 6.03197C5.69026 5.91767 6.15286 6.11603 6.37416 6.51436L5.5 7ZM10.5 16H11.5C11.5 16.4557 11.1919 16.8537 10.7508 16.968C10.3097 17.0823 9.84714 16.884 9.62584 16.4856L10.5 16ZM4.5 16V11.5H6.5V16H4.5ZM6.5 7V11.5H4.5V7H6.5ZM11.5 7V16H9.5V7H11.5ZM9.62584 16.4856L4.62584 7.48564L6.37416 6.51436L11.3742 15.5144L9.62584 16.4856Z" fill="#FF6000"/>
</svg>
