<svg width="16" height="24" viewBox="0 0 16 24" fill="none" xmlns="http://www.w3.org/2000/svg">
<path d="M10.5 8C11.0523 8 11.5 7.55228 11.5 7C11.5 6.44772 11.0523 6 10.5 6V8ZM5.5 7V6C4.94772 6 4.5 6.44772 4.5 7H5.5ZM10.5 17C11.0523 17 11.5 16.5523 11.5 16C11.5 15.4477 11.0523 15 10.5 15V17ZM9.5 12.5C10.0523 12.5 10.5 12.0523 10.5 11.5C10.5 10.9477 10.0523 10.5 9.5 10.5V12.5ZM5.5 16H4.5C4.5 16.5523 4.94772 17 5.5 17V16ZM10.5 6H5.5V8H10.5V6ZM4.5 7V11.5H6.5V7H4.5ZM5.5 12.5H9.5V10.5H5.5V12.5ZM10.5 15H5.5V17H10.5V15ZM6.5 16V11.5H4.5V16H6.5Z" fill="#FF6000"/>
</svg>
