<svg width="16" height="16" viewBox="0 0 16 16" fill="none" xmlns="http://www.w3.org/2000/svg">
<path d="M6 7L9 5M6 9L9 11M13 4C13 5.10457 12.1046 6 11 6C9.89543 6 9 5.10457 9 4C9 2.89543 9.89543 2 11 2C12.1046 2 13 2.89543 13 4ZM13 12C13 13.1046 12.1046 14 11 14C9.89543 14 9 13.1046 9 12C9 10.8954 9.89543 10 11 10C12.1046 10 13 10.8954 13 12ZM6 8C6 9.10457 5.10457 10 4 10C2.89543 10 2 9.10457 2 8C2 6.89543 2.89543 6 4 6C5.10457 6 6 6.89543 6 8Z" stroke="#FF6000" stroke-width="2" stroke-linecap="round"/>
</svg>
