<svg width="16" height="16" viewBox="0 0 16 16" fill="none" xmlns="http://www.w3.org/2000/svg">
<path d="M11.4999 8.00051C11.4999 9.93351 9.9329 11.5005 7.9999 11.5005M11.4999 8.00051C11.4999 6.0675 9.9329 4.50049 7.9999 4.50049M11.4999 8.00051L14 8M7.9999 11.5005C6.06689 11.5005 4.49988 9.93351 4.49988 8.00051M7.9999 11.5005L8 14M4.49988 8.00051C4.49988 6.0675 6.06689 4.50049 7.9999 4.50049M4.49988 8.00051L2 8M7.9999 4.50049L8 2M3.75737 3.75671L5.5 5.5M10.5 10.4995L12.2427 12.242M12.2427 3.75671L10.5 5.49937M5.49986 10.4995L3.75737 12.242" stroke="#FF6000" stroke-width="2" stroke-linecap="round" stroke-linejoin="round"/>
</svg>
