<svg width="16" height="16" viewBox="0 0 16 16" fill="none" xmlns="http://www.w3.org/2000/svg">
<path d="M14.01 14C14.5623 14 15.01 13.5523 15.01 13C15.01 12.4477 14.5623 12 14.01 12V14ZM14 12C13.4477 12 13 12.4477 13 13C13 13.5523 13.4477 14 14 14V12ZM12 4C12 3.44772 11.5523 3 11 3C10.4477 3 10 3.44772 10 4H12ZM5 4.17858C5 3.62629 4.55228 3.17858 4 3.17858C3.44772 3.17858 3 3.62629 3 4.17858H5ZM10 13C10 13.5523 10.4477 14 11 14C11.5523 14 12 13.5523 12 13H10ZM14.01 12H14V14H14.01V12ZM12 7V4H10V7H12ZM3 4.17858V7H5V4.17858H3ZM6 10H9V8H6V10ZM10 7C10 7.55228 9.55228 8 9 8V10C10.6569 10 12 8.65685 12 7H10ZM3 7C3 8.65686 4.34315 10 6 10V8C5.44771 8 5 7.55229 5 7H3ZM12 13V7H10V13H12Z" fill="#FF6000"/>
</svg>
