<svg width="16" height="16" viewBox="0 0 16 16" fill="none" xmlns="http://www.w3.org/2000/svg">
<path d="M14.01 14C14.5623 14 15.01 13.5523 15.01 13C15.01 12.4477 14.5623 12 14.01 12V14ZM14 12C13.4477 12 13 12.4477 13 13C13 13.5523 13.4477 14 14 14V12ZM4.5 12C3.94772 12 3.5 12.4477 3.5 13C3.5 13.5523 3.94772 14 4.5 14V12ZM14.01 12H14V14H14.01V12ZM12 10V9H10V10H12ZM11 8H6.5V10H11V8ZM4.5 14H8V12H4.5V14ZM6.5 5H9V3H6.5V5ZM12 9V6H10V9H12ZM9 5C9.55228 5 10 5.44772 10 6H12C12 4.34315 10.6569 3 9 3V5ZM5 6.5C5 5.67157 5.67157 5 6.5 5V3C4.567 3 3 4.567 3 6.5H5ZM6.5 8C5.67157 8 5 7.32843 5 6.5H3C3 8.433 4.567 10 6.5 10V8ZM10 10C10 11.1046 9.10457 12 8 12V14C10.2091 14 12 12.2091 12 10H10Z" fill="#FF6000"/>
</svg>
