<svg width="16" height="16" viewBox="0 0 16 16" fill="none" xmlns="http://www.w3.org/2000/svg">
<path d="M6.5 3C5.94772 3 5.5 3.44772 5.5 4C5.5 4.55228 5.94772 5 6.5 5V3ZM8 4H9C9 3.44772 8.55228 3 8 3V4ZM6 12C5.44772 12 5 12.4477 5 13C5 13.5523 5.44772 14 6 14V12ZM10 14C10.5523 14 11 13.5523 11 13C11 12.4477 10.5523 12 10 12V14ZM13 14C13.5523 14 14 13.5523 14 13C14 12.4477 13.5523 12 13 12V14ZM12.99 12C12.4377 12 11.99 12.4477 11.99 13C11.99 13.5523 12.4377 14 12.99 14V12ZM6.5 5H8V3H6.5V5ZM7 4V13H9V4H7ZM6 14H8V12H6V14ZM8 14H10V12H8V14ZM13 12H12.99V14H13V12Z" fill="#FF6000"/>
</svg>
