<svg width="16" height="16" viewBox="0 0 16 16" fill="none" xmlns="http://www.w3.org/2000/svg">
<path d="M14.01 14C14.5623 14 15.01 13.5523 15.01 13C15.01 12.4477 14.5623 12 14.01 12V14ZM14 12C13.4477 12 13 12.4477 13 13C13 13.5523 13.4477 14 14 14V12ZM10.5 5C11.0523 5 11.5 4.55228 11.5 4C11.5 3.44772 11.0523 3 10.5 3V5ZM14.01 12H14V14H14.01V12ZM3 7V8H5V7H3ZM4 9H8.5V7H4V9ZM10.5 3H7V5H10.5V3ZM8.5 12H6V14H8.5V12ZM3 8V11H5V8H3ZM6 12C5.44772 12 5 11.5523 5 11H3C3 12.6569 4.34315 14 6 14V12ZM10 10.5C10 11.3284 9.32843 12 8.5 12V14C10.433 14 12 12.433 12 10.5H10ZM8.5 9C9.32843 9 10 9.67157 10 10.5H12C12 8.567 10.433 7 8.5 7V9ZM5 7C5 5.89543 5.89543 5 7 5V3C4.79086 3 3 4.79086 3 7H5Z" fill="#FF6000"/>
</svg>
