<svg width="16" height="16" viewBox="0 0 16 16" fill="none" xmlns="http://www.w3.org/2000/svg">
<path d="M5.12586 12.5144C4.85764 12.9972 5.03159 13.606 5.51437 13.8742C5.99715 14.1424 6.60596 13.9685 6.87417 13.4857L5.12586 12.5144ZM11 4.00004L11.8742 4.48568C12.0462 4.17595 12.0416 3.79829 11.8619 3.49291C11.6822 3.18753 11.3543 3.00004 11 3.00004L11 4.00004ZM7.00001 7.50004C6.44773 7.50004 6.00001 7.94775 6.00001 8.50004C6.00001 9.05232 6.44773 9.50004 7.00001 9.50004V7.50004ZM10 9.50004C10.5523 9.50004 11 9.05232 11 8.50004C11 7.94775 10.5523 7.50004 10 7.50004V9.50004ZM4.00001 3C3.44772 3 3 3.44771 3 3.99999C3 4.55228 3.44771 5 3.99999 5L4.00001 3ZM12.01 14C12.5623 14 13.01 13.5523 13.01 13C13.01 12.4478 12.5623 12 12.01 12V14ZM12 12C11.4477 12 11 12.4478 11 13C11 13.5523 11.4477 14 12 14V12ZM6.87417 13.4857L9.37417 8.98568L7.62586 8.01439L5.12586 12.5144L6.87417 13.4857ZM9.37417 8.98568L11.8742 4.48568L10.1259 3.51439L7.62586 8.01439L9.37417 8.98568ZM7.00001 9.50004H8.50001V7.50004H7.00001V9.50004ZM8.50001 9.50004H10V7.50004H8.50001V9.50004ZM3.99999 5L11 5.00004L11 3.00004L4.00001 3L3.99999 5ZM12.01 12H12V14H12.01V12Z" fill="#FF6000"/>
</svg>
