<svg width="16" height="16" viewBox="0 0 16 16" fill="none" xmlns="http://www.w3.org/2000/svg">
<path d="M11.9972 9.37167L12.0826 10.368L12.0826 10.368L11.9972 9.37167ZM7.49991 6.8C7.49991 7.35228 7.94762 7.8 8.49991 7.8C9.05219 7.8 9.49991 7.35228 9.49991 6.8H7.49991ZM11.9972 9.62833L12.0826 8.63198L12.0826 8.63198L11.9972 9.62833ZM9.49991 12.2C9.49991 11.6477 9.05219 11.2 8.49991 11.2C7.94762 11.2 7.49991 11.6477 7.49991 12.2H9.49991ZM6.83205 8.5547C7.1384 8.09517 7.01423 7.4743 6.5547 7.16795C6.09517 6.8616 5.4743 6.98577 5.16795 7.4453L6.83205 8.5547ZM1.16795 13.4453C0.861597 13.9048 0.985771 14.5257 1.4453 14.8321C1.90483 15.1384 2.5257 15.0142 2.83205 14.5547L1.16795 13.4453ZM5.16795 14.5547C5.4743 15.0142 6.09517 15.1384 6.5547 14.8321C7.01423 14.5257 7.1384 13.9048 6.83205 13.4453L5.16795 14.5547ZM2.83205 7.4453C2.5257 6.98577 1.90483 6.8616 1.4453 7.16795C0.985771 7.4743 0.861597 8.09517 1.16795 8.5547L2.83205 7.4453ZM10.2999 6H11.8102V4H10.2999V6ZM13 7.18984C13 7.80758 12.5273 8.32257 11.9118 8.37533L12.0826 10.368C13.7326 10.2266 15 8.84594 15 7.18984H13ZM15 7.18984C15 5.42814 13.5719 4 11.8102 4V6C12.4673 6 13 6.53271 13 7.18984H15ZM9.49991 6.8C9.49991 6.35817 9.85808 6 10.2999 6V4C8.75351 4 7.49991 5.2536 7.49991 6.8H9.49991ZM10.2999 15H11.8102V13H10.2999V15ZM15 11.8102C15 10.1541 13.7326 8.77341 12.0826 8.63198L11.9118 10.6247C12.5273 10.6774 13 11.1924 13 11.8102H15ZM13 11.8102C13 12.4673 12.4673 13 11.8102 13V15C13.5719 15 15 13.5719 15 11.8102H13ZM7.49991 12.2C7.49991 13.7464 8.75351 15 10.2999 15V13C9.85808 13 9.49991 12.6418 9.49991 12.2H7.49991ZM11.9118 8.37533C10.5352 8.49331 10.5352 10.5067 11.9118 10.6247L12.0826 8.63198C13.145 8.72304 13.145 10.277 12.0826 10.368L11.9118 8.37533ZM5.16795 7.4453L3.16795 10.4453L4.83205 11.5547L6.83205 8.5547L5.16795 7.4453ZM3.16795 10.4453L1.16795 13.4453L2.83205 14.5547L4.83205 11.5547L3.16795 10.4453ZM6.83205 13.4453L4.83205 10.4453L3.16795 11.5547L5.16795 14.5547L6.83205 13.4453ZM4.83205 10.4453L2.83205 7.4453L1.16795 8.5547L3.16795 11.5547L4.83205 10.4453Z" fill="#FF6000"/>
</svg>
