<svg width="16" height="16" viewBox="0 0 16 16" fill="none" xmlns="http://www.w3.org/2000/svg">
<path d="M14.01 14C14.5623 14 15.01 13.5523 15.01 13C15.01 12.4477 14.5623 12 14.01 12V14ZM14 12C13.4477 12 13 12.4477 13 13C13 13.5523 13.4477 14 14 14V12ZM3 5.8C3 6.35228 3.44772 6.8 4 6.8C4.55228 6.8 5 6.35228 5 5.8H3ZM4 13H3C3 13.2652 3.10536 13.5196 3.29289 13.7071C3.48043 13.8946 3.73478 14 4 14L4 13ZM9.22347 8.65682L8.97443 7.68833L8.97443 7.68833L9.22347 8.65682ZM6.25288 9.42069L6.50192 10.3892L6.50192 10.3892L6.25288 9.42069ZM8.63432 4L8.63432 3L8.63432 4ZM5.8 4L5.8 5L5.8 4ZM11 14C11.5523 14 12 13.5523 12 13C12 12.4477 11.5523 12 11 12L11 14ZM14.01 12H14V14H14.01V12ZM3 12.3262V13H5V12.3262H3ZM8.97443 7.68833L6.00384 8.4522L6.50192 10.3892L9.47251 9.62532L8.97443 7.68833ZM5.8 5L8.63432 5L8.63432 3L5.8 3L5.8 5ZM10 6.36568C10 6.98893 9.57804 7.53312 8.97443 7.68833L9.47251 9.62532C10.9601 9.24279 12 7.90167 12 6.36568H10ZM5 12.3262C5 11.4134 5.61794 10.6165 6.50192 10.3892L6.00384 8.4522C4.23588 8.90681 3 10.5007 3 12.3262H5ZM12 6.36568C12 4.50687 10.4931 3 8.63432 3L8.63432 5C9.38856 5 10 5.61144 10 6.36568H12ZM5 5.8C5 5.35817 5.35817 5 5.8 5L5.8 3C4.2536 3 3 4.2536 3 5.8H5ZM4 14L11 14L11 12L4 12L4 14Z" fill="#FF6000"/>
</svg>
