<svg width="16" height="16" viewBox="0 0 16 16" fill="none" xmlns="http://www.w3.org/2000/svg">
<path d="M14.01 14C14.5623 14 15.01 13.5523 15.01 13C15.01 12.4477 14.5623 12 14.01 12V14ZM14 12C13.4477 12 13 12.4477 13 13C13 13.5523 13.4477 14 14 14V12ZM14.01 12H14V14H14.01V12ZM7 5H8V3H7V5ZM8 7H7V9H8V7ZM4 6C4 7.65685 5.34315 9 7 9V7C6.44772 7 6 6.55228 6 6H4ZM9 6C9 6.55228 8.55228 7 8 7V9C9.65685 9 11 7.65685 11 6H9ZM11 6C11 4.34315 9.65685 3 8 3V5C8.55228 5 9 5.44772 9 6H11ZM7 3C5.34315 3 4 4.34315 4 6H6C6 5.44772 6.44772 5 7 5V3ZM6.5 9H8.5V7H6.5V9ZM8.5 12H6.5V14H8.5V12ZM3 10.5C3 12.433 4.567 14 6.5 14V12C5.67157 12 5 11.3284 5 10.5H3ZM10 10.5C10 11.3284 9.32843 12 8.5 12V14C10.433 14 12 12.433 12 10.5H10ZM12 10.5C12 8.567 10.433 7 8.5 7V9C9.32843 9 10 9.67157 10 10.5H12ZM6.5 7C4.567 7 3 8.567 3 10.5H5C5 9.67157 5.67157 9 6.5 9V7Z" fill="#FF6000"/>
</svg>
