<svg width="16" height="16" viewBox="0 0 16 16" fill="none" xmlns="http://www.w3.org/2000/svg">
<path d="M5.86005 5.86005C6.05698 5.66312 6.05698 5.34384 5.86005 5.14691C5.66312 4.94998 5.34384 4.94998 5.14691 5.14691M5.86005 5.86005C5.66312 6.05698 5.34384 6.05698 5.14691 5.86005C4.94998 5.66312 4.94998 5.34384 5.14691 5.14691M5.86005 5.86005C5.74119 5.74119 5.43217 5.43217 5.14691 5.14691M2.15399 3.9987L2.01363 5.70305C1.91635 6.88432 2.34347 8.04861 3.18159 8.88672L7.99948 13.7046C8.39333 14.0985 9.0319 14.0985 9.42576 13.7046L13.7046 9.42576C14.0985 9.0319 14.0985 8.39333 13.7046 7.99948L8.88672 3.18159C8.04861 2.34347 6.88432 1.91635 5.70305 2.01363L3.9987 2.15399C3.01538 2.23496 2.23496 3.01538 2.15399 3.9987Z" stroke="#FF6000" stroke-width="2" stroke-linecap="round" stroke-linejoin="round"/>
</svg>
