<svg width="16" height="16" viewBox="0 0 16 16" fill="none" xmlns="http://www.w3.org/2000/svg">
<path d="M14.01 14C14.5623 14 15.01 13.5523 15.01 13C15.01 12.4477 14.5623 12 14.01 12V14ZM14 12C13.4477 12 13 12.4477 13 13C13 13.5523 13.4477 14 14 14V12ZM8.99718 8.37167L9.08258 9.36802L9.08258 9.36802L8.99718 8.37167ZM3 5.8C3 6.35228 3.44772 6.8 4 6.8C4.55228 6.8 5 6.35228 5 5.8H3ZM8.99718 8.62833L9.08258 7.63198L9.08258 7.63198L8.99718 8.62833ZM5 11.2C5 10.6477 4.55228 10.2 4 10.2C3.44772 10.2 3 10.6477 3 11.2H5ZM14.01 12H14V14H14.01V12ZM5.8 5H8.81016V3H5.8V5ZM10 6.18984C10 6.80758 9.52726 7.32257 8.91178 7.37533L9.08258 9.36802C10.7326 9.22659 12 7.84594 12 6.18984H10ZM12 6.18984C12 4.42814 10.5719 3 8.81016 3V5C9.46729 5 10 5.53271 10 6.18984H12ZM5 5.8C5 5.35817 5.35817 5 5.8 5V3C4.2536 3 3 4.2536 3 5.8H5ZM5.8 14H8.81016V12H5.8V14ZM12 10.8102C12 9.15406 10.7326 7.77341 9.08258 7.63198L8.91178 9.62467C9.52726 9.67743 10 10.1924 10 10.8102H12ZM10 10.8102C10 11.4673 9.46729 12 8.81016 12V14C10.5719 14 12 12.5719 12 10.8102H10ZM3 11.2C3 12.7464 4.2536 14 5.8 14V12C5.35817 12 5 11.6418 5 11.2H3ZM8.91178 7.37533C7.53524 7.49331 7.53524 9.50669 8.91178 9.62467L9.08258 7.63198C10.145 7.72304 10.145 9.27696 9.08258 9.36802L8.91178 7.37533Z" fill="#FF6000"/>
</svg>
