<svg width="16" height="16" viewBox="0 0 16 16" fill="none" xmlns="http://www.w3.org/2000/svg">
<path d="M13.5 6C14.0523 6 14.5 5.55228 14.5 5C14.5 4.44772 14.0523 4 13.5 4V6ZM6.83205 8.5547C7.1384 8.09517 7.01423 7.4743 6.5547 7.16795C6.09517 6.8616 5.4743 6.98577 5.16795 7.4453L6.83205 8.5547ZM1.16795 13.4453C0.861597 13.9048 0.985771 14.5257 1.4453 14.8321C1.90483 15.1384 2.5257 15.0142 2.83205 14.5547L1.16795 13.4453ZM5.16795 14.5547C5.4743 15.0142 6.09517 15.1384 6.5547 14.8321C7.01423 14.5257 7.1384 13.9048 6.83205 13.4453L5.16795 14.5547ZM2.83205 7.4453C2.5257 6.98577 1.90483 6.8616 1.4453 7.16795C0.985771 7.4743 0.861597 8.09517 1.16795 8.5547L2.83205 7.4453ZM7.5 8V9H9.5V8H7.5ZM8.5 10H11.5V8H8.5V10ZM13.5 4H11.5V6H13.5V4ZM11.5 13H10.5V15H11.5V13ZM7.5 9V12H9.5V9H7.5ZM10.5 13C9.94772 13 9.5 12.5523 9.5 12H7.5C7.5 13.6569 8.84315 15 10.5 15V13ZM13 11.5C13 12.3284 12.3284 13 11.5 13V15C13.433 15 15 13.433 15 11.5H13ZM11.5 10C12.3284 10 13 10.6716 13 11.5H15C15 9.567 13.433 8 11.5 8V10ZM9.5 8C9.5 6.89543 10.3954 6 11.5 6V4C9.29086 4 7.5 5.79086 7.5 8H9.5ZM5.16795 7.4453L3.16795 10.4453L4.83205 11.5547L6.83205 8.5547L5.16795 7.4453ZM3.16795 10.4453L1.16795 13.4453L2.83205 14.5547L4.83205 11.5547L3.16795 10.4453ZM6.83205 13.4453L4.83205 10.4453L3.16795 11.5547L5.16795 14.5547L6.83205 13.4453ZM4.83205 10.4453L2.83205 7.4453L1.16795 8.5547L3.16795 11.5547L4.83205 10.4453Z" fill="#FF6000"/>
</svg>
