<svg width="24" height="24" viewBox="0 0 24 24" fill="none" xmlns="http://www.w3.org/2000/svg">
<g clip-path="url(#clip0_302_11)">
<path d="M12 12C12 11.1159 12.3687 10.2681 13.0251 9.64297C13.6815 9.01785 14.5717 8.66666 15.5 8.66666C16.4283 8.66666 17.3185 9.01785 17.9749 9.64297C18.6313 10.2681 19 11.1159 19 12C19 12.884 18.6313 13.7319 17.9749 14.357C17.3185 14.9821 16.4283 15.3333 15.5 15.3333C14.5717 15.3333 13.6815 14.9821 13.0251 14.357C12.3687 13.7319 12 12.884 12 12V12Z" fill="#1ABCFE"/>
<path d="M5 18.6667C5 17.7826 5.36875 16.9348 6.02513 16.3097C6.6815 15.6845 7.57174 15.3333 8.5 15.3333H12V18.6667C12 19.5507 11.6313 20.3986 10.9749 21.0237C10.3185 21.6488 9.42826 22 8.5 22C7.57174 22 6.6815 21.6488 6.02513 21.0237C5.36875 20.3986 5 19.5507 5 18.6667V18.6667Z" fill="#0ACF83"/>
<path d="M12 2V8.66667H15.5C16.4283 8.66667 17.3185 8.31548 17.9749 7.69036C18.6313 7.06523 19 6.21739 19 5.33333C19 4.44928 18.6313 3.60143 17.9749 2.97631C17.3185 2.35119 16.4283 2 15.5 2L12 2Z" fill="#FF7262"/>
<path d="M5 5.33333C5 6.21739 5.36875 7.06523 6.02513 7.69036C6.6815 8.31548 7.57174 8.66667 8.5 8.66667H12V2H8.5C7.57174 2 6.6815 2.35119 6.02513 2.97631C5.36875 3.60143 5 4.44928 5 5.33333V5.33333Z" fill="#F24E1E"/>
<path d="M5 12C5 12.884 5.36875 13.7319 6.02513 14.357C6.6815 14.9821 7.57174 15.3333 8.5 15.3333H12V8.66666H8.5C7.57174 8.66666 6.6815 9.01785 6.02513 9.64297C5.36875 10.2681 5 11.1159 5 12V12Z" fill="#A259FF"/>
</g>
<defs>
<clipPath id="clip0_302_11">
<rect width="14" height="20" fill="white" transform="translate(5 2)"/>
</clipPath>
</defs>
</svg>
