<svg width="64" height="64" viewBox="0 0 64 64" fill="none" xmlns="http://www.w3.org/2000/svg">
<g clip-path="url(#clip0_155_75024)">
<path d="M25.4577 43.5933C25.4577 43.5931 25.4576 43.5934 25.4577 43.5933L19.4659 33.5169C18.9439 32.639 19.2139 31.5053 20.0756 30.957L21.9932 30.0516C21.9972 30.0508 22.0012 30.05 22.0052 30.0493L21.817 29.3109C21.5644 28.3201 22.1458 27.3081 23.1289 27.0272L25.6842 26.2972C26.6471 21.7619 30.5654 18.3984 35.2387 18.3984C40.6115 18.3984 44.9836 22.8823 44.9836 28.473C44.977 33.9831 40.6181 38.4477 35.2388 38.4535H32.9117V35.0842C32.9117 34.5576 33.3289 34.1301 33.8432 34.1301H35.2388C36.7084 34.1469 38.1221 33.5565 39.1607 32.4924C40.1994 31.4284 40.7764 29.9814 40.7607 28.4764C40.7607 25.27 38.3034 22.7311 35.2387 22.7311C32.1748 22.7311 29.6805 25.2523 29.6805 28.4369L29.6805 43.5933H25.4577Z" fill="#F7F2FD"/>
<path d="M25.4573 43.5933H29.6802L29.6802 28.4369C29.6802 25.2523 32.1745 22.7311 35.2384 22.7311C38.3031 22.7311 40.7604 25.27 40.7604 28.4764C40.7761 29.9814 40.1991 31.4284 39.1604 32.4924C38.1218 33.5565 36.7081 34.1469 35.2385 34.1301H33.8429C33.3286 34.1301 32.9114 34.5576 32.9114 35.0842V38.4535H35.2385C40.6178 38.4477 44.9767 33.9831 44.9833 28.473C44.9833 22.8823 40.6112 18.3984 35.2384 18.3984C29.8451 18.3984 25.4573 22.8781 25.4573 28.4688V43.5933ZM25.4573 43.5933L25.4573 28.4765C25.4573 27.8466 25.4573 27.2167 25.6904 26.2953L23.1286 27.0272C22.1455 27.3081 21.5641 28.3201 21.8167 29.3109L25.4573 43.5933ZM25.4573 43.5933L21.993 30.0516L20.0753 30.957C19.2136 31.5053 18.9436 32.639 19.4656 33.5169L25.4573 43.5933ZM61.5999 31.9984C61.5999 48.3461 48.3475 61.5984 31.9999 61.5984C15.6523 61.5984 2.3999 48.3461 2.3999 31.9984C2.3999 15.6508 15.6523 2.39844 31.9999 2.39844C48.3475 2.39844 61.5999 15.6508 61.5999 31.9984Z" stroke="#7723DB" stroke-width="1.6" stroke-linecap="round" stroke-linejoin="round"/>
</g>
<defs>
<clipPath id="clip0_155_75024">
<rect width="64" height="64" fill="white"/>
</clipPath>
</defs>
</svg>
