<svg width="64" height="64" viewBox="0 0 64 64" fill="none" xmlns="http://www.w3.org/2000/svg">
<g clip-path="url(#clip0_155_74908)">
<path d="M32.0002 36.7992C36.8603 36.7992 40.8002 32.8593 40.8002 27.9992C40.8002 23.1391 36.8603 19.1992 32.0002 19.1992C27.1401 19.1992 23.2002 23.1391 23.2002 27.9992C23.2002 32.8593 27.1401 36.7992 32.0002 36.7992Z" fill="#FFEDE0"/>
<path d="M31.9999 36.8016C36.86 36.8016 40.7999 32.8617 40.7999 28.0016C40.7999 23.1415 36.86 19.2016 31.9999 19.2016C27.1398 19.2016 23.1999 23.1415 23.1999 28.0016C23.1999 32.8617 27.1398 36.8016 31.9999 36.8016Z" stroke="#FF6000" stroke-width="1.6" stroke-linecap="round" stroke-linejoin="round"/>
<path d="M35.2225 56.9314C33.5049 58.8915 30.4948 58.8916 28.7771 56.9317L16.5343 42.9626C12.7327 39.0021 10.3999 33.5673 10.3999 27.6045C10.3999 15.4589 20.0767 5.60156 31.9999 5.60156C43.9231 5.60156 53.5999 15.4589 53.5999 27.6045C53.5999 33.5893 51.2671 39.0021 47.4439 42.9846L35.2225 56.9314Z" stroke="#FF6000" stroke-width="1.6" stroke-linecap="round" stroke-linejoin="round"/>
</g>
<defs>
<clipPath id="clip0_155_74908">
<rect width="64" height="64" fill="white"/>
</clipPath>
</defs>
</svg>
