<svg width="64" height="64" viewBox="0 0 64 64" fill="none" xmlns="http://www.w3.org/2000/svg">
<g clip-path="url(#clip0_155_74954)">
<path fill-rule="evenodd" clip-rule="evenodd" d="M36.5543 58.3198C50.436 53.3294 56.8002 51.0416 56.8002 12.2353C49.0502 5.64706 32.0002 4 32.0002 4C32.0002 4 14.9502 5.64706 7.2002 12.2353C7.2002 51.0416 13.5644 53.3294 27.4461 58.3198C28.8831 58.8364 30.4007 59.382 32.0002 60C33.5996 59.382 35.1172 58.8364 36.5543 58.3198ZM35.5259 53.0558C46.2731 49.0636 51.2002 47.2333 51.2002 16.1882C45.2002 10.9176 32.0002 9.6 32.0002 9.6C32.0002 9.6 18.8002 10.9176 12.8002 16.1882C12.8002 47.2333 17.7273 49.0636 28.4744 53.0558C29.587 53.4691 30.7619 53.9056 32.0002 54.4C33.2385 53.9056 34.4134 53.4691 35.5259 53.0558Z" fill="#E6F3EE"/>
<path d="M56.8002 12.2353H57.6002C57.6002 12.0006 57.4971 11.7778 57.3183 11.6258L56.8002 12.2353ZM36.5543 58.3198L36.8249 59.0726L36.8249 59.0726L36.5543 58.3198ZM32.0002 4L32.0771 3.20371C32.026 3.19876 31.9744 3.19876 31.9233 3.20371L32.0002 4ZM7.2002 12.2353L6.68204 11.6258C6.50324 11.7778 6.4002 12.0006 6.4002 12.2353H7.2002ZM27.4461 58.3198L27.1755 59.0726L27.1755 59.0726L27.4461 58.3198ZM32.0002 60L31.7118 60.7462C31.8974 60.8179 32.103 60.8179 32.2885 60.7462L32.0002 60ZM51.2002 16.1882H52.0002C52.0002 15.9581 51.9011 15.7391 51.7282 15.5872L51.2002 16.1882ZM35.5259 53.0558L35.8045 53.8058L35.8045 53.8058L35.5259 53.0558ZM32.0002 9.6L32.0797 8.80396C32.0268 8.79868 31.9736 8.79868 31.9207 8.80396L32.0002 9.6ZM12.8002 16.1882L12.2722 15.5872C12.0993 15.7391 12.0002 15.9581 12.0002 16.1882H12.8002ZM28.4744 53.0558L28.753 52.3059L28.753 52.3059L28.4744 53.0558ZM32.0002 54.4L31.7035 55.143C31.894 55.219 32.1064 55.219 32.2969 55.143L32.0002 54.4ZM37.8089 36.682C37.8089 37.1238 38.1671 37.482 38.6089 37.482C39.0507 37.482 39.4089 37.1238 39.4089 36.682H37.8089ZM38.6089 31.3767V30.5767C38.1671 30.5767 37.8089 30.9349 37.8089 31.3767H38.6089ZM40.9401 33.6007C40.7065 33.2256 40.2132 33.111 39.8381 33.3445C39.4631 33.5781 39.3484 34.0715 39.582 34.4465L40.9401 33.6007ZM41.2342 37.0992C41.4678 37.4742 41.9611 37.5889 42.3362 37.3553C42.7112 37.1217 42.8259 36.6283 42.5923 36.2533L41.2342 37.0992ZM33.4611 31.3767C33.4611 30.9349 33.1029 30.5767 32.6611 30.5767C32.2192 30.5767 31.8611 30.9349 31.8611 31.3767H33.4611ZM37.4263 31.3767C37.4263 30.9349 37.0681 30.5767 36.6263 30.5767C36.1845 30.5767 35.8263 30.9349 35.8263 31.3767H37.4263ZM31.6524 35.3263C31.6524 34.8845 31.2942 34.5263 30.8524 34.5263C30.4105 34.5263 30.0524 34.8845 30.0524 35.3263H31.6524ZM30.0524 32.6737C30.0524 33.1155 30.4105 33.4737 30.8524 33.4737C31.2942 33.4737 31.6524 33.1155 31.6524 32.6737H30.0524ZM47.2002 32.1767C47.642 32.1767 48.0002 31.8186 48.0002 31.3767C48.0002 30.9349 47.642 30.5767 47.2002 30.5767V32.1767ZM43.8958 31.3767V30.5767C43.454 30.5767 43.0958 30.9349 43.0958 31.3767H43.8958ZM46.5393 34.8294C46.9812 34.8294 47.3393 34.4712 47.3393 34.0294C47.3393 33.5875 46.9812 33.2294 46.5393 33.2294V34.8294ZM47.2002 37.482C47.642 37.482 48.0002 37.1238 48.0002 36.682C48.0002 36.2402 47.642 35.882 47.2002 35.882V37.482ZM43.8958 36.682H43.0958C43.0958 37.1238 43.454 37.482 43.8958 37.482V36.682ZM25.8437 32.1767C26.2855 32.1767 26.6437 31.8186 26.6437 31.3767C26.6437 30.9349 26.2855 30.5767 25.8437 30.5767V32.1767ZM22.5393 31.3767V30.5767C22.0975 30.5767 21.7393 30.9349 21.7393 31.3767H22.5393ZM25.1828 34.8294C25.6246 34.8294 25.9828 34.4712 25.9828 34.0294C25.9828 33.5875 25.6246 33.2294 25.1828 33.2294V34.8294ZM25.8437 37.482C26.2855 37.482 26.6437 37.1238 26.6437 36.682C26.6437 36.2402 26.2855 35.882 25.8437 35.882V37.482ZM22.5393 36.682H21.7393C21.7393 37.1238 22.0975 37.482 22.5393 37.482V36.682ZM17.6002 35.503C17.6002 35.0612 17.242 34.703 16.8002 34.703C16.3584 34.703 16.0002 35.0612 16.0002 35.503H17.6002ZM19.9654 32.5557C19.9654 32.9975 20.3236 33.3557 20.7654 33.3557C21.2072 33.3557 21.5654 32.9975 21.5654 32.5557H19.9654ZM33.5228 19.2V18.4C33.0809 18.4 32.7228 18.7582 32.7228 19.2H33.5228ZM33.5228 28H32.7228C32.7228 28.4418 33.0809 28.8 33.5228 28.8V28ZM28.9263 23.4745L28.991 24.2719L28.991 24.2719L28.9263 23.4745ZM24.0002 20.96C24.0002 21.4018 24.3584 21.76 24.8002 21.76C25.242 21.76 25.6002 21.4018 25.6002 20.96H24.0002ZM28.9263 23.7255L28.991 22.9281L28.991 22.9281L28.9263 23.7255ZM25.6002 26.24C25.6002 25.7982 25.242 25.44 24.8002 25.44C24.3584 25.44 24.0002 25.7982 24.0002 26.24H25.6002ZM56.0002 12.2353C56.0002 31.6518 54.3972 41.7282 51.182 47.5729C48.021 53.3189 43.2605 55.0588 36.2837 57.567L36.8249 59.0726C43.7298 56.5904 49.0922 54.6912 52.5838 48.3441C56.0211 42.0957 57.6002 31.625 57.6002 12.2353H56.0002ZM32.0002 4C31.9233 4.79629 31.9232 4.79629 31.9232 4.79629C31.9233 4.79629 31.9233 4.7963 31.9235 4.79632C31.9239 4.79635 31.9245 4.79641 31.9253 4.79649C31.927 4.79666 31.9298 4.79693 31.9335 4.7973C31.941 4.79805 31.9526 4.79921 31.9681 4.80079C31.9991 4.80396 32.0459 4.80882 32.1078 4.81549C32.2315 4.82883 32.4151 4.84937 32.6524 4.87791C33.127 4.935 33.8156 5.02406 34.6669 5.15148C36.3705 5.40644 38.7213 5.81433 41.3101 6.42565C46.5261 7.65734 52.5625 9.68282 56.282 12.8448L57.3183 11.6258C53.2879 8.19953 46.9243 6.10737 41.6778 4.86847C39.0353 4.24449 36.6393 3.82885 34.9038 3.56911C34.0356 3.43917 33.3316 3.34809 32.8435 3.28937C32.5994 3.26 32.4092 3.23872 32.2793 3.22472C32.2144 3.21772 32.1646 3.21253 32.1306 3.20906C32.1136 3.20733 32.1006 3.20602 32.0916 3.20513C32.0872 3.20469 32.0837 3.20435 32.0813 3.20411C32.0801 3.20399 32.0791 3.2039 32.0784 3.20383C32.0781 3.2038 32.0778 3.20377 32.0776 3.20375C32.0773 3.20373 32.0771 3.20371 32.0002 4ZM7.71835 12.8448C11.4379 9.68282 17.4743 7.65734 22.6903 6.42565C25.2791 5.81433 27.6299 5.40644 29.3335 5.15148C30.1848 5.02406 30.8734 4.935 31.348 4.87791C31.5852 4.84937 31.7689 4.82883 31.8926 4.81549C31.9544 4.80882 32.0013 4.80396 32.0323 4.80079C32.0478 4.79921 32.0594 4.79805 32.0669 4.7973C32.0706 4.79693 32.0734 4.79666 32.0751 4.79649C32.0759 4.79641 32.0765 4.79635 32.0769 4.79632C32.077 4.7963 32.0771 4.79629 32.0772 4.79629C32.0772 4.79629 32.0771 4.79629 32.0002 4C31.9233 3.20371 31.9231 3.20373 31.9228 3.20375C31.9226 3.20377 31.9223 3.2038 31.922 3.20383C31.9213 3.2039 31.9203 3.20399 31.9191 3.20411C31.9167 3.20435 31.9132 3.20469 31.9087 3.20513C31.8998 3.20602 31.8868 3.20733 31.8698 3.20906C31.8358 3.21253 31.786 3.21772 31.721 3.22472C31.5912 3.23872 31.401 3.26 31.1569 3.28937C30.6688 3.34809 29.9648 3.43917 29.0966 3.56911C27.3611 3.82885 24.965 4.24449 22.3226 4.86847C17.0761 6.10737 10.7125 8.19953 6.68204 11.6258L7.71835 12.8448ZM27.7167 57.567C20.7399 55.0588 15.9793 53.3189 12.8184 47.5729C9.60321 41.7282 8.0002 31.6518 8.0002 12.2353H6.4002C6.4002 31.625 7.97926 42.0957 11.4166 48.3441C14.9082 54.6912 20.2706 56.5904 27.1755 59.0726L27.7167 57.567ZM32.2885 59.2538C30.679 58.6318 29.1528 58.0832 27.7167 57.567L27.1755 59.0726C28.6135 59.5896 30.1225 60.1321 31.7118 60.7462L32.2885 59.2538ZM36.2837 57.567C34.8476 58.0832 33.3214 58.6318 31.7118 59.2538L32.2885 60.7462C33.8779 60.1321 35.3869 59.5896 36.8249 59.0726L36.2837 57.567ZM50.4002 16.1882C50.4002 31.7246 49.1569 39.7516 46.6871 44.3909C44.273 48.9256 40.6523 50.2981 35.2474 52.3059L35.8045 53.8058C41.1468 51.8213 45.3632 50.2825 48.0994 45.1428C50.78 40.1076 52.0002 31.6969 52.0002 16.1882H50.4002ZM32.0002 9.6C31.9207 10.396 31.9206 10.396 31.9206 10.396C31.9207 10.396 31.9207 10.396 31.9208 10.396C31.921 10.3961 31.9214 10.3961 31.922 10.3962C31.9233 10.3963 31.9253 10.3965 31.9281 10.3968C31.9337 10.3974 31.9425 10.3983 31.9543 10.3995C31.978 10.402 32.0138 10.4059 32.0613 10.4112C32.1562 10.4217 32.2976 10.4381 32.4804 10.4608C32.8461 10.5063 33.3772 10.5772 34.0342 10.6788C35.3489 10.8822 37.1631 11.2075 39.1606 11.6948C43.1933 12.6789 47.8277 14.2906 50.6722 16.7893L51.7282 15.5872C48.5726 12.8153 43.6071 11.1329 39.5398 10.1404C37.4873 9.6396 35.6264 9.30607 34.2787 9.09763C33.6044 8.99335 33.0574 8.92022 32.6778 8.87302C32.4879 8.84942 32.3398 8.8323 32.2385 8.82101C32.1878 8.81536 32.1488 8.81117 32.1222 8.80836C32.1088 8.80695 32.0986 8.80588 32.0915 8.80515C32.0879 8.80479 32.0851 8.80451 32.0832 8.80431C32.0822 8.80421 32.0814 8.80413 32.0808 8.80407C32.0805 8.80404 32.0802 8.80401 32.0801 8.804C32.0798 8.80397 32.0797 8.80396 32.0002 9.6ZM13.3282 16.7893C16.1726 14.2906 20.8071 12.6789 24.8398 11.6948C26.8373 11.2075 28.6514 10.8822 29.9662 10.6788C30.6232 10.5772 31.1543 10.5063 31.52 10.4608C31.7028 10.4381 31.8441 10.4217 31.9391 10.4112C31.9866 10.4059 32.0224 10.402 32.0461 10.3995C32.0579 10.3983 32.0666 10.3974 32.0723 10.3968C32.0751 10.3965 32.0771 10.3963 32.0783 10.3962C32.079 10.3961 32.0794 10.3961 32.0796 10.396C32.0797 10.396 32.0797 10.396 32.0798 10.396C32.0797 10.396 32.0797 10.396 32.0002 9.6C31.9207 8.80396 31.9205 8.80397 31.9203 8.804C31.9202 8.80401 31.9199 8.80404 31.9196 8.80407C31.919 8.80413 31.9182 8.80421 31.9172 8.80431C31.9153 8.80451 31.9125 8.80479 31.9089 8.80515C31.9018 8.80588 31.8916 8.80695 31.8782 8.80836C31.8515 8.81117 31.8126 8.81536 31.7619 8.82101C31.6605 8.8323 31.5125 8.84942 31.3226 8.87302C30.9429 8.92022 30.396 8.99335 29.7217 9.09763C28.3739 9.30607 26.5131 9.6396 24.4606 10.1404C20.3933 11.1329 15.4277 12.8153 12.2722 15.5872L13.3282 16.7893ZM28.753 52.3059C23.3481 50.2981 19.7274 48.9256 17.3133 44.3909C14.8435 39.7516 13.6002 31.7246 13.6002 16.1882H12.0002C12.0002 31.6969 13.2204 40.1076 15.901 45.1428C18.6372 50.2825 22.8536 51.8213 28.1959 53.8058L28.753 52.3059ZM32.2969 53.657C31.0483 53.1585 29.8646 52.7188 28.753 52.3059L28.1959 53.8058C29.3094 54.2194 30.4756 54.6526 31.7035 55.143L32.2969 53.657ZM35.2474 52.3059C34.1358 52.7188 32.9521 53.1585 31.7035 53.657L32.2969 55.143C33.5248 54.6526 34.691 54.2194 35.8045 53.8058L35.2474 52.3059ZM39.4089 36.682V34.0294H37.8089V36.682H39.4089ZM40.4263 30.5767H38.6089V32.1767H40.4263V30.5767ZM37.8089 31.3767V34.0294H39.4089V31.3767H37.8089ZM40.4263 33.2294H38.6089V34.8294H40.4263V33.2294ZM40.4263 34.8294C41.6009 34.8294 42.7132 33.9609 42.7132 32.703H41.1132C41.1132 32.9102 40.8941 33.2294 40.4263 33.2294V34.8294ZM40.4263 32.1767C40.8941 32.1767 41.1132 32.4959 41.1132 32.703H42.7132C42.7132 31.4452 41.6009 30.5767 40.4263 30.5767V32.1767ZM39.582 34.4465L41.2342 37.0992L42.5923 36.2533L40.9401 33.6007L39.582 34.4465ZM31.8611 31.3767V35.0316H33.4611V31.3767H31.8611ZM37.4263 35.0316V31.3767H35.8263V35.0316H37.4263ZM34.6437 37.6C36.092 37.6 37.4263 36.5336 37.4263 35.0316H35.8263C35.8263 35.4829 35.3853 36 34.6437 36V37.6ZM31.8611 35.0316C31.8611 36.5336 33.1953 37.6 34.6437 37.6V36C33.9021 36 33.4611 35.4829 33.4611 35.0316H31.8611ZM29.2002 30.4H29.035V32H29.2002V30.4ZM26.4176 32.8211V35.1789H28.0176V32.8211H26.4176ZM29.035 37.6H29.2002V36H29.035V37.6ZM29.2002 37.6C30.466 37.6 31.6524 36.6656 31.6524 35.3263H30.0524C30.0524 35.6148 29.7593 36 29.2002 36V37.6ZM26.4176 35.1789C26.4176 36.5996 27.6779 37.6 29.035 37.6V36C28.3846 36 28.0176 35.5489 28.0176 35.1789H26.4176ZM29.035 30.4C27.6779 30.4 26.4176 31.4004 26.4176 32.8211H28.0176C28.0176 32.4511 28.3846 32 29.035 32V30.4ZM31.6524 32.6737C31.6524 31.3344 30.466 30.4 29.2002 30.4V32C29.7593 32 30.0524 32.3852 30.0524 32.6737H31.6524ZM47.2002 30.5767H43.8958V32.1767H47.2002V30.5767ZM43.0958 31.3767V34.0294H44.6958V31.3767H43.0958ZM43.8958 34.8294H46.5393V33.2294H43.8958V34.8294ZM47.2002 35.882H43.8958V37.482H47.2002V35.882ZM44.6958 36.682V34.0294H43.0958V36.682H44.6958ZM25.8437 30.5767H22.5393V32.1767H25.8437V30.5767ZM21.7393 31.3767V34.0294H23.3393V31.3767H21.7393ZM22.5393 34.8294H25.1828V33.2294H22.5393V34.8294ZM25.8437 35.882H22.5393V37.482H25.8437V35.882ZM23.3393 36.682V34.0294H21.7393V36.682H23.3393ZM19.4437 30.5767H18.2872V32.1767H19.4437V30.5767ZM18.2872 34.8294H19.2785V33.2294H18.2872V34.8294ZM19.2785 35.882H18.1219V37.482H19.2785V35.882ZM18.1219 35.882C17.7453 35.882 17.6002 35.6288 17.6002 35.503H16.0002C16.0002 36.6795 17.0386 37.482 18.1219 37.482V35.882ZM19.9654 35.3557C19.9654 35.5628 19.7463 35.882 19.2785 35.882V37.482C20.4531 37.482 21.5654 36.6135 21.5654 35.3557H19.9654ZM19.2785 34.8294C19.7463 34.8294 19.9654 35.1485 19.9654 35.3557H21.5654C21.5654 34.0978 20.4531 33.2294 19.2785 33.2294V34.8294ZM16.0002 32.703C16.0002 33.9609 17.1126 34.8294 18.2872 34.8294V33.2294C17.8193 33.2294 17.6002 32.9102 17.6002 32.703H16.0002ZM18.2872 30.5767C17.1126 30.5767 16.0002 31.4452 16.0002 32.703H17.6002C17.6002 32.4959 17.8193 32.1767 18.2872 32.1767V30.5767ZM21.5654 32.5557C21.5654 31.3792 20.527 30.5767 19.4437 30.5767V32.1767C19.8203 32.1767 19.9654 32.4299 19.9654 32.5557H21.5654ZM36.1034 18.4H33.5228V20H36.1034V18.4ZM32.7228 19.2V28H34.3228V19.2H32.7228ZM38.4002 22.1333V25.0667H40.0002V22.1333H38.4002ZM36.1034 27.2H33.5228V28.8H36.1034V27.2ZM38.4002 25.0667C38.4002 26.2046 37.4133 27.2 36.1034 27.2V28.8C38.2141 28.8 40.0002 27.1688 40.0002 25.0667H38.4002ZM36.1034 20C37.4133 20 38.4002 20.9954 38.4002 22.1333H40.0002C40.0002 20.0312 38.2141 18.4 36.1034 18.4V20ZM26.6583 20H28.7333V18.4H26.6583V20ZM30.1937 21.3412C30.1937 22.0006 29.6519 22.613 28.8616 22.6771L28.991 24.2719C30.5394 24.1462 31.7937 22.9051 31.7937 21.3412H30.1937ZM31.7937 21.3412C31.7937 19.6765 30.3821 18.4 28.7333 18.4V20C29.5813 20 30.1937 20.6408 30.1937 21.3412H31.7937ZM25.6002 20.96C25.6002 20.4701 26.0325 20 26.6583 20V18.4C25.2317 18.4 24.0002 19.5058 24.0002 20.96H25.6002ZM26.6583 28.8H28.7333V27.2H26.6583V28.8ZM31.7937 25.8588C31.7937 24.2949 30.5394 23.0538 28.991 22.9281L28.8616 24.5229C29.6519 24.587 30.1937 25.1994 30.1937 25.8588H31.7937ZM30.1937 25.8588C30.1937 26.5592 29.5813 27.2 28.7333 27.2V28.8C30.3821 28.8 31.7937 27.5235 31.7937 25.8588H30.1937ZM24.0002 26.24C24.0002 27.6942 25.2317 28.8 26.6583 28.8V27.2C26.0325 27.2 25.6002 26.7299 25.6002 26.24H24.0002ZM28.8616 22.6771C27.7191 22.7699 27.7191 24.4301 28.8616 24.5229L28.991 22.9281C29.8093 22.9945 29.8093 24.2055 28.991 24.2719L28.8616 22.6771Z" fill="#008450"/>
</g>
<defs>
<clipPath id="clip0_155_74954">
<rect width="64" height="64" fill="white"/>
</clipPath>
</defs>
</svg>
