<svg width="64" height="64" viewBox="0 0 64 64" fill="none" xmlns="http://www.w3.org/2000/svg">
<g clip-path="url(#clip0_155_74984)">
<path d="M29.7014 8.09451C30.4234 5.83423 33.574 5.83269 34.2981 8.09226L38.872 22.365C39.1957 23.3751 40.1233 24.0588 41.17 24.0588H55.979C58.3193 24.0588 59.293 27.0974 57.4003 28.4943L45.4251 37.3325C44.5788 37.9571 44.2249 39.0634 44.5482 40.0734L49.1273 54.3774C49.8505 56.6365 47.3028 58.5151 45.409 57.1192L33.4174 48.2798C32.5701 47.6553 31.4229 47.6556 30.576 48.2807L18.6114 57.1111C16.7178 58.5086 14.1685 56.63 14.8919 54.3702L19.4684 40.0744C19.7918 39.064 19.4373 37.9571 18.5903 37.3327L6.60104 28.4951C4.70698 27.099 5.68017 24.0588 8.02116 24.0588H22.8451C23.8926 24.0588 24.8208 23.374 25.1438 22.3628L29.7014 8.09451Z" fill="#FFD033"/>
<path d="M29.7014 8.09451C30.4234 5.83423 33.574 5.83269 34.2981 8.09226L38.872 22.365C39.1957 23.3751 40.1233 24.0588 41.17 24.0588H55.979C58.3193 24.0588 59.293 27.0974 57.4003 28.4943L45.4251 37.3325C44.5788 37.9571 44.2249 39.0634 44.5482 40.0734L49.1273 54.3774C49.8505 56.6365 47.3028 58.5151 45.409 57.1192L33.4174 48.2798C32.5701 47.6553 31.4229 47.6556 30.576 48.2807L18.6114 57.1111C16.7178 58.5086 14.1685 56.63 14.8919 54.3702L19.4684 40.0744C19.7918 39.064 19.4373 37.9571 18.5903 37.3327L6.60104 28.4951C4.70698 27.099 5.68017 24.0588 8.02116 24.0588H22.8451C23.8926 24.0588 24.8208 23.374 25.1438 22.3628L29.7014 8.09451Z" stroke="#FFC400" stroke-width="1.6" stroke-linecap="round" stroke-linejoin="round"/>
</g>
<defs>
<clipPath id="clip0_155_74984">
<rect width="64" height="64" fill="white"/>
</clipPath>
</defs>
</svg>
