<svg width="64" height="64" viewBox="0 0 64 64" fill="none" xmlns="http://www.w3.org/2000/svg">
<g clip-path="url(#clip0_155_74944)">
<path fill-rule="evenodd" clip-rule="evenodd" d="M43.5262 23.6704C44.1523 24.3043 44.1587 25.3386 43.5405 25.9806L29.5621 40.3134C29.2627 40.6243 28.8544 40.7992 28.4284 40.7992C28.0023 40.7992 27.594 40.6243 27.2947 40.3134L20.4595 33.3049C19.8413 32.6629 19.8476 31.6286 20.4738 30.9947C21.0999 30.3607 22.1086 30.3673 22.7269 31.0093L28.4284 36.8406L41.2731 23.685C41.8913 23.043 42.9001 23.0365 43.5262 23.6704Z" fill="#E6F3EE"/>
<path d="M31.9999 61.5984C48.3475 61.5984 61.5999 48.3461 61.5999 31.9984C61.5999 15.6508 48.3475 2.39844 31.9999 2.39844C15.6523 2.39844 2.3999 15.6508 2.3999 31.9984C2.3999 48.3461 15.6523 61.5984 31.9999 61.5984Z" stroke="#008450" stroke-width="1.6" stroke-linecap="round" stroke-linejoin="round"/>
<path fill-rule="evenodd" clip-rule="evenodd" d="M43.5261 23.6696C44.1522 24.3035 44.1586 25.3378 43.5404 25.9798L29.562 40.3126C29.2626 40.6235 28.8543 40.7984 28.4283 40.7984C28.0022 40.7984 27.5939 40.6235 27.2946 40.3126L20.4594 33.3041C19.8412 32.6621 19.8475 31.6278 20.4737 30.9939C21.0998 30.36 22.1085 30.3665 22.7268 31.0085L28.4283 36.8398L41.273 23.6843C41.8912 23.0423 42.9 23.0357 43.5261 23.6696Z" stroke="#008450" stroke-width="1.6" stroke-linecap="round" stroke-linejoin="round"/>
</g>
<defs>
<clipPath id="clip0_155_74944">
<rect width="64" height="64" fill="white"/>
</clipPath>
</defs>
</svg>
