<svg width="64" height="64" viewBox="0 0 64 64" fill="none" xmlns="http://www.w3.org/2000/svg">
<g clip-path="url(#clip0_155_75014)">
<path d="M31.9998 23.1984C33.3253 23.1984 34.3998 22.1239 34.3998 20.7984C34.3998 19.473 33.3253 18.3984 31.9998 18.3984C30.6743 18.3984 29.5998 19.473 29.5998 20.7984C29.5998 22.1239 30.6743 23.1984 31.9998 23.1984Z" fill="#E6F3FB"/>
<path fill-rule="evenodd" clip-rule="evenodd" d="M26.3998 29.5984C26.3998 28.7148 27.1161 27.9984 27.9998 27.9984H32.1327C33.0163 27.9984 33.7327 28.7148 33.7327 29.5984V43.9984H37.5998C38.4835 43.9984 39.1998 44.7148 39.1998 45.5984C39.1998 46.4821 38.4835 47.1984 37.5998 47.1984H26.3998C25.5161 47.1984 24.7998 46.4821 24.7998 45.5984C24.7998 44.7148 25.5161 43.9984 26.3998 43.9984H30.5327V31.1984H27.9998C27.1161 31.1984 26.3998 30.4821 26.3998 29.5984Z" fill="#E6F3FB"/>
<path d="M31.9999 61.5984C48.3475 61.5984 61.5999 48.3461 61.5999 31.9984C61.5999 15.6508 48.3475 2.39844 31.9999 2.39844C15.6523 2.39844 2.3999 15.6508 2.3999 31.9984C2.3999 48.3461 15.6523 61.5984 31.9999 61.5984Z" stroke="#0583D2" stroke-width="1.6" stroke-linecap="round" stroke-linejoin="round"/>
<path d="M31.9999 23.1984C33.3254 23.1984 34.3999 22.1239 34.3999 20.7984C34.3999 19.473 33.3254 18.3984 31.9999 18.3984C30.6744 18.3984 29.5999 19.473 29.5999 20.7984C29.5999 22.1239 30.6744 23.1984 31.9999 23.1984Z" stroke="#0583D2" stroke-width="1.6" stroke-linecap="round" stroke-linejoin="round"/>
<path fill-rule="evenodd" clip-rule="evenodd" d="M26.3999 29.5984C26.3999 28.7148 27.1162 27.9984 27.9999 27.9984H32.1328C33.0164 27.9984 33.7328 28.7148 33.7328 29.5984V43.9984H37.5999C38.4836 43.9984 39.1999 44.7148 39.1999 45.5984C39.1999 46.4821 38.4836 47.1984 37.5999 47.1984H26.3999C25.5162 47.1984 24.7999 46.4821 24.7999 45.5984C24.7999 44.7148 25.5162 43.9984 26.3999 43.9984H30.5328V31.1984H27.9999C27.1162 31.1984 26.3999 30.4821 26.3999 29.5984Z" stroke="#0583D2" stroke-width="1.6" stroke-linecap="round" stroke-linejoin="round"/>
</g>
<defs>
<clipPath id="clip0_155_75014">
<rect width="64" height="64" fill="white"/>
</clipPath>
</defs>
</svg>
