<svg width="64" height="64" viewBox="0 0 64 64" fill="none" xmlns="http://www.w3.org/2000/svg">
<g clip-path="url(#clip0_155_75004)">
<path fill-rule="evenodd" clip-rule="evenodd" d="M50.2391 47.9759C50.864 48.6008 50.864 49.6138 50.2391 50.2387C49.6143 50.8635 48.6012 50.8635 47.9764 50.2387C37.0339 39.2962 25.4049 27.6672 13.7607 16.023C13.1359 15.3982 13.1359 14.3851 13.7607 13.7603C14.3856 13.1354 15.3986 13.1354 16.0235 13.7603C26.9659 24.7027 38.595 36.3318 50.2391 47.9759Z" fill="#FFE6E6"/>
<path d="M31.9999 61.5984C48.3475 61.5984 61.5999 48.3461 61.5999 31.9984C61.5999 15.6508 48.3475 2.39844 31.9999 2.39844C15.6523 2.39844 2.3999 15.6508 2.3999 31.9984C2.3999 48.3461 15.6523 61.5984 31.9999 61.5984Z" stroke="#FF0000" stroke-width="1.6" stroke-linecap="round" stroke-linejoin="round"/>
<path fill-rule="evenodd" clip-rule="evenodd" d="M50.2391 47.9752C50.864 48.6 50.864 49.6131 50.2391 50.2379C49.6143 50.8627 48.6012 50.8627 47.9764 50.2379C37.0339 39.2955 25.4049 27.6664 13.7607 16.0222C13.1359 15.3974 13.1359 14.3843 13.7607 13.7595C14.3856 13.1347 15.3986 13.1347 16.0235 13.7595C26.9659 24.7019 38.595 36.331 50.2391 47.9752Z" stroke="#FF0000" stroke-width="1.6" stroke-linecap="round" stroke-linejoin="round"/>
</g>
<defs>
<clipPath id="clip0_155_75004">
<rect width="64" height="64" fill="white"/>
</clipPath>
</defs>
</svg>
