<svg width="64" height="64" viewBox="0 0 64 64" fill="none" xmlns="http://www.w3.org/2000/svg">
<g clip-path="url(#clip0_155_74964)">
<path fill-rule="evenodd" clip-rule="evenodd" d="M32.0001 21.6016C32.8838 21.6016 33.6001 22.3179 33.6001 23.2016L33.6001 39.2016C33.6001 40.0852 32.8838 40.8016 32.0001 40.8016C31.1164 40.8016 30.4001 40.0852 30.4001 39.2016L30.4001 23.2016C30.4001 22.3179 31.1164 21.6016 32.0001 21.6016Z" fill="#FFF9E6"/>
<path d="M32.0001 50.4016C33.3256 50.4016 34.4001 49.327 34.4001 48.0016C34.4001 46.6761 33.3256 45.6016 32.0001 45.6016C30.6746 45.6016 29.6001 46.6761 29.6001 48.0016C29.6001 49.327 30.6746 50.4016 32.0001 50.4016Z" fill="#FFF9E6"/>
<path d="M32.0001 7.19922L5.6001 56.7992H58.4001L32.0001 7.19922Z" stroke="#FFC400" stroke-width="1.6" stroke-linecap="round" stroke-linejoin="round"/>
<path fill-rule="evenodd" clip-rule="evenodd" d="M32.0001 21.5992C32.8838 21.5992 33.6001 22.3156 33.6001 23.1992V39.1992C33.6001 40.0829 32.8838 40.7992 32.0001 40.7992C31.1164 40.7992 30.4001 40.0829 30.4001 39.1992V23.1992C30.4001 22.3156 31.1164 21.5992 32.0001 21.5992Z" stroke="#FFC400" stroke-width="1.6" stroke-linecap="round" stroke-linejoin="round"/>
<path d="M32.0001 50.3992C33.3256 50.3992 34.4001 49.3247 34.4001 47.9992C34.4001 46.6737 33.3256 45.5992 32.0001 45.5992C30.6746 45.5992 29.6001 46.6737 29.6001 47.9992C29.6001 49.3247 30.6746 50.3992 32.0001 50.3992Z" stroke="#FFC400" stroke-width="1.6" stroke-linecap="round" stroke-linejoin="round"/>
</g>
<defs>
<clipPath id="clip0_155_74964">
<rect width="64" height="64" fill="white"/>
</clipPath>
</defs>
</svg>
