<svg width="64" height="64" viewBox="0 0 64 64" fill="none" xmlns="http://www.w3.org/2000/svg">
<g clip-path="url(#clip0_155_74994)">
<path fill-rule="evenodd" clip-rule="evenodd" d="M20.4686 20.4686C21.0935 19.8438 22.1065 19.8438 22.7314 20.4686L32 29.7373L41.2686 20.4686C41.8935 19.8438 42.9065 19.8438 43.5314 20.4686C44.1562 21.0935 44.1562 22.1065 43.5314 22.7314L34.2627 32L43.5314 41.2686C44.1562 41.8935 44.1562 42.9065 43.5314 43.5314C42.9065 44.1562 41.8935 44.1562 41.2686 43.5314L32 34.2627L22.7314 43.5314C22.1065 44.1562 21.0935 44.1562 20.4686 43.5314C19.8438 42.9065 19.8438 41.8935 20.4686 41.2686L29.7373 32L20.4686 22.7314C19.8438 22.1065 19.8438 21.0935 20.4686 20.4686Z" fill="#FFE6E6"/>
<path fill-rule="evenodd" clip-rule="evenodd" d="M20.4687 20.4671C21.0936 19.8422 22.1066 19.8422 22.7315 20.4671L32.0001 29.7357L41.2687 20.4671C41.8936 19.8422 42.9066 19.8422 43.5315 20.4671C44.1563 21.0919 44.1563 22.105 43.5315 22.7298L34.2628 31.9984L43.5315 41.2671C44.1563 41.8919 44.1563 42.905 43.5315 43.5298C42.9066 44.1546 41.8936 44.1546 41.2687 43.5298L32.0001 34.2612L22.7315 43.5298C22.1066 44.1546 21.0936 44.1546 20.4687 43.5298C19.8439 42.905 19.8439 41.8919 20.4687 41.2671L29.7374 31.9984L20.4687 22.7298C19.8439 22.105 19.8439 21.0919 20.4687 20.4671Z" stroke="#FF0000" stroke-width="1.6" stroke-linecap="round" stroke-linejoin="round"/>
<path d="M33.0888 61.312C32.4151 61.6939 31.5851 61.6939 30.9114 61.312L6.68882 47.581C6.01512 47.1991 5.6001 46.4933 5.6001 45.7295L5.6001 18.2674C5.6001 17.5036 6.01512 16.7978 6.68882 16.4159L30.9114 2.68486C31.5851 2.30296 32.4151 2.30296 33.0888 2.68486L57.3114 16.4159C57.9851 16.7978 58.4001 17.5036 58.4001 18.2674V45.7295C58.4001 46.4933 57.9851 47.1991 57.3114 47.581L33.0888 61.312Z" stroke="#FF0000" stroke-width="1.6" stroke-linecap="round" stroke-linejoin="round"/>
</g>
<defs>
<clipPath id="clip0_155_74994">
<rect width="64" height="64" fill="white"/>
</clipPath>
</defs>
</svg>
