<svg width="368" height="64" viewBox="0 0 368 64" fill="none" xmlns="http://www.w3.org/2000/svg">
<rect width="368" height="63.9382" transform="translate(0 0.03125)" fill="white"/>
<path d="M129.313 28.2396C129.258 27.5513 129 27.0144 128.538 26.629C128.084 26.2435 127.392 26.0508 126.463 26.0508C125.871 26.0508 125.386 26.1231 125.007 26.2676C124.636 26.4053 124.36 26.5946 124.181 26.8355C124.003 27.0764 123.91 27.3517 123.903 27.6615C123.889 27.9161 123.934 28.1467 124.037 28.3532C124.147 28.5528 124.319 28.7352 124.553 28.9004C124.787 29.0587 125.087 29.2033 125.451 29.3341C125.816 29.4648 126.25 29.5818 126.752 29.6851L128.487 30.0568C129.657 30.3046 130.658 30.6315 131.491 31.0376C132.324 31.4437 133.006 31.9221 133.536 32.4727C134.066 33.0165 134.454 33.6291 134.702 34.3105C134.957 34.992 135.088 35.7353 135.095 36.5407C135.088 37.931 134.74 39.1081 134.052 40.0717C133.363 41.0353 132.379 41.7684 131.099 42.2708C129.826 42.7733 128.294 43.0245 126.505 43.0245C124.667 43.0245 123.063 42.7527 121.693 42.2089C120.33 41.6651 119.27 40.8288 118.513 39.7C117.763 38.5643 117.384 37.112 117.378 35.343H122.829C122.863 35.99 123.025 36.5338 123.314 36.9743C123.603 37.4148 124.009 37.7486 124.533 37.9758C125.063 38.2029 125.692 38.3165 126.422 38.3165C127.035 38.3165 127.547 38.2408 127.96 38.0894C128.373 37.9379 128.686 37.728 128.9 37.4596C129.113 37.1911 129.223 36.8848 129.23 36.5407C129.223 36.2172 129.117 35.9349 128.91 35.694C128.711 35.4462 128.38 35.226 127.919 35.0333C127.458 34.8336 126.835 34.6478 126.05 34.4757L123.944 34.0214C122.072 33.6153 120.595 32.9374 119.515 31.9875C118.441 31.0307 117.908 29.7264 117.914 28.0744C117.908 26.7322 118.265 25.5587 118.988 24.5537C119.718 23.5419 120.726 22.7538 122.013 22.1894C123.307 21.625 124.791 21.3428 126.463 21.3428C128.17 21.3428 129.647 21.6284 130.892 22.1997C132.138 22.771 133.098 23.5763 133.773 24.6157C134.454 25.6482 134.799 26.8561 134.805 28.2396H129.313Z" fill="#FF914D"/>
<path d="M109.447 21.6321H115.187V35.178C115.187 36.7887 114.802 38.1825 114.031 39.3595C113.267 40.5296 112.2 41.4348 110.83 42.0749C109.46 42.7081 107.87 43.0248 106.06 43.0248C104.236 43.0248 102.639 42.7081 101.27 42.0749C99.8998 41.4348 98.8329 40.5296 98.0689 39.3595C97.3118 38.1825 96.9332 36.7887 96.9332 35.178V21.6321H102.674V34.6824C102.674 35.3363 102.818 35.9214 103.107 36.4376C103.396 36.947 103.796 37.3462 104.305 37.6353C104.821 37.9244 105.406 38.0689 106.06 38.0689C106.721 38.0689 107.306 37.9244 107.815 37.6353C108.325 37.3462 108.724 36.947 109.013 36.4376C109.302 35.9214 109.447 35.3363 109.447 34.6824V21.6321Z" fill="#FF914D"/>
<path d="M69.8452 21.6321H76.9898L81.9043 33.6087H82.1521L87.0666 21.6321H94.2112V42.777H88.5946V30.5526H88.4295L83.7214 42.6118H80.335L75.627 30.47H75.4618V42.777H69.8452V21.6321Z" fill="#FF914D"/>
<path d="M67.1243 21.6321V42.777H61.3838V21.6321H67.1243Z" fill="#FF914D"/>
<path d="M41.9635 42.777V21.6321H51.0904C52.6598 21.6321 54.0329 21.9177 55.2099 22.489C56.3869 23.0603 57.3024 23.8829 57.9563 24.9566C58.6102 26.0304 58.9371 27.3175 58.9371 28.818C58.9371 30.3323 58.5998 31.6091 57.9253 32.6485C57.2576 33.6878 56.3181 34.4725 55.1067 35.0025C53.9021 35.5325 52.4946 35.7975 50.8839 35.7975H45.4325V31.3373H49.7276C50.4021 31.3373 50.9768 31.2547 51.4518 31.0895C51.9336 30.9174 52.3018 30.6455 52.5565 30.2738C52.8181 29.9021 52.9488 29.4169 52.9488 28.818C52.9488 28.2123 52.8181 27.7202 52.5565 27.3416C52.3018 26.9562 51.9336 26.674 51.4518 26.495C50.9768 26.3091 50.4021 26.2162 49.7276 26.2162H47.704V42.777H41.9635ZM54.353 33.0718L59.6392 42.777H53.4031L48.2408 33.0718H54.353Z" fill="#FF914D"/>
<path d="M31.6406 21.7205H33.2664C34.7732 21.7205 36.0917 22.0179 37.2218 22.6127C38.3519 23.2075 39.2309 24.0436 39.8588 25.1208C40.4866 26.1981 40.8005 27.4571 40.8005 28.8978C40.8005 30.3518 40.4767 31.6108 39.829 32.6748C39.188 33.7389 38.2859 34.5584 37.1227 35.1333C35.9661 35.7083 34.6146 35.9958 33.0681 35.9958H31.6406V31.7132H31.9579C32.6055 31.7132 33.1574 31.6009 33.6134 31.3762C34.076 31.1449 34.4296 30.8177 34.6741 30.3947C34.9252 29.9718 35.0508 29.4728 35.0508 28.8978C35.0508 28.3162 34.9252 27.8206 34.6741 27.4108C34.4296 26.9945 34.076 26.6772 33.6134 26.4591C33.1574 26.2344 32.6055 26.1221 31.9579 26.1221H31.6406V21.7205Z" fill="#FF914D"/>
<path d="M23.9649 38.2608L23.9649 42.9677H29.3981V21.6748H23.9322L19.9688 28.5109H23.9322L23.9322 38.2608H23.9649Z" fill="#FF6000"/>
<path d="M326.776 43.4833V27.6246H329.13V30.1025H329.337C329.667 29.2559 330.201 28.5986 330.937 28.1305C331.674 27.6556 332.558 27.4181 333.591 27.4181C334.637 27.4181 335.508 27.6556 336.203 28.1305C336.905 28.5986 337.452 29.2559 337.844 30.1025H338.01C338.416 29.2834 339.025 28.633 339.837 28.1512C340.649 27.6625 341.623 27.4181 342.759 27.4181C344.177 27.4181 345.337 27.8621 346.238 28.75C347.14 29.631 347.591 31.0042 347.591 32.8695V43.4833H345.154V32.8695C345.154 31.6994 344.834 30.8631 344.194 30.3606C343.554 29.8582 342.8 29.6069 341.933 29.6069C340.818 29.6069 339.954 29.9442 339.341 30.6188C338.729 31.2864 338.423 32.133 338.423 33.1586V43.4833H335.945V32.6217C335.945 31.7201 335.652 30.9939 335.067 30.4432C334.482 29.8857 333.728 29.6069 332.806 29.6069C332.173 29.6069 331.581 29.7756 331.03 30.1129C330.486 30.4501 330.046 30.9182 329.709 31.517C329.378 32.109 329.213 32.7938 329.213 33.5716V43.4833H326.776Z" fill="#FF6000"/>
<path d="M316.505 43.8137C314.977 43.8137 313.659 43.4764 312.551 42.8019C311.45 42.1204 310.6 41.1706 310.001 39.9522C309.409 38.7271 309.113 37.3023 309.113 35.6778C309.113 34.0534 309.409 32.6217 310.001 31.3828C310.6 30.1369 311.432 29.1664 312.499 28.4712C313.573 27.7692 314.826 27.4181 316.257 27.4181C317.083 27.4181 317.899 27.5558 318.704 27.8311C319.51 28.1064 320.243 28.5538 320.903 29.1733C321.564 29.7859 322.091 30.5981 322.483 31.6099C322.875 32.6217 323.072 33.8676 323.072 35.3475V36.3799H310.847V34.2737H320.594C320.594 33.3789 320.415 32.5804 320.057 31.8784C319.706 31.1763 319.203 30.6222 318.549 30.2161C317.902 29.81 317.138 29.6069 316.257 29.6069C315.287 29.6069 314.447 29.8479 313.738 30.3297C313.036 30.8046 312.496 31.4241 312.117 32.1881C311.739 32.9521 311.549 33.7712 311.549 34.6454V36.0495C311.549 37.2472 311.756 38.2624 312.169 39.0953C312.589 39.9213 313.17 40.5511 313.914 40.9847C314.657 41.4115 315.521 41.6248 316.505 41.6248C317.145 41.6248 317.723 41.5354 318.24 41.3564C318.763 41.1706 319.214 40.8952 319.592 40.5304C319.971 40.1587 320.263 39.6976 320.47 39.1469L322.824 39.8077C322.576 40.6061 322.16 41.3082 321.575 41.9139C320.99 42.5128 320.267 42.9808 319.406 43.3181C318.546 43.6485 317.579 43.8137 316.505 43.8137Z" fill="#FF6000"/>
<path d="M306.361 27.6248V29.6898H298.143V27.6248H306.361ZM300.538 23.8254H302.975V38.9406C302.975 39.6289 303.074 40.1452 303.274 40.4893C303.481 40.8266 303.742 41.0538 304.059 41.1708C304.382 41.2809 304.723 41.336 305.081 41.336C305.349 41.336 305.57 41.3222 305.742 41.2947C305.914 41.2602 306.051 41.2327 306.155 41.2121L306.65 43.4009C306.485 43.4628 306.254 43.5248 305.958 43.5867C305.662 43.6556 305.287 43.69 304.833 43.69C304.145 43.69 303.47 43.542 302.809 43.246C302.156 42.95 301.612 42.4992 301.178 41.8935C300.751 41.2878 300.538 40.5238 300.538 39.6014V23.8254Z" fill="#FF6000"/>
<path d="M295.506 31.1763L293.317 31.7958C293.179 31.431 292.976 31.0765 292.708 30.7323C292.446 30.3813 292.088 30.0922 291.634 29.8651C291.18 29.6379 290.598 29.5244 289.889 29.5244C288.919 29.5244 288.11 29.7481 287.463 30.1955C286.823 30.636 286.503 31.1969 286.503 31.8784C286.503 32.4841 286.723 32.9625 287.163 33.3135C287.604 33.6645 288.292 33.9571 289.228 34.1911L291.582 34.7693C293 35.1134 294.057 35.64 294.752 36.3489C295.447 37.051 295.795 37.9561 295.795 39.0643C295.795 39.9729 295.533 40.7851 295.01 41.5009C294.494 42.2168 293.771 42.7812 292.842 43.1942C291.913 43.6072 290.832 43.8137 289.6 43.8137C287.983 43.8137 286.644 43.4626 285.584 42.7606C284.524 42.0585 283.853 41.0329 283.571 39.6838L285.883 39.1056C286.103 39.9591 286.52 40.5993 287.132 41.026C287.752 41.4528 288.561 41.6661 289.559 41.6661C290.694 41.6661 291.596 41.4252 292.264 40.9434C292.938 40.4547 293.276 39.8696 293.276 39.1882C293.276 38.6376 293.083 38.1764 292.697 37.8047C292.312 37.4261 291.72 37.1439 290.922 36.9581L288.279 36.3386C286.826 35.9945 285.759 35.461 285.078 34.7383C284.403 34.0087 284.066 33.0967 284.066 32.0023C284.066 31.1075 284.317 30.3159 284.82 29.6276C285.329 28.9393 286.021 28.399 286.895 28.0066C287.776 27.6143 288.774 27.4181 289.889 27.4181C291.459 27.4181 292.691 27.7623 293.585 28.4506C294.487 29.1389 295.127 30.0475 295.506 31.1763Z" fill="#FF6000"/>
<path d="M269.659 49.4305C269.246 49.4305 268.877 49.3961 268.554 49.3273C268.23 49.2653 268.007 49.2034 267.883 49.1414L268.502 46.9939C269.094 47.1453 269.617 47.2004 270.072 47.1591C270.526 47.1178 270.929 46.9148 271.28 46.55C271.638 46.192 271.964 45.6104 272.26 44.8051L272.715 43.5661L266.85 27.6249H269.493L273.871 40.2622H274.036L278.414 27.6249H281.057L274.325 45.7963C274.023 46.6153 273.647 47.2933 273.2 47.8302C272.753 48.374 272.233 48.7766 271.641 49.0382C271.056 49.2998 270.395 49.4305 269.659 49.4305Z" fill="#FF6000"/>
<path d="M261.442 27.6246C261.318 26.5783 260.816 25.7661 259.935 25.188C259.054 24.6098 257.973 24.3207 256.693 24.3207C255.757 24.3207 254.938 24.4721 254.236 24.775C253.541 25.0778 252.997 25.4942 252.604 26.0242C252.219 26.5542 252.026 27.1565 252.026 27.8311C252.026 28.3955 252.161 28.8807 252.429 29.2868C252.704 29.6861 253.055 30.0199 253.482 30.2883C253.909 30.5499 254.356 30.7667 254.824 30.9388C255.292 31.104 255.722 31.2382 256.115 31.3414L258.262 31.9196C258.813 32.0642 259.426 32.2638 260.1 32.5185C260.782 32.7731 261.432 33.1207 262.051 33.5612C262.678 33.9949 263.194 34.5524 263.6 35.2338C264.006 35.9153 264.209 36.7516 264.209 37.7427C264.209 38.8853 263.91 39.9178 263.311 40.8401C262.719 41.7625 261.852 42.4955 260.709 43.0393C259.574 43.583 258.194 43.8549 256.569 43.8549C255.055 43.8549 253.744 43.6106 252.635 43.1219C251.534 42.6332 250.667 41.9517 250.034 41.0776C249.407 40.2034 249.053 39.1882 248.97 38.0318H251.613C251.682 38.8303 251.951 39.491 252.419 40.0141C252.894 40.5304 253.492 40.9158 254.215 41.1705C254.945 41.4183 255.729 41.5422 256.569 41.5422C257.547 41.5422 258.424 41.3839 259.202 41.0673C259.98 40.7438 260.596 40.2964 261.05 39.7251C261.504 39.1469 261.731 38.4723 261.731 37.7014C261.731 36.9994 261.535 36.4281 261.143 35.9875C260.751 35.547 260.234 35.1891 259.594 34.9138C258.954 34.6384 258.262 34.3975 257.519 34.191L254.917 33.4477C253.265 32.9727 251.957 32.2948 250.994 31.4137C250.03 30.5327 249.548 29.3798 249.548 27.955C249.548 26.7711 249.868 25.7386 250.509 24.8576C251.156 23.9696 252.023 23.2813 253.11 22.7926C254.205 22.297 255.427 22.0493 256.776 22.0493C258.138 22.0493 259.35 22.2936 260.41 22.7823C261.47 23.2641 262.31 23.9249 262.929 24.7646C263.555 25.6044 263.886 26.5577 263.92 27.6246H261.442Z" fill="#FF6000"/>
<path d="M226.803 33.9433V43.4833H224.366V27.6246H226.72V30.1025H226.926C227.298 29.2972 227.863 28.6502 228.62 28.1615C229.377 27.6659 230.354 27.4181 231.552 27.4181C232.626 27.4181 233.565 27.6384 234.37 28.0789C235.176 28.5125 235.802 29.1733 236.25 30.0612C236.697 30.9423 236.921 32.0573 236.921 33.4064V43.4833H234.484V33.5716C234.484 32.3258 234.161 31.3553 233.514 30.6601C232.867 29.958 231.979 29.6069 230.85 29.6069C230.072 29.6069 229.377 29.7756 228.764 30.1129C228.159 30.4501 227.68 30.9423 227.329 31.5893C226.978 32.2363 226.803 33.021 226.803 33.9433Z" fill="#FF6000"/>
<path d="M213.05 49.7607C211.873 49.7607 210.862 49.6092 210.015 49.3064C209.168 49.0104 208.463 48.6181 207.898 48.1294C207.341 47.6476 206.897 47.1313 206.567 46.5807L208.508 45.2178C208.728 45.5069 209.007 45.8373 209.344 46.209C209.681 46.5876 210.142 46.9145 210.727 47.1898C211.319 47.472 212.094 47.6131 213.05 47.6131C214.331 47.6131 215.387 47.3034 216.22 46.6839C217.053 46.0644 217.469 45.0939 217.469 43.7724V40.5511H217.263C217.084 40.8402 216.829 41.1981 216.499 41.6248C216.175 42.0447 215.707 42.4198 215.095 42.7502C214.489 43.0737 213.67 43.2355 212.637 43.2355C211.357 43.2355 210.208 42.9326 209.189 42.3269C208.177 41.7212 207.375 40.8402 206.783 39.6838C206.198 38.5274 205.906 37.1233 205.906 35.4713C205.906 33.8469 206.191 32.4325 206.763 31.2279C207.334 30.0165 208.129 29.0804 209.148 28.4196C210.166 27.752 211.343 27.4181 212.679 27.4181C213.711 27.4181 214.53 27.5902 215.136 27.9344C215.749 28.2716 216.217 28.6571 216.54 29.0907C216.871 29.5175 217.125 29.8685 217.304 30.1438H217.552V27.6246H219.906V43.9376C219.906 45.3004 219.596 46.4086 218.977 47.2621C218.364 48.1225 217.538 48.7523 216.499 49.1515C215.466 49.5576 214.317 49.7607 213.05 49.7607ZM212.968 41.0467C213.945 41.0467 214.771 40.823 215.446 40.3756C216.12 39.9282 216.633 39.2846 216.984 38.4448C217.335 37.6051 217.511 36.6002 217.511 35.4301C217.511 34.2875 217.339 33.2791 216.994 32.4049C216.65 31.5308 216.141 30.8459 215.466 30.3503C214.792 29.8547 213.959 29.6069 212.968 29.6069C211.935 29.6069 211.075 29.8685 210.387 30.3916C209.705 30.9147 209.192 31.6168 208.848 32.4978C208.511 33.3789 208.342 34.3563 208.342 35.4301C208.342 36.5313 208.514 37.5053 208.859 38.3519C209.21 39.1917 209.726 39.8524 210.407 40.3343C211.096 40.8092 211.949 41.0467 212.968 41.0467Z" fill="#FF6000"/>
<path d="M199.749 43.4834V27.6247H202.186V43.4834H199.749ZM200.988 24.9816C200.513 24.9816 200.104 24.8199 199.76 24.4964C199.422 24.1729 199.254 23.784 199.254 23.3297C199.254 22.8754 199.422 22.4865 199.76 22.163C200.104 21.8395 200.513 21.6777 200.988 21.6777C201.463 21.6777 201.869 21.8395 202.207 22.163C202.551 22.4865 202.723 22.8754 202.723 23.3297C202.723 23.784 202.551 24.1729 202.207 24.4964C201.869 24.8199 201.463 24.9816 200.988 24.9816Z" fill="#FF6000"/>
<path d="M195.793 31.1763L193.604 31.7958C193.466 31.431 193.263 31.0765 192.995 30.7323C192.733 30.3813 192.375 30.0922 191.921 29.8651C191.467 29.6379 190.885 29.5244 190.176 29.5244C189.206 29.5244 188.397 29.7481 187.75 30.1955C187.11 30.636 186.79 31.1969 186.79 31.8784C186.79 32.4841 187.01 32.9625 187.45 33.3135C187.891 33.6645 188.579 33.9571 189.515 34.1911L191.869 34.7693C193.287 35.1134 194.344 35.64 195.039 36.3489C195.734 37.051 196.082 37.9561 196.082 39.0643C196.082 39.9729 195.82 40.7851 195.297 41.5009C194.781 42.2168 194.058 42.7812 193.129 43.1942C192.2 43.6072 191.119 43.8137 189.887 43.8137C188.269 43.8137 186.931 43.4626 185.871 42.7606C184.811 42.0585 184.14 41.0329 183.857 39.6838L186.17 39.1056C186.39 39.9591 186.807 40.5993 187.419 41.026C188.039 41.4528 188.848 41.6661 189.846 41.6661C190.981 41.6661 191.883 41.4252 192.551 40.9434C193.225 40.4547 193.563 39.8696 193.563 39.1882C193.563 38.6376 193.37 38.1764 192.984 37.8047C192.599 37.4261 192.007 37.1439 191.209 36.9581L188.565 36.3386C187.113 35.9945 186.046 35.461 185.365 34.7383C184.69 34.0087 184.353 33.0967 184.353 32.0023C184.353 31.1075 184.604 30.3159 185.107 29.6276C185.616 28.9393 186.308 28.399 187.182 28.0066C188.063 27.6143 189.061 27.4181 190.176 27.4181C191.745 27.4181 192.977 27.7623 193.872 28.4506C194.774 29.1389 195.414 30.0475 195.793 31.1763Z" fill="#FF6000"/>
<path d="M174.285 43.8137C172.757 43.8137 171.439 43.4764 170.331 42.8019C169.23 42.1204 168.38 41.1706 167.781 39.9522C167.189 38.7271 166.893 37.3023 166.893 35.6778C166.893 34.0534 167.189 32.6217 167.781 31.3828C168.38 30.1369 169.213 29.1664 170.28 28.4712C171.353 27.7692 172.606 27.4181 174.038 27.4181C174.864 27.4181 175.679 27.5558 176.485 27.8311C177.29 28.1064 178.023 28.5538 178.684 29.1733C179.345 29.7859 179.871 30.5981 180.263 31.6099C180.656 32.6217 180.852 33.8676 180.852 35.3475V36.3799H168.628V34.2737H178.374C178.374 33.3789 178.195 32.5804 177.837 31.8784C177.486 31.1763 176.984 30.6222 176.33 30.2161C175.683 29.81 174.919 29.6069 174.038 29.6069C173.067 29.6069 172.227 29.8479 171.518 30.3297C170.816 30.8046 170.276 31.4241 169.898 32.1881C169.519 32.9521 169.33 33.7712 169.33 34.6454V36.0495C169.33 37.2472 169.536 38.2624 169.949 39.0953C170.369 39.9213 170.951 40.5511 171.694 40.9847C172.437 41.4115 173.301 41.6248 174.285 41.6248C174.926 41.6248 175.504 41.5354 176.02 41.3564C176.543 41.1706 176.994 40.8952 177.373 40.5304C177.751 40.1587 178.044 39.6976 178.25 39.1469L180.604 39.8077C180.356 40.6061 179.94 41.3082 179.355 41.9139C178.77 42.5128 178.047 42.9808 177.187 43.3181C176.326 43.6485 175.359 43.8137 174.285 43.8137Z" fill="#FF6000"/>
<path d="M153.595 43.4834H147.07V22.3386H153.885C155.936 22.3386 157.691 22.7619 159.15 23.6085C160.609 24.4482 161.728 25.6562 162.506 27.2324C163.283 28.8018 163.672 30.6809 163.672 32.8697C163.672 35.0723 163.28 36.9686 162.495 38.5586C161.711 40.1417 160.568 41.36 159.067 42.2135C157.567 43.0601 155.743 43.4834 153.595 43.4834ZM149.631 41.212H153.43C155.179 41.212 156.627 40.8748 157.777 40.2002C158.926 39.5257 159.783 38.5655 160.348 37.3196C160.912 36.0738 161.194 34.5905 161.194 32.8697C161.194 31.1627 160.916 29.6932 160.358 28.4611C159.801 27.2221 158.968 26.2723 157.86 25.6115C156.751 24.9438 155.371 24.61 153.719 24.61H149.631V41.212Z" fill="#FF6000"/>
</svg>
