<svg width="158" height="96" viewBox="0 0 158 96" fill="none" xmlns="http://www.w3.org/2000/svg">
<path d="M0.5 4C0.5 1.79086 2.29086 0 4.5 0H153.5C155.709 0 157.5 1.79086 157.5 4V20C157.5 22.2091 155.709 24 153.5 24H4.5C2.29086 24 0.5 22.2091 0.5 20V4Z" fill="#E5E5E5"/>
<path d="M0.5 36C0.5 33.7909 2.29086 32 4.5 32H83.5C85.7091 32 87.5 33.7909 87.5 36V44C87.5 46.2091 85.7091 48 83.5 48H4.5C2.29086 48 0.5 46.2091 0.5 44V36Z" fill="#E5E5E5"/>
<path d="M0.5 76C0.5 73.7909 2.29086 72 4.5 72H67.5C69.7091 72 71.5 73.7909 71.5 76V92C71.5 94.2091 69.7091 96 67.5 96H4.5C2.29086 96 0.5 94.2091 0.5 92V76Z" fill="#FFEDE0"/>
</svg>
