<svg width="96" height="96" viewBox="0 0 96 96" fill="none" xmlns="http://www.w3.org/2000/svg">
<g clip-path="url(#clip0_4347_30029)">
<rect x="0.5" width="96" height="96" fill="#FAFAFA"/>
<g clip-path="url(#clip1_4347_30029)">
<path d="M45.4579 22C41.5153 19.1229 41.9715 14.9855 44.1675 12.7022C46.3636 10.4189 49.9255 10.4464 52.1484 12.7022C54.3713 14.958 53.8033 20.0255 50.8059 22" fill="#FFEDE0"/>
<path d="M30.5 36.7C30.5 28.5814 37.1367 22 45.3235 22H51.6765C59.8633 22 66.5 28.5814 66.5 36.7V43C64.3824 43 45.4109 42.4003 42.1471 32.5C40.0294 37.75 35.9494 40.1624 30.5 39.85V36.7Z" fill="#FFEDE0"/>
<path d="M63.4986 43V43.9988C63.4986 52.2805 56.7829 58.9941 48.4986 58.9941C40.2143 58.9941 33.4986 52.2805 33.4986 43.9988V40M21.5 84.9941V81.9941C21.5 72.053 29.5618 63.9941 39.506 63.9941C45.5287 63.9941 51.4902 63.9941 57.4941 63.9941C67.4383 63.9941 75.5 72.053 75.5 81.9941V84.9941M45.4579 22C41.5153 19.1229 41.9715 14.9855 44.1675 12.7022C46.3636 10.4189 49.9255 10.4464 52.1484 12.7022C54.3713 14.958 53.8033 20.0255 50.8059 22H45.4579ZM66.5 43V36.7C66.5 28.5814 59.8633 22 51.6765 22H45.3235C37.1367 22 30.5 28.5814 30.5 36.7V39.85C35.9494 40.1624 40.0294 37.75 42.1471 32.5C45.4109 42.4003 64.3824 43 66.5 43Z" stroke="#FF6000" stroke-width="2" stroke-linecap="round" stroke-linejoin="round"/>
</g>
</g>
<defs>
<clipPath id="clip0_4347_30029">
<rect x="0.5" width="96" height="96" rx="48" fill="white"/>
</clipPath>
<clipPath id="clip1_4347_30029">
<rect width="80" height="80" fill="white" transform="translate(8.5 8)"/>
</clipPath>
</defs>
</svg>
