<svg width="190" height="42" viewBox="0 0 190 42" fill="none" xmlns="http://www.w3.org/2000/svg">
<path d="M173.25 14.4095C173.25 15.5438 173.669 16.367 174.507 16.8793C175.346 17.5013 177.132 18.1416 179.866 18.8002C182.745 19.4954 184.841 20.4467 186.153 21.6542C187.502 22.8616 188.176 24.5996 188.176 26.8681C188.176 29.2464 187.283 31.1674 185.497 32.6309C183.747 34.0945 181.451 34.8263 178.608 34.8263C174.489 34.8263 170.771 33.3627 167.454 30.4356L170.297 27.0328C173.068 29.4111 175.874 30.6002 178.717 30.6002C180.139 30.6002 181.287 30.2892 182.162 29.6672C183.037 29.0086 183.474 28.167 183.474 27.1425C183.474 26.118 183.073 25.3131 182.271 24.7277C181.506 24.1422 180.121 23.6117 178.116 23.136C174.653 22.3311 172.247 21.3797 170.899 20.2821C169.331 19.0746 168.548 17.2269 168.548 14.7388C168.548 12.3239 169.423 10.4396 171.172 9.08577C172.922 7.69538 175.163 7.00019 177.897 7.00019C181.579 7.00019 184.732 8.07957 187.356 10.2383L184.95 13.6411C184.148 12.9093 183.073 12.3239 181.724 11.8848C180.376 11.4092 179.045 11.1714 177.733 11.1714C176.385 11.1714 175.291 11.4641 174.453 12.0495C173.651 12.5983 173.25 13.385 173.25 14.4095Z" fill="#FF6000"/>
<path d="M154.926 30.4895C157.004 30.4895 158.644 29.776 159.847 28.349C161.087 26.922 161.706 24.9828 161.706 22.5313V7.65782H166.244V22.696C166.244 26.5013 165.205 29.465 163.128 31.5872C161.05 33.7093 158.316 34.7704 154.926 34.7704C151.537 34.7704 148.803 33.7093 146.725 31.5872C144.648 29.465 143.609 26.5013 143.609 22.696V7.65782H148.092V22.5313C148.092 25.0194 148.712 26.9586 149.951 28.349C151.154 29.776 152.812 30.4895 154.926 30.4895Z" fill="#FF6000"/>
<path d="M114.589 34.496H110.051V7.65782H117.104L125.141 24.5072L133.233 7.65782H140.232V34.496H135.748V13.5304L126.399 32.136H123.884L114.589 13.5304V34.496Z" fill="#FF6000"/>
<path d="M101.848 7.65782H106.386V34.496H101.848V7.65782Z" fill="#FF6000"/>
<path d="M59.7836 11.771H65.443C67.8851 11.771 69.5801 12.1003 70.5278 12.7589C71.4755 13.3809 71.9493 14.5701 71.9493 16.3264C71.9493 18.1558 71.4755 19.4547 70.5278 20.2231C69.5801 20.9915 67.8487 21.3757 65.3336 21.3757H61.6869V25.4371H65.6617C71.3882 25.2862 76.542 23.0298 76.542 16.3812C76.542 13.3077 75.649 11.0941 73.863 9.74029C72.1134 8.3499 69.2156 7.6547 65.1696 7.6547H53.1535L51.4805 13.7158H55.2063V34.4929H59.7444L59.7836 11.771Z" fill="#FF6000"/>
<path d="M100.279 34.496L93.2805 24.7267C97.1078 23.5924 99.0214 20.8116 99.0214 16.3844C99.0214 13.3109 98.1284 11.0972 96.3423 9.74341C94.5927 8.35302 91.695 7.65782 87.649 7.65782H77.6981V34.496H82.2362V11.7741H87.9224C90.3645 11.7741 92.0595 12.1034 93.0072 12.762C93.9549 13.384 94.4287 14.5732 94.4287 16.3295C94.4287 18.1589 93.9549 19.4578 93.0072 20.2262C92.0595 20.9946 90.3281 21.3788 87.813 21.3788H84.1663V25.4402H88.1411L94.5381 34.496H100.279Z" fill="#FF6000"/>
<rect width="41.7391" height="41.7391" rx="1.3913" fill="#FAFAFA"/>
<path d="M2.60547 3.90982C2.60547 3.18945 3.18945 2.60547 3.90982 2.60547H6.51851C7.23888 2.60547 7.82286 3.18945 7.82286 3.90982V6.51851C7.82286 7.23888 7.23888 7.82286 6.51851 7.82286H3.90982C3.18945 7.82286 2.60547 7.23888 2.60547 6.51851V3.90982Z" fill="#F69F29"/>
<path d="M2.60547 11.7379C2.60547 11.0176 3.18945 10.4336 3.90982 10.4336H6.51851C7.23888 10.4336 7.82286 11.0176 7.82286 11.7379V14.3466C7.82286 15.067 7.23888 15.651 6.51851 15.651H3.90982C3.18945 15.651 2.60547 15.067 2.60547 14.3466V11.7379Z" fill="#7723DB"/>
<path d="M2.60547 19.5622C2.60547 18.8418 3.18945 18.2578 3.90982 18.2578H6.51851C7.23888 18.2578 7.82286 18.8418 7.82286 19.5622V22.1709C7.82286 22.8912 7.23888 23.4752 6.51851 23.4752H3.90982C3.18945 23.4752 2.60547 22.8912 2.60547 22.1709V19.5622Z" fill="#4AC7ED"/>
<path d="M2.60547 27.3903C2.60547 26.6699 3.18945 26.0859 3.90982 26.0859H6.51851C7.23888 26.0859 7.82286 26.6699 7.82286 27.3903V29.999C7.82286 30.7194 7.23888 31.3033 6.51851 31.3033H3.90982C3.18945 31.3033 2.60547 30.7194 2.60547 29.999V27.3903Z" fill="#76BC21"/>
<path d="M2.60547 35.2145C2.60547 34.4941 3.18945 33.9102 3.90982 33.9102H6.51851C7.23888 33.9102 7.82286 34.4941 7.82286 35.2145V37.8232C7.82286 38.5436 7.23888 39.1275 6.51851 39.1275H3.90982C3.18945 39.1275 2.60547 38.5436 2.60547 37.8232V35.2145Z" fill="#FF6000"/>
<path d="M10.4336 3.90982C10.4336 3.18945 11.0176 2.60547 11.7379 2.60547H14.3466C15.067 2.60547 15.651 3.18945 15.651 3.90982V6.51851C15.651 7.23888 15.067 7.82286 14.3466 7.82286H11.7379C11.0176 7.82286 10.4336 7.23888 10.4336 6.51851V3.90982Z" fill="#7723DB"/>
<path d="M10.4336 11.7379C10.4336 11.0176 11.0176 10.4336 11.7379 10.4336H14.3466C15.067 10.4336 15.651 11.0176 15.651 11.7379V14.3466C15.651 15.067 15.067 15.651 14.3466 15.651H11.7379C11.0176 15.651 10.4336 15.067 10.4336 14.3466V11.7379Z" fill="#4AC7ED"/>
<path d="M10.4336 19.5622C10.4336 18.8418 11.0176 18.2578 11.7379 18.2578H14.3466C15.067 18.2578 15.651 18.8418 15.651 19.5622V22.1709C15.651 22.8912 15.067 23.4752 14.3466 23.4752H11.7379C11.0176 23.4752 10.4336 22.8912 10.4336 22.1709V19.5622Z" fill="#76BC21"/>
<path d="M10.4336 27.3903C10.4336 26.6699 11.0176 26.0859 11.7379 26.0859H14.3466C15.067 26.0859 15.651 26.6699 15.651 27.3903V29.999C15.651 30.7194 15.067 31.3033 14.3466 31.3033H11.7379C11.0176 31.3033 10.4336 30.7194 10.4336 29.999V27.3903Z" fill="#FF6000"/>
<path d="M10.4336 35.2145C10.4336 34.4941 11.0176 33.9102 11.7379 33.9102H14.3466C15.067 33.9102 15.651 34.4941 15.651 35.2145V37.8232C15.651 38.5436 15.067 39.1275 14.3466 39.1275H11.7379C11.0176 39.1275 10.4336 38.5436 10.4336 37.8232V35.2145Z" fill="#45B796"/>
<path d="M18.2578 3.90982C18.2578 3.18945 18.8418 2.60547 19.5622 2.60547H22.1709C22.8912 2.60547 23.4752 3.18945 23.4752 3.90982V6.51851C23.4752 7.23888 22.8912 7.82286 22.1709 7.82286H19.5622C18.8418 7.82286 18.2578 7.23888 18.2578 6.51851V3.90982Z" fill="#4AC7ED"/>
<path d="M18.2578 11.7379C18.2578 11.0176 18.8418 10.4336 19.5622 10.4336H22.1709C22.8912 10.4336 23.4752 11.0176 23.4752 11.7379V14.3466C23.4752 15.067 22.8912 15.651 22.1709 15.651H19.5622C18.8418 15.651 18.2578 15.067 18.2578 14.3466V11.7379Z" fill="#76BC21"/>
<path d="M18.2578 19.5622C18.2578 18.8418 18.8418 18.2578 19.5622 18.2578H22.1709C22.8912 18.2578 23.4752 18.8418 23.4752 19.5622V22.1709C23.4752 22.8912 22.8912 23.4752 22.1709 23.4752H19.5622C18.8418 23.4752 18.2578 22.8912 18.2578 22.1709V19.5622Z" fill="#FF6000"/>
<path d="M18.2578 27.3903C18.2578 26.6699 18.8418 26.0859 19.5622 26.0859H22.1709C22.8912 26.0859 23.4752 26.6699 23.4752 27.3903V29.999C23.4752 30.7194 22.8912 31.3033 22.1709 31.3033H19.5622C18.8418 31.3033 18.2578 30.7194 18.2578 29.999V27.3903Z" fill="#45B796"/>
<path d="M18.2578 35.2145C18.2578 34.4941 18.8418 33.9102 19.5622 33.9102H22.1709C22.8912 33.9102 23.4752 34.4941 23.4752 35.2145V37.8232C23.4752 38.5436 22.8912 39.1275 22.1709 39.1275H19.5622C18.8418 39.1275 18.2578 38.5436 18.2578 37.8232V35.2145Z" fill="#5D196A"/>
<path d="M26.0859 3.90982C26.0859 3.18945 26.6699 2.60547 27.3903 2.60547H29.999C30.7194 2.60547 31.3033 3.18945 31.3033 3.90982V6.51851C31.3033 7.23888 30.7194 7.82286 29.999 7.82286H27.3903C26.6699 7.82286 26.0859 7.23888 26.0859 6.51851V3.90982Z" fill="#76BC21"/>
<path d="M26.0859 11.7379C26.0859 11.0176 26.6699 10.4336 27.3903 10.4336H29.999C30.7194 10.4336 31.3033 11.0176 31.3033 11.7379V14.3466C31.3033 15.067 30.7194 15.651 29.999 15.651H27.3903C26.6699 15.651 26.0859 15.067 26.0859 14.3466V11.7379Z" fill="#FF6000"/>
<path d="M26.0859 19.5622C26.0859 18.8418 26.6699 18.2578 27.3903 18.2578H29.999C30.7194 18.2578 31.3033 18.8418 31.3033 19.5622V22.1709C31.3033 22.8912 30.7194 23.4752 29.999 23.4752H27.3903C26.6699 23.4752 26.0859 22.8912 26.0859 22.1709V19.5622Z" fill="#45B796"/>
<path d="M26.0859 27.3903C26.0859 26.6699 26.6699 26.0859 27.3903 26.0859H29.999C30.7194 26.0859 31.3033 26.6699 31.3033 27.3903V29.999C31.3033 30.7194 30.7194 31.3033 29.999 31.3033H27.3903C26.6699 31.3033 26.0859 30.7194 26.0859 29.999V27.3903Z" fill="#5D196A"/>
<path d="M26.0859 35.2145C26.0859 34.4941 26.6699 33.9102 27.3903 33.9102H29.999C30.7194 33.9102 31.3033 34.4941 31.3033 35.2145V37.8232C31.3033 38.5436 30.7194 39.1275 29.999 39.1275H27.3903C26.6699 39.1275 26.0859 38.5436 26.0859 37.8232V35.2145Z" fill="#F69F29"/>
<path d="M33.9102 3.90982C33.9102 3.18945 34.4941 2.60547 35.2145 2.60547H37.8232C38.5436 2.60547 39.1275 3.18945 39.1275 3.90982V6.51851C39.1275 7.23888 38.5436 7.82286 37.8232 7.82286H35.2145C34.4941 7.82286 33.9102 7.23888 33.9102 6.51851V3.90982Z" fill="#FF6000"/>
<path d="M33.9102 11.7379C33.9102 11.0176 34.4941 10.4336 35.2145 10.4336H37.8232C38.5436 10.4336 39.1275 11.0176 39.1275 11.7379V14.3466C39.1275 15.067 38.5436 15.651 37.8232 15.651H35.2145C34.4941 15.651 33.9102 15.067 33.9102 14.3466V11.7379Z" fill="#45B796"/>
<path d="M33.9102 19.5622C33.9102 18.8418 34.4941 18.2578 35.2145 18.2578H37.8232C38.5436 18.2578 39.1275 18.8418 39.1275 19.5622V22.1709C39.1275 22.8912 38.5436 23.4752 37.8232 23.4752H35.2145C34.4941 23.4752 33.9102 22.8912 33.9102 22.1709V19.5622Z" fill="#5D196A"/>
<path d="M33.9102 27.3903C33.9102 26.6699 34.4941 26.0859 35.2145 26.0859H37.8232C38.5436 26.0859 39.1275 26.6699 39.1275 27.3903V29.999C39.1275 30.7194 38.5436 31.3033 37.8232 31.3033H35.2145C34.4941 31.3033 33.9102 30.7194 33.9102 29.999V27.3903Z" fill="#F69F29"/>
<path d="M33.9102 35.2145C33.9102 34.4941 34.4941 33.9102 35.2145 33.9102H37.8232C38.5436 33.9102 39.1275 34.4941 39.1275 35.2145V37.8232C39.1275 38.5436 38.5436 39.1275 37.8232 39.1275H35.2145C34.4941 39.1275 33.9102 38.5436 33.9102 37.8232V35.2145Z" fill="#7723DB"/>
</svg>
